<svg t="1591240717510" class="icon" viewBox="0 0 1024 1024" version="1.1" xmlns="http://www.w3.org/2000/svg" p-id="2568" width="200" height="200"><path d="M784.1792 409.531733l-249.992533 95.573334 249.924266 95.573333c63.6928 24.576 100.488533 44.168533 110.318934 58.845867 9.762133 14.7456 14.677333 29.422933 14.677333 44.168533 0 39.253333-7.441067 61.303467-22.3232 66.1504-14.336 4.778667-29.354667 7.304533-44.509867 7.304533a98.986667 98.986667 0 0 1-44.578133-10.990933 349.3888 349.3888 0 0 1-51.882667-33.109333L515.754667 527.1552l52.087466 308.8384c4.846933 14.677333 7.3728 28.194133 7.3728 40.413867v25.8048c0 29.354667-7.3728 50.244267-22.254933 62.464-14.9504 12.288-32.221867 18.363733-51.950933 18.363733-15.1552 0-31.5392-4.846933-49.220267-14.7456-17.749333-9.693867-26.4192-31.812267-26.4192-66.082133 0-9.762133 1.297067-19.592533 3.754667-29.4912 2.525867-9.693867 3.754667-22.050133 3.754666-36.795734l60.416-308.770133-234.2912 205.892267c-16.042667 10.376533-32.426667 20.138667-49.152 29.422933-17.749333 9.8304-33.9968 14.677333-49.083733 14.677333-15.1552 0-30.173867-4.778667-45.329067-14.677333-15.1552-9.762133-22.664533-29.422933-22.664533-58.845867 0-19.592533 7.3728-36.795733 22.050133-51.541333 14.7456-14.7456 48.9472-31.812267 102.946134-51.473067l250.197333-95.573333-249.992533-95.573333A1611.025067 1611.025067 0 0 1 129.706667 369.117867c-24.576-12.288-36.727467-33.109333-36.727467-62.464 0-24.507733 7.304533-42.871467 22.1184-55.159467 14.882133-12.151467 29.627733-18.432 44.578133-18.432 14.813867 0 30.9248 3.6864 48.264534 11.0592 17.2032 7.3728 33.245867 18.432 48.264533 33.109333l229.9904 205.892267-51.882667-308.8384c0-14.677333-1.365333-26.8288-3.822933-36.795733a115.165867 115.165867 0 0 1-3.6864-29.354667c0-19.6608 7.3728-37.956267 22.254933-55.296 14.882133-16.9984 32.290133-25.6 51.882667-25.6 30.3104 0 50.244267 9.8304 60.552533 29.422933 9.966933 19.592533 15.1552 36.795733 15.1552 51.541334v33.109333c0 12.288-2.594133 23.210667-7.645866 33.109333l-60.416 308.701867 234.154666-205.824c20.206933-19.592533 37.751467-31.880533 52.974934-36.864a146.773333 146.773333 0 0 1 45.329066-7.304533 61.44 61.44 0 0 1 49.015467 22.050133c12.4928 14.267733 19.2512 32.5632 19.114667 51.541333 0 19.592533-4.983467 35.566933-14.7456 47.786667-9.966933 12.219733-46.626133 30.583467-110.318934 55.0912z" fill="#DB4B42" p-id="2569"></path></svg>