<svg t="1594290976954" class="icon" viewBox="0 0 1024 1024" version="1.1" xmlns="http://www.w3.org/2000/svg" p-id="2696" width="200" height="200"><path d="M335.037 199.999c-9.083 9.083-9.083 24.049 0 33.132l279.094 278.991-279.09399999 279.094c-9.083 9.083-9.083 24.049-1e-8 33.132 9.083 9.083 24.049 9.083 33.13200001 0l292.92499999-292.92499999c1.032-0.723 2.064-1.548 2.993-2.47700002 4.645-4.645 6.915-10.734 6.812-16.82399999 0.103-6.09-2.168-12.179-6.812-16.824-0.929-0.929-1.961-1.755-2.993-2.477l-292.925-292.822c-9.083-9.083-24.049-9.083-33.132 0z" fill="#666666" p-id="2697"></path></svg>