<?xml version="1.0" encoding="utf-8"?>
<svg version="1.1" xmlns:xlink="http://www.w3.org/1999/xlink" width="12px" height="12px" viewBox="22 843  12 12" xmlns="http://www.w3.org/2000/svg">
  <path d="M 28 843  C 31.36 843  34 845.64  34 849  C 34 852.36  31.36 855  28 855  C 24.64 855  22 852.36  22 849  C 22 845.64  24.64 843  28 843  Z " fill-rule="nonzero" fill="#ffffff" stroke="none" />
  <path d="M 28 843.5  C 31.08 843.5  33.5 845.92  33.5 849  C 33.5 852.08  31.08 854.5  28 854.5  C 24.92 854.5  22.5 852.08  22.5 849  C 22.5 845.92  24.92 843.5  28 843.5  Z " stroke-width="1" stroke="#797979" fill="none" />
  <path d="M 28 852  C 26.32 852  25 850.68  25 849  C 25 847.32  26.32 846  28 846  C 29.68 846  31 847.32  31 849  C 31 850.68  29.68 852  28 852  " fill-rule="nonzero" fill="#797979" stroke="none" />
</svg>