<?xml version="1.0" encoding="utf-8"?>
<svg version="1.1" xmlns:xlink="http://www.w3.org/1999/xlink" width="12px" height="12px" viewBox="22 1021  12 12" xmlns="http://www.w3.org/2000/svg">
  <path d="M 28 1021  C 31.36 1021  34 1023.64  34 1027  C 34 1030.36  31.36 1033  28 1033  C 24.64 1033  22 1030.36  22 1027  C 22 1023.64  24.64 1021  28 1021  Z " fill-rule="nonzero" fill="#ffffff" stroke="none" />
  <path d="M 28 1021.5  C 31.08 1021.5  33.5 1023.92  33.5 1027  C 33.5 1030.08  31.08 1032.5  28 1032.5  C 24.92 1032.5  22.5 1030.08  22.5 1027  C 22.5 1023.92  24.92 1021.5  28 1021.5  Z " stroke-width="1" stroke="#797979" fill="none" />
  <path d="M 28 1030  C 26.32 1030  25 1028.68  25 1027  C 25 1025.32  26.32 1024  28 1024  C 29.68 1024  31 1025.32  31 1027  C 31 1028.68  29.68 1030  28 1030  " fill-rule="nonzero" fill="#797979" stroke="none" />
</svg>