<?xml version="1.0" encoding="utf-8"?>
<svg version="1.1" xmlns:xlink="http://www.w3.org/1999/xlink" width="12px" height="12px" viewBox="711 236  12 12" xmlns="http://www.w3.org/2000/svg">
  <path d="M 717 236  C 720.36 236  723 238.64  723 242  C 723 245.36  720.36 248  717 248  C 713.64 248  711 245.36  711 242  C 711 238.64  713.64 236  717 236  Z " fill-rule="nonzero" fill="#ffffff" stroke="none" />
  <path d="M 717 236.5  C 720.08 236.5  722.5 238.92  722.5 242  C 722.5 245.08  720.08 247.5  717 247.5  C 713.92 247.5  711.5 245.08  711.5 242  C 711.5 238.92  713.92 236.5  717 236.5  Z " stroke-width="1" stroke="#797979" fill="none" />
  <path d="M 717 245  C 715.32 245  714 243.68  714 242  C 714 240.32  715.32 239  717 239  C 718.68 239  720 240.32  720 242  C 720 243.68  718.68 245  717 245  " fill-rule="nonzero" fill="#797979" stroke="none" />
</svg>