<?xml version="1.0" encoding="utf-8"?>
<svg version="1.1" xmlns:xlink="http://www.w3.org/1999/xlink" width="12px" height="12px" viewBox="531 233  12 12" xmlns="http://www.w3.org/2000/svg">
  <path d="M 537 233  C 540.36 233  543 235.64  543 239  C 543 242.36  540.36 245  537 245  C 533.64 245  531 242.36  531 239  C 531 235.64  533.64 233  537 233  Z " fill-rule="nonzero" fill="#ffffff" stroke="none" />
  <path d="M 537 233.5  C 540.08 233.5  542.5 235.92  542.5 239  C 542.5 242.08  540.08 244.5  537 244.5  C 533.92 244.5  531.5 242.08  531.5 239  C 531.5 235.92  533.92 233.5  537 233.5  Z " stroke-width="1" stroke="#797979" fill="none" />
  <path d="M 537 242  C 535.32 242  534 240.68  534 239  C 534 237.32  535.32 236  537 236  C 538.68 236  540 237.32  540 239  C 540 240.68  538.68 242  537 242  " fill-rule="nonzero" fill="#797979" stroke="none" />
</svg>