<?xml version="1.0" encoding="utf-8"?>
<svg version="1.1" xmlns:xlink="http://www.w3.org/1999/xlink" width="12px" height="12px" viewBox="531 329  12 12" xmlns="http://www.w3.org/2000/svg">
  <path d="M 537 329  C 540.36 329  543 331.64  543 335  C 543 338.36  540.36 341  537 341  C 533.64 341  531 338.36  531 335  C 531 331.64  533.64 329  537 329  Z " fill-rule="nonzero" fill="#ffffff" stroke="none" />
  <path d="M 537 329.5  C 540.08 329.5  542.5 331.92  542.5 335  C 542.5 338.08  540.08 340.5  537 340.5  C 533.92 340.5  531.5 338.08  531.5 335  C 531.5 331.92  533.92 329.5  537 329.5  Z " stroke-width="1" stroke="#797979" fill="none" />
  <path d="M 537 338  C 535.32 338  534 336.68  534 335  C 534 333.32  535.32 332  537 332  C 538.68 332  540 333.32  540 335  C 540 336.68  538.68 338  537 338  " fill-rule="nonzero" fill="#797979" stroke="none" />
</svg>