<?xml version="1.0" encoding="utf-8"?>
<svg version="1.1" xmlns:xlink="http://www.w3.org/1999/xlink" width="12px" height="12px" viewBox="117 1079  12 12" xmlns="http://www.w3.org/2000/svg">
  <path d="M 123 1079  C 126.36 1079  129 1081.64  129 1085  C 129 1088.36  126.36 1091  123 1091  C 119.64 1091  117 1088.36  117 1085  C 117 1081.64  119.64 1079  123 1079  Z " fill-rule="nonzero" fill="#ffffff" stroke="none" />
  <path d="M 123 1079.5  C 126.08 1079.5  128.5 1081.92  128.5 1085  C 128.5 1088.08  126.08 1090.5  123 1090.5  C 119.92 1090.5  117.5 1088.08  117.5 1085  C 117.5 1081.92  119.92 1079.5  123 1079.5  Z " stroke-width="1" stroke="#797979" fill="none" />
  <path d="M 123 1088  C 121.32 1088  120 1086.68  120 1085  C 120 1083.32  121.32 1082  123 1082  C 124.68 1082  126 1083.32  126 1085  C 126 1086.68  124.68 1088  123 1088  " fill-rule="nonzero" fill="#797979" stroke="none" />
</svg>