<?xml version="1.0" encoding="utf-8"?>
<svg version="1.1" xmlns:xlink="http://www.w3.org/1999/xlink" width="12px" height="12px" viewBox="116 953  12 12" xmlns="http://www.w3.org/2000/svg">
  <path d="M 122 953  C 125.36 953  128 955.64  128 959  C 128 962.36  125.36 965  122 965  C 118.64 965  116 962.36  116 959  C 116 955.64  118.64 953  122 953  Z " fill-rule="nonzero" fill="#ffffff" stroke="none" />
  <path d="M 122 953.5  C 125.08 953.5  127.5 955.92  127.5 959  C 127.5 962.08  125.08 964.5  122 964.5  C 118.92 964.5  116.5 962.08  116.5 959  C 116.5 955.92  118.92 953.5  122 953.5  Z " stroke-width="1" stroke="#797979" fill="none" />
  <path d="M 122 962  C 120.32 962  119 960.68  119 959  C 119 957.32  120.32 956  122 956  C 123.68 956  125 957.32  125 959  C 125 960.68  123.68 962  122 962  " fill-rule="nonzero" fill="#797979" stroke="none" />
</svg>