<?xml version="1.0" encoding="utf-8"?>
<svg version="1.1" xmlns:xlink="http://www.w3.org/1999/xlink" width="12px" height="12px" viewBox="531 891  12 12" xmlns="http://www.w3.org/2000/svg">
  <path d="M 537 891  C 540.36 891  543 893.64  543 897  C 543 900.36  540.36 903  537 903  C 533.64 903  531 900.36  531 897  C 531 893.64  533.64 891  537 891  Z " fill-rule="nonzero" fill="#ffffff" stroke="none" />
  <path d="M 537 891.5  C 540.08 891.5  542.5 893.92  542.5 897  C 542.5 900.08  540.08 902.5  537 902.5  C 533.92 902.5  531.5 900.08  531.5 897  C 531.5 893.92  533.92 891.5  537 891.5  Z " stroke-width="1" stroke="#797979" fill="none" />
  <path d="M 537 900  C 535.32 900  534 898.68  534 897  C 534 895.32  535.32 894  537 894  C 538.68 894  540 895.32  540 897  C 540 898.68  538.68 900  537 900  " fill-rule="nonzero" fill="#797979" stroke="none" />
</svg>