<svg t="1528345580395" class="icon" viewBox="0 0 1024 1024" version="1.1" xmlns="http://www.w3.org/2000/svg" p-id="56603" height="32" width="32"><path d="M816.940642 195.055464" p-id="56604" fill="#8a8a8a"></path><path d="M511.998465 64.943105c-246.397806 0-446.140013 200.153576-446.140013 447.056895 0 246.901273 199.74323 447.055872 446.140013 447.055872 246.39883 0 446.14206-200.154599 446.14206-447.055872C958.140525 265.09668 758.393201 64.943105 511.998465 64.943105zM512.686127 936.127673c-233.762021 0-423.261956-189.886745-423.261956-424.127673 0-234.237859 189.498912-424.127673 423.261956-424.127673 233.759975 0 423.254793 189.888791 423.254793 424.127673C935.94092 746.240929 746.445078 936.127673 512.686127 936.127673z" p-id="56605" fill="#8a8a8a"></path><path d="M314.198493 588.233242l395.594827 0 0 78.299297-395.594827 0 0-78.299297Z" p-id="56606" fill="#8a8a8a"></path><path d="M656.225287 476.973252l82.412988 0 0 78.29725-82.412988 0 0-78.29725Z" p-id="56607" fill="#8a8a8a"></path><path d="M532.604782 476.973252l82.412988 0 0 78.29725-82.412988 0 0-78.29725Z" p-id="56608" fill="#8a8a8a"></path><path d="M408.977114 476.973252l82.414011 0 0 78.29725-82.414011 0 0-78.29725Z" p-id="56609" fill="#8a8a8a"></path><path d="M285.359678 476.973252l82.414011 0 0 78.29725-82.414011 0 0-78.29725Z" p-id="56610" fill="#8a8a8a"></path><path d="M656.225287 357.467461l82.412988 0 0 82.419128-82.412988 0 0-82.419128Z" p-id="56611" fill="#8a8a8a"></path><path d="M532.604782 357.467461l82.412988 0 0 82.419128-82.412988 0 0-82.419128Z" p-id="56612" fill="#8a8a8a"></path><path d="M408.977114 357.467461l82.414011 0 0 82.419128-82.414011 0 0-82.419128Z" p-id="56613" fill="#8a8a8a"></path><path d="M285.359678 357.467461l82.414011 0 0 82.419128-82.414011 0 0-82.419128Z" p-id="56614" fill="#8a8a8a"></path></svg>