<svg t="1528904508502" class="icon" viewBox="0 0 1024 1024" version="1.1" xmlns="http://www.w3.org/2000/svg" p-id="5298" height="16" width="16"><path d="M500.693 12.545c-24.682 0.146-44.446 20.134-44.696 45.684-0.241 24.83-0.052 49.663-0.047 74.495 0.004 25.552-0.343 51.11 0.103 76.653 0.445 25.377 20.644 44.196 46.264 43.975 24.58-0.212 44.606-19.697 44.737-44.483 0.272-50.384 0.293-100.769-0.021-151.15-0.162-25.95-20.503-45.325-46.34-45.174M317.034 95.114c-7.805-13.313-20.293-19.932-35.91-20.01-32.946 0.01-53.044 34.654-36.55 63.918 24.344 43.194 49.117 86.148 74.05 129.008 12.148 20.884 37.544 27.493 57.954 15.829 19.981-11.42 27.824-36.527 16.303-57.047-24.802-44.172-50.224-87.998-75.847-131.698M102.621 314.99c41.554 24.18 83.241 48.127 124.875 72.17 6.298 3.634 12.83 6.473 20.335 6.006 18.88 0.145 33.725-11.191 38.741-29.576 4.676-17.134-2.52-34.453-18.98-44.061-41.83-24.42-83.77-48.647-125.722-72.854-21.122-12.188-44.83-6.588-56.092 13.031-11.441 19.931-4.661 42.773 16.843 55.284m32.026 221.22c24.752-0.012 49.506 0.192 74.255-0.072 21.94-0.234 36.706-15.388 36.367-36.689-0.321-20.255-15.85-35.034-37.098-35.056-48.43-0.05-96.856-0.054-145.285 0.041-22.658 0.045-38.175 14.975-38.037 36.27 0.136 20.769 15.544 35.382 37.694 35.488 24.035 0.117 48.069 0.028 72.104 0.017m142.223 93.948c-8.791-15.267-28.067-21.163-43.931-12.127-43.63 24.848-86.99 50.186-130.329 75.544-10.408 6.09-15.292 15.8-15.44 23.775 0.046 28.647 25.518 44.962 47.242 32.888 44.197-24.559 87.853-50.119 131.377-75.87 16.1-9.524 20.146-28.463 11.08-44.21m86.157 95.299c-13.384-3.802-25.918 1.362-33.637 14.692a22852.027 22852.027 0 0 0-72.445 126.059c-9.388 16.452-5.503 33.452 9.15 42.21 15.03 8.982 32.109 3.807 41.925-13.123 23.956-41.307 47.72-82.726 71.598-124.079 3.101-5.371 5.337-10.953 5.39-13.993 0.017-16.704-8.685-27.989-21.981-31.766m138.234 41.533c-15.378 0.085-25.63 11.168-25.734 28.278-0.144 23.764-0.037 47.53-0.037 71.296h-0.066c0 24.484-0.126 48.971 0.043 73.455 0.116 17.13 10.364 28.193 25.73 28.322 15.886 0.13 26.307-11.086 26.348-28.822 0.11-47.887 0.127-95.779 0.066-143.669-0.02-17.613-10.526-28.946-26.349-28.86m166.11-24.484c-7.012-12.021-20.536-15.022-31.675-8.322-10.742 6.463-14.586 19.336-7.982 30.96 24.636 43.365 49.609 86.536 74.635 129.676 4.23 7.291 10.929 11.217 19.616 11.083 17.398-0.13 28.616-18.12 19.902-33.645-24.413-43.488-49.372-86.672-74.497-129.752m224.944-38.613a74685.636 74685.636 0 0 0-127.444-73.723c-4.411-2.546-9.135-4.068-14.4-2.775-8.552 2.1-14.009 7.532-15.48 16.03-1.766 10.194 3.604 17.069 12.085 21.96 27.928 16.108 55.836 32.245 83.756 48.365 14.273 8.241 28.346 16.853 42.884 24.593 13.755 7.323 29.1-1.907 29.115-16.908-0.066-7.91-3.839-13.672-10.516-17.543m45.813-219.968c-23.316-0.086-46.63-0.023-69.947-0.023v-0.05c-23.674 0-47.35-0.067-71.022 0.028-12.61 0.047-19.654 5.937-19.841 16.207-0.19 10.437 6.628 16.426 19.368 16.454 47.349 0.106 94.697 0.125 142.047 0.07 12.525-0.014 19.848-6.07 20.047-16.063 0.2-10.169-7.606-16.573-20.652-16.622M761.923 364.71a69603.59 69603.59 0 0 0 126.717-73.331c4.56-2.647 7.725-6.427 7.614-12.136-0.116-10.344-10.485-16.332-20.137-10.807-42.67 24.42-85.178 49.115-127.638 73.897-7.181 4.19-9.86 10.8-5.224 18.334 4.533 7.364 11.331 8.278 18.668 4.043m-114.65-107.91c4.86-0.23 7.676-3.197 9.932-7.173 4.608-8.119 9.399-16.132 14.057-24.222 19.172-33.3 38.363-66.584 57.452-99.93 4.766-8.325 2.836-15.622-4.468-17.373-7.195-1.725-10.226 3.46-13.175 8.588-21.491 37.348-43.003 74.687-64.488 112.042-2.685 4.669-5.644 9.236-7.776 14.156-2.931 6.747 1.565 13.733 8.466 13.913" p-id="5299" fill="#bfbfbf"></path></svg>