<svg t="1528348967562" class="icon" viewBox="0 0 1024 1024" version="1.1" xmlns="http://www.w3.org/2000/svg" p-id="66177" height="32" width="32"><path d="M853.333333 313.457778l90.680889-50.346667A56.888889 56.888889 0 0 1 1024 315.107556v393.784888a56.888889 56.888889 0 0 1-79.985778 51.996445L853.333333 710.542222V824.888889a56.888889 56.888889 0 0 1-56.888889 56.888889H56.888889a56.888889 56.888889 0 0 1-56.888889-56.888889V199.111111a56.888889 56.888889 0 0 1 56.888889-56.888889h739.555555a56.888889 56.888889 0 0 1 56.888889 56.888889v114.346667z m-248.149333 219.107555a28.444444 28.444444 0 0 0 0-48.782222l-229.148444-148.878222a28.444444 28.444444 0 0 0-43.064889 24.405333v297.728a28.444444 28.444444 0 0 0 43.064889 24.405334l229.148444-148.878223z" p-id="66178" fill="#797979"></path></svg>