<svg t="1528348872125" class="icon" viewBox="0 0 1024 1024" version="1.1" xmlns="http://www.w3.org/2000/svg" p-id="65349" height="32" width="32"><path d="M950.272 231.424V63.488c0-28.672-22.528-51.2-51.2-51.2H124.928c-28.672 0-51.2 22.528-51.2 51.2v167.936s92.16 86.016 284.672 161.792c0 0-141.312 34.816-284.672-55.296v647.168c0 16.384 12.288 28.672 28.672 28.672h817.152c16.384 0 28.672-12.288 28.672-28.672V337.92c-145.408 83.968-284.672 55.296-284.672 55.296 206.848-75.776 286.72-161.792 286.72-161.792zM512 376.832c81.92 0 147.456 65.536 147.456 147.456S593.92 671.744 512 671.744s-147.456-65.536-147.456-147.456S430.08 376.832 512 376.832z" fill="#797979" p-id="65350"></path></svg>