<?xml version="1.0" encoding="utf-8"?>
<svg version="1.1" xmlns:xlink="http://www.w3.org/1999/xlink" width="249px" height="148px" xmlns="http://www.w3.org/2000/svg">
  <g transform="matrix(1 0 0 1 -127 -113 )">
    <path d="M 127 113  L 376 113  L 376 261  L 127 261  L 127 113  " fill-rule="nonzero" fill="#cccccc" stroke="none" />
    <path d="M 137 123  L 366 123  L 366 251  L 137 251  L 137 123  " fill-rule="nonzero" fill="#ffffff" stroke="none" />
    <path d="M 267.58 157.4  C 261.364 157.4  256.48 152.516  256.48 146.3  C 256.48 140.084  261.364 135.2  267.58 135.2  C 273.796 135.2  278.68 140.084  278.68 146.3  C 278.68 152.516  273.796 157.4  267.58 157.4  " fill-rule="nonzero" fill="#cccccc" stroke="none" />
    <path d="M 141 248  L 141 181.45  L 196.5 151.2  L 274.2 204.848192771084  L 318.6 169.35  L 363 204.848192771084  L 363 248  L 141 248  " fill-rule="nonzero" fill="#169bd5" stroke="none" />
  </g>
</svg>