<svg t="1528824660968" class="icon" viewBox="0 0 1024 1024" version="1.1" xmlns="http://www.w3.org/2000/svg" p-id="1823" height="16" width="16"><path d="M812.592 673.68V471.584c0-168.416-94.56-309.904-249.92-350.32V80.848C562.672 33.68 522.128 0 481.616 0c-40.528 0-81.056 33.68-81.056 80.848v40.416c-6.768 0-13.52 6.736-20.272 6.736-6.752 0-13.504 6.736-13.504 6.736L326.24 154.944l486.352 518.736zM251.936 202.096L110.096 53.904l-67.552 67.36 155.36 154.944c-27.024 53.904-47.28 121.264-47.28 188.64v276.208l-108.08 107.792v53.888h763.296L913.904 1024l67.552-67.376-54.048-53.904-675.472-700.624z m0 0" p-id="1824" fill="#bfbfbf"></path></svg>