<svg t="1528037789951" class="icon" viewBox="0 0 1024 1024" version="1.1" xmlns="http://www.w3.org/2000/svg" p-id="1616" height="48" width="48"><path d="M512 85.34016q17.67424 0 30.16704 12.4928t12.4928 30.16704l0 341.34016 341.34016 0q17.67424 0 30.16704 12.4928t12.4928 30.16704-12.4928 30.16704-30.16704 12.4928l-341.34016 0 0 341.34016q0 17.67424-12.4928 30.16704t-30.16704 12.4928-30.16704-12.4928-12.4928-30.16704l0-341.34016-341.34016 0q-17.67424 0-30.16704-12.4928t-12.4928-30.16704 12.4928-30.16704 30.16704-12.4928l341.34016 0 0-341.34016q0-17.67424 12.4928-30.16704t30.16704-12.4928z" p-id="1617" fill="#1296db"></path></svg>