<svg t="1528038672034" class="icon" viewBox="0 0 1024 1024" version="1.1" xmlns="http://www.w3.org/2000/svg" p-id="3531" height="48" width="48"><path d="M942.4 843.2c-19.2 60.8-102.4 148.8-179.2 148.8v0h-4.8c-115.2-6.4-272-113.6-419.2-289.6l-54.4-65.6c-145.6-176-222.4-347.2-204.8-459.2 12.8-78.4 131.2-145.6 198.4-145.6 33.6 0 44.8 16 49.6 25.6 38.4 67.2 84.8 184 86.4 227.2v3.2l-1.6 3.2c-8 22.4-27.2 32-43.2 41.6-22.4 12.8-33.6 20.8-35.2 43.2 0 6.4 6.4 38.4 102.4 156.8l41.6 49.6c97.6 113.6 128 126.4 134.4 126.4 24 3.2 33.6-6.4 51.2-25.6 12.8-14.4 27.2-30.4 51.2-33.6h6.4c41.6 9.6 150.4 78.4 211.2 129.6 6.4 8 20.8 25.6 9.6 64v0zM904 808c-67.2-56-156.8-107.2-188.8-116.8-9.6 3.2-17.6 9.6-28.8 22.4-17.6 17.6-40 40-83.2 33.6-19.2-3.2-56-20.8-163.2-147.2l-11.2-12.8-6.4-11.2-11.2-12.8c-105.6-128-120-171.2-118.4-188.8 3.2-41.6 33.6-60.8 54.4-72 14.4-8 24-12.8 27.2-22.4-3.2-33.6-36.8-128-78.4-201.6-3.2-6.4-14.4-8-19.2-8-52.8 0-148.8 52.8-158.4 112-12.8 80 32 235.2 198.4 433.6l54.4 65.6c164.8 198.4 307.2 268.8 388.8 272h3.2c59.2 0 124.8-70.4 140.8-120 3.2-11.2 4.8-22.4 0-25.6z" p-id="3532" fill="#0079fe"></path></svg>