<svg t="1528129014217" class="icon" viewBox="0 0 1024 1024" version="1.1" xmlns="http://www.w3.org/2000/svg" p-id="4202" height="32" width="32"><path d="M925.258 869.51v0.1c0 21.5-17.574 38.932-39.27 38.932H126.684c-21.692 0-39.276-17.432-39.276-38.932 0-0.032 0.008-0.066 0.008-0.1h-0.032s0-141.842 104.582-193.424c66.164-32.634 40.696-6.144 121.932-39.542 81.236-33.344 100.476-44.978 100.476-44.978l0.764-76.864s-30.418-23.068-39.882-95.392c-19.04 5.452-25.316-22.156-26.44-39.734-1.024-16.978-11.022-70.012 12.202-65.226-4.754-35.412-8.164-67.34-6.488-84.258 5.824-59.39 63.534-121.434 152.418-125.962 104.562 4.518 145.98 66.528 151.788 125.916 1.692 16.922-2.032 48.874-6.79 84.224 23.238-4.72 13.132 48.226 12.02 65.208-1.04 17.58-7.468 45.094-26.458 39.648-9.496 72.324-39.914 95.206-39.914 95.206l0.708 76.472s19.234 10.888 100.48 44.234c81.246 33.388 55.75 8.416 121.934 41.062 104.558 51.57 104.558 193.412 104.558 193.412h-0.016z" p-id="4203" fill="#8E8E93"></path></svg>