<svg t="1528125815628" class="icon" viewBox="0 0 1024 1024" version="1.1" xmlns="http://www.w3.org/2000/svg" p-id="1940" height="64" width="64"><path d="M512 0.44373333c-282.52373333 0-511.55626667 229.03253333-511.55626667 511.55626667s229.03253333 511.55626667 511.55626667 511.55626667 511.55626667-229.03253333 511.55626667-511.55626667-229.03253333-511.55626667-511.55626667-511.55626667zM512 284.64106667c70.50773333 0 127.66933333 57.1584 127.66933333 127.66826666 0 70.5088-57.1584 127.66933333-127.66933333 127.66933334s-127.66826667-57.1584-127.66826667-127.66933334c0-70.50773333 57.1584-127.66826667 127.66826667-127.66826666zM731.648 737.0336h-439.296c-6.9824 0-12.5248-4.70613333-12.144-11.67786667 4.70506667-86.3072 56.55253333-159.48373333 130.24213333-195.38133333 4.07573333-1.98506667 8.92266667-1.21813333 12.55466667 1.49226667 24.82986667 18.52906667 55.632 29.64586667 88.99306667 29.64586666s64.16426667-10.90026667 88.99306666-29.42826666c3.63306667-2.7104 8.48-3.15093333 12.55466667-1.1648 73.6896 35.8976 125.53813333 108.51093333 130.24213333 194.81813333 0.3808 6.97386667-5.16053333 11.696-12.144 11.696z" fill="#1E9FFF" p-id="1941" data-spm-anchor-id="a313x.7781069.0.i3" class="selected"></path></svg>