<svg t="1528129780435" class="icon" viewBox="0 0 1024 1024" version="1.1" xmlns="http://www.w3.org/2000/svg" p-id="13043" height="32" width="32"><path d="M342.528 435.712V289.792h-18.944c-56.32 0-101.888-45.568-101.888-101.888V106.496c0-11.264 9.216-20.48 20.48-20.48h544.256c11.264 0 20.48 9.216 20.48 20.48v81.408c0 56.32-45.568 101.888-101.888 101.888H686.08v145.92c60.416 45.568 121.344 115.712 181.76 209.92 6.144 9.216 3.584 22.016-6.144 28.16-3.072 2.048-7.168 3.072-11.264 3.072h-306.176V921.6c0 11.264-8.704 20.48-20.48 20.48h-19.456c-11.264 0-20.48-9.216-20.48-20.48v-244.224H177.664c-11.264 0-20.48-9.216-20.48-20.48 0-4.096 1.024-7.68 3.072-11.264 60.928-94.208 121.344-163.84 182.272-209.92z" p-id="13044" fill="#8E8E93"></path></svg>