<svg t="1528288018310" class="icon" viewBox="0 0 1026 1024" version="1.1" xmlns="http://www.w3.org/2000/svg" p-id="24748" height="48" width="48"><path d="M515.670646 513.071262m-510.747569 0a510.747569 510.747569 0 1 0 1021.495138 0 510.747569 510.747569 0 1 0-1021.495138 0Z" fill="#FFFBE9" p-id="24749"></path><path d="M440.887138 641.858954h149.58277v163.997538h-149.58277z" fill="#D9A78C" p-id="24750"></path><path d="M608.602585 739.603692s142.2336 20.7872 163.233477 42.661416c18.258708 19.062154 56.304246 201.491692 65.102769 241.537969H515.678523v-276.48l92.924062-7.719385z" fill="#2D404E" p-id="24751"></path><path d="M515.678523 172.551877c72.633108 0 187.478646 41.290831 187.478646 234.755938 0 111.694769-36.430769 184.879262-52.279138 205.1072-14.611692 18.613169-96.689231 58.304985-135.199508 58.304985V172.551877z" fill="#EAC0A7" p-id="24752"></path><path d="M739.280738 453.419323c3.213785-30.893292-11.523938-58.328615-32.901907-61.266708-21.362215-2.922338-41.2672 19.755323-44.480985 50.672247-3.205908 30.893292 11.523938 58.320738 32.901908 61.25883 21.338585 2.922338 41.259323-19.755323 44.480984-50.664369z" fill="#EAC0A7" p-id="24753"></path><path d="M515.678523 172.551877c-72.617354 0-187.470769 41.290831-187.470769 234.755938 0 111.694769 36.407138 184.879262 52.279138 205.1072 14.603815 18.613169 96.681354 58.304985 135.191631 58.304985V172.551877z" fill="#F2D7BC" p-id="24754"></path><path d="M292.084185 453.419323c-3.213785-30.893292 11.523938-58.328615 32.886153-61.266708 21.370092-2.922338 41.282954 19.755323 44.496739 50.672247 3.198031 30.893292-11.531815 58.320738-32.909785 61.25883-21.362215 2.922338-41.275077-19.755323-44.473107-50.664369z" fill="#F2D7BC" p-id="24755"></path><path d="M422.738708 739.603692s-142.225723 20.7872-163.217723 42.661416c-18.298092 19.062154-56.304246 201.491692-65.118523 241.537969h321.260307v-276.48l-92.924061-7.719385z" fill="#2D404E" p-id="24756"></path><path d="M515.662769 747.323077l-75.925661-30.546708-18.71557 18.999139 37.793477 83.810461z" fill="#FFFFFF" p-id="24757"></path><path d="M515.662769 747.323077l75.933539-30.546708 18.707692 18.999139-37.777723 83.810461z" fill="#FFFFFF" p-id="24758"></path><path d="M707.213785 396.736985s61.479385-280.205785-192.834954-280.205785c-255.621908 0-191.448615 272.478523-191.448616 272.478523s34.9184-19.991631 34.9184 69.419323h6.411816s12.382523-59.943385 16.139815-113.711261c89.9072 0 169.416862-11.523938 236.260431-66.851447 37.966769 0 43.126154 47.285169 43.126154 83.471754l-16.596677 6.435446s16.092554 31.507692 17.234708 90.655508h11.539692s-1.717169-98.634831 35.249231-61.692061z" fill="#2F343A" p-id="24759"></path><path d="M515.678523 597.740308c33.847138 0 61.274585-11.177354 61.274585-24.96197h-122.564923c0 13.784615 27.435323 24.961969 61.290338 24.96197z" fill="#FFFFFF" p-id="24760"></path></svg>