<?xml version="1.0" encoding="utf-8"?>
<svg version="1.1" xmlns:xlink="http://www.w3.org/1999/xlink" width="12px" height="12px" viewBox="581 304.5  12 12" xmlns="http://www.w3.org/2000/svg">
  <path d="M 587 304.5  C 590.36 304.5  593 307.14  593 310.5  C 593 313.86  590.36 316.5  587 316.5  C 583.64 316.5  581 313.86  581 310.5  C 581 307.14  583.64 304.5  587 304.5  Z " fill-rule="nonzero" fill="#ffffff" stroke="none" />
  <path d="M 587 305  C 590.08 305  592.5 307.42  592.5 310.5  C 592.5 313.58  590.08 316  587 316  C 583.92 316  581.5 313.58  581.5 310.5  C 581.5 307.42  583.92 305  587 305  Z " stroke-width="1" stroke="#797979" fill="none" />
  <path d="M 587 313.5  C 585.32 313.5  584 312.18  584 310.5  C 584 308.82  585.32 307.5  587 307.5  C 588.68 307.5  590 308.82  590 310.5  C 590 312.18  588.68 313.5  587 313.5  " fill-rule="nonzero" fill="#797979" stroke="none" />
</svg>