<?xml version="1.0" encoding="utf-8"?>
<svg version="1.1" xmlns:xlink="http://www.w3.org/1999/xlink" width="12px" height="12px" viewBox="777 304  12 12" xmlns="http://www.w3.org/2000/svg">
  <path d="M 783 304  C 786.36 304  789 306.64  789 310  C 789 313.36  786.36 316  783 316  C 779.64 316  777 313.36  777 310  C 777 306.64  779.64 304  783 304  Z " fill-rule="nonzero" fill="#ffffff" stroke="none" />
  <path d="M 783 304.5  C 786.08 304.5  788.5 306.92  788.5 310  C 788.5 313.08  786.08 315.5  783 315.5  C 779.92 315.5  777.5 313.08  777.5 310  C 777.5 306.92  779.92 304.5  783 304.5  Z " stroke-width="1" stroke="#797979" fill="none" />
  <path d="M 783 313  C 781.32 313  780 311.68  780 310  C 780 308.32  781.32 307  783 307  C 784.68 307  786 308.32  786 310  C 786 311.68  784.68 313  783 313  " fill-rule="nonzero" fill="#797979" stroke="none" />
</svg>