<?xml version="1.0" standalone="no"?><!DOCTYPE svg PUBLIC "-//W3C//DTD SVG 1.1//EN" "http://www.w3.org/Graphics/SVG/1.1/DTD/svg11.dtd"><svg xmlns:xlink="http://www.w3.org/1999/xlink" xmlns="http://www.w3.org/2000/svg" version="1.1" width="200" height="200" viewBox="0 0 200 200"><defs><style type="text/css"><![CDATA[
@font-face {
  font-family: "ifont";
  src: url("//at.alicdn.com/t/font_1442373896_4754455.eot?#iefix") format("embedded-opentype"), url("//at.alicdn.com/t/font_1442373896_4754455.woff") format("woff"), url("//at.alicdn.com/t/font_1442373896_4754455.ttf") format("truetype"), url("//at.alicdn.com/t/font_1442373896_4754455.svg#ifont") format("svg");
}

]]></style></defs><g class="transform-group"><g transform="scale(0.1953125, 0.1953125)"><path d="M761.055557 532.128047c0.512619-0.992555 1.343475-1.823411 1.792447-2.848649 8.800538-18.304636 5.919204-40.703346-9.664077-55.424808L399.935923 139.743798c-19.264507-18.208305-49.631179-17.344765-67.872168 1.888778-18.208305 19.264507-17.375729 49.631179 1.888778 67.872168l316.960409 299.839269L335.199677 813.631716c-19.071845 18.399247-19.648112 48.767639-1.247144 67.872168 9.407768 9.791372 21.984142 14.688778 34.560516 14.688778 12.000108 0 24.000215-4.479398 33.311652-13.439914l350.048434-337.375729c0.672598-0.672598 0.927187-1.599785 1.599785-2.303346 0.512619-0.479935 1.056202-0.832576 1.567101-1.343475C757.759656 538.879828 759.199462 535.391265 761.055557 532.128047z" fill="#272636"></path></g></g></svg>