<?xml version="1.0" encoding="utf-8"?>
<svg version="1.1" xmlns:xlink="http://www.w3.org/1999/xlink" width="13px" height="11px" xmlns="http://www.w3.org/2000/svg">
  <g transform="matrix(1 0 0 1 -6 -87 )">
    <path d="M 12.7587890625 0.362847222222214  C 12.9195963541667 0.604745370370352  13 0.891203703703695  13 1.22222222222221  C 13 1.55324074074075  12.9195963541667 1.83969907407406  12.7587890625 2.08159722222221  L 7.0712890625 10.6371527777778  C 6.91048177083334 10.8790509259259  6.72005208333334 11  6.5 11  C 6.27994791666667 11  6.08951822916667 10.8790509259259  5.9287109375 10.6371527777778  L 0.2412109375 2.08159722222221  C 0.0804036458333313 1.83969907407406  0 1.55324074074075  0 1.22222222222221  C 0 0.891203703703695  0.0804036458333313 0.604745370370352  0.2412109375 0.362847222222214  C 0.402018229166669 0.120949074074062  0.592447916666669 0  0.8125 0  L 12.1875 0  C 12.4075520833333 0  12.5979817708333 0.120949074074062  12.7587890625 0.362847222222214  Z " fill-rule="nonzero" fill="#949494" stroke="none" transform="matrix(1 0 0 1 6 87 )" />
  </g>
</svg>