<?xml version="1.0" encoding="utf-8"?>
<svg version="1.1" xmlns:xlink="http://www.w3.org/1999/xlink" width="44px" height="44px" xmlns="http://www.w3.org/2000/svg">
  <g transform="matrix(1 0 0 1 -20 -9 )">
    <path d="M 42 9  C 54.32 9  64 18.68  64 31  C 64 43.32  54.32 53  42 53  C 29.68 53  20 43.32  20 31  C 20 18.68  29.68 9  42 9  Z " fill-rule="nonzero" fill="#ffffff" stroke="none" />
    <path d="M 42 9.5  C 54.04 9.5  63.5 18.96  63.5 31  C 63.5 43.04  54.04 52.5  42 52.5  C 29.96 52.5  20.5 43.04  20.5 31  C 20.5 18.96  29.96 9.5  42 9.5  Z " stroke-width="1" stroke="#797979" fill="none" />
  </g>
</svg>