<svg t="1583309551317" class="icon" viewBox="0 0 1024 1024" version="1.1" xmlns="http://www.w3.org/2000/svg" p-id="10509" width="200" height="200"><path d="M288.995556 150.186667h449.422222v362.951111H288.995556z" fill="#FFFFFF" p-id="10510"></path><path d="M512 512m-455.111111 0a455.111111 455.111111 0 1 0 910.222222 0 455.111111 455.111111 0 1 0-910.222222 0Z" fill="#FFFFFF" p-id="10511"></path><path d="M512 512m-512 0a512 512 0 1 0 1024 0 512 512 0 1 0-1024 0Z" fill="#FFFFFF" p-id="10512"></path><path d="M512 512m-512 0a512 512 0 1 0 1024 0 512 512 0 1 0-1024 0Z" fill="#FCBA95" p-id="10513"></path><path d="M512 512m-455.111111 0a455.111111 455.111111 0 1 0 910.222222 0 455.111111 455.111111 0 1 0-910.222222 0Z" fill="#878787" p-id="10514"></path><path d="M687.217778 468.764444c5.688889-20.48 6.826667-38.684444 22.755555-34.133333s26.168889 25.031111 20.48 46.648889c-5.688889 20.48-14.791111 36.408889-30.72 31.857778-14.791111-5.688889-18.204444-23.893333-12.515555-44.373334" fill="#F3D1BB" p-id="10515"></path><path d="M434.631111 663.324444s11.377778 47.786667-22.755555 87.608889c0-2.275556 89.884444 42.097778 89.884444 42.097778l116.053333-39.822222s-34.133333-47.786667-36.408889-81.92c-1.137778-14.791111-146.773333-7.964444-146.773333-7.964445" fill="#F4E3D6" p-id="10516"></path><path d="M699.733333 452.835556c0 131.982222-83.057778 240.071111-186.595555 240.071111-102.4 0-186.595556-106.951111-186.595556-240.071111S409.6 212.764444 513.137778 212.764444c102.4 0 186.595556 106.951111 186.595555 240.071112" fill="#F3D1BB" p-id="10517"></path><path d="M326.769778 496.105244c3.413333 4.551111 45.511111 28.444444 45.511111 28.444445s5.688889-36.408889-7.964445-95.573333c2.275556-68.266667 15.928889-86.471111 15.928889-86.471112s7.964444-13.653333 7.964445-25.031111c2.275556-3.413333 172.942222 73.955556 258.275555 13.653334-2.275556-2.275556 20.48-7.964444 19.342223 62.577777-2.275556 70.542222-13.653333 85.333333-13.653334 85.333334s-5.688889 43.235556 2.275556 45.511111 19.342222-22.755556 30.72-20.48 25.031111-64.853333 25.031111-64.853333l14.791111 3.413333s11.377778-30.72 11.377778-42.097778v-22.755555l-9.102222 11.377777s3.413333-53.475556 9.102222-72.817777 0-28.444444 0-28.444445-9.102222 7.964444-11.377778 17.066667-5.688889-45.511111-19.342222-72.817778-13.653333-20.48-13.653334-20.48v30.72s-17.066667-53.475556-51.2-53.475556c0-2.275556 7.964444 7.964444 5.688889 22.755556 0 0-30.72-34.133333-54.613333-31.857778 3.413333 0 14.791111 25.031111 13.653333 31.857778 0 0-25.031111-37.546667-53.475555-37.546667 0 0 7.964444 20.48-2.275556 25.031111 2.275556 0-25.031111-39.822222-43.235555-37.546666 0 0 0 26.168889-9.102223 30.72s-11.377778-11.377778-11.377777-11.377778l-11.377778 7.964444s-5.688889-22.755556 0-26.168888c-2.275556-2.275556-31.857778 14.791111-37.546667 31.857777 0 2.275556-11.377778-2.275556-7.964444-11.377777 0-2.275556-28.444444 9.102222-36.408889 30.72 0 2.275556-5.688889-22.755556-5.688889-22.755556s-30.72 22.755556-34.133333 42.097778c-3.413333-1.137778-6.826667-20.48-5.688889-29.582222 0 0-36.408889 25.031111-39.822222 95.573333-2.275556-2.275556-14.791111-19.342222-14.791112-19.342222s-9.102222 59.164444 7.964445 106.951111v12.515555l-9.102222-13.653333s17.066667 76.231111 26.168889 93.297778l9.102222 17.066666" fill="#7D4E24" p-id="10518"></path><path d="M340.195556 472.177778c0 21.617778 3.413333 38.684444-13.653334 38.684444s-31.857778-17.066667-31.857778-38.684444 4.551111-38.684444 20.48-38.684445c17.066667 0 25.031111 17.066667 25.031112 38.684445" fill="#F3D1BB" p-id="10519"></path><path d="M812.373333 812.373333c-32.995556-58.026667-200.248889-78.506667-200.248889-78.506666-25.031111 18.204444-61.44 22.755556-93.297777 26.168889-31.857778 3.413333-104.675556-19.342222-104.675556-19.342223-129.706667 25.031111-196.835556 64.853333-211.626667 84.195556-3.413333 4.551111-5.688889 10.24-9.102222 17.066667 81.92 79.644444 193.422222 129.706667 317.44 129.706666 122.88 0 234.382222-48.924444 316.302222-128.568889-3.413333-10.24-9.102222-20.48-14.791111-30.72z" fill="#F29100" p-id="10520"></path></svg>