<?xml version="1.0" encoding="utf-8"?>
<svg version="1.1" xmlns:xlink="http://www.w3.org/1999/xlink" width="12px" height="12px" viewBox="251 310  12 12" xmlns="http://www.w3.org/2000/svg">
  <path d="M 257 310  C 260.36 310  263 312.64  263 316  C 263 319.36  260.36 322  257 322  C 253.64 322  251 319.36  251 316  C 251 312.64  253.64 310  257 310  Z " fill-rule="nonzero" fill="#ffffff" stroke="none" />
  <path d="M 257 310.5  C 260.08 310.5  262.5 312.92  262.5 316  C 262.5 319.08  260.08 321.5  257 321.5  C 253.92 321.5  251.5 319.08  251.5 316  C 251.5 312.92  253.92 310.5  257 310.5  Z " stroke-width="1" stroke="#797979" fill="none" />
  <path d="M 257 319  C 255.32 319  254 317.68  254 316  C 254 314.32  255.32 313  257 313  C 258.68 313  260 314.32  260 316  C 260 317.68  258.68 319  257 319  " fill-rule="nonzero" fill="#797979" stroke="none" />
</svg>