<?xml version="1.0" encoding="utf-8"?>
<svg version="1.1" xmlns:xlink="http://www.w3.org/1999/xlink" width="12px" height="12px" viewBox="22 1033  12 12" xmlns="http://www.w3.org/2000/svg">
  <path d="M 28 1033  C 31.36 1033  34 1035.64  34 1039  C 34 1042.36  31.36 1045  28 1045  C 24.64 1045  22 1042.36  22 1039  C 22 1035.64  24.64 1033  28 1033  Z " fill-rule="nonzero" fill="#ffffff" stroke="none" />
  <path d="M 28 1033.5  C 31.08 1033.5  33.5 1035.92  33.5 1039  C 33.5 1042.08  31.08 1044.5  28 1044.5  C 24.92 1044.5  22.5 1042.08  22.5 1039  C 22.5 1035.92  24.92 1033.5  28 1033.5  Z " stroke-width="1" stroke="#797979" fill="none" />
  <path d="M 28 1042  C 26.32 1042  25 1040.68  25 1039  C 25 1037.32  26.32 1036  28 1036  C 29.68 1036  31 1037.32  31 1039  C 31 1040.68  29.68 1042  28 1042  " fill-rule="nonzero" fill="#797979" stroke="none" />
</svg>