<?xml version="1.0" encoding="utf-8"?>
<svg version="1.1" xmlns:xlink="http://www.w3.org/1999/xlink" width="12px" height="12px" viewBox="24 893  12 12" xmlns="http://www.w3.org/2000/svg">
  <path d="M 30 893  C 33.36 893  36 895.64  36 899  C 36 902.36  33.36 905  30 905  C 26.64 905  24 902.36  24 899  C 24 895.64  26.64 893  30 893  Z " fill-rule="nonzero" fill="#ffffff" stroke="none" />
  <path d="M 30 893.5  C 33.08 893.5  35.5 895.92  35.5 899  C 35.5 902.08  33.08 904.5  30 904.5  C 26.92 904.5  24.5 902.08  24.5 899  C 24.5 895.92  26.92 893.5  30 893.5  Z " stroke-width="1" stroke="#797979" fill="none" />
  <path d="M 30 902  C 28.32 902  27 900.68  27 899  C 27 897.32  28.32 896  30 896  C 31.68 896  33 897.32  33 899  C 33 900.68  31.68 902  30 902  " fill-rule="nonzero" fill="#797979" stroke="none" />
</svg>