<?xml version="1.0" encoding="utf-8"?>
<svg version="1.1" xmlns:xlink="http://www.w3.org/1999/xlink" width="12px" height="12px" viewBox="325 310  12 12" xmlns="http://www.w3.org/2000/svg">
  <path d="M 331 310  C 334.36 310  337 312.64  337 316  C 337 319.36  334.36 322  331 322  C 327.64 322  325 319.36  325 316  C 325 312.64  327.64 310  331 310  Z " fill-rule="nonzero" fill="#ffffff" stroke="none" />
  <path d="M 331 310.5  C 334.08 310.5  336.5 312.92  336.5 316  C 336.5 319.08  334.08 321.5  331 321.5  C 327.92 321.5  325.5 319.08  325.5 316  C 325.5 312.92  327.92 310.5  331 310.5  Z " stroke-width="1" stroke="#797979" fill="none" />
  <path d="M 331 319  C 329.32 319  328 317.68  328 316  C 328 314.32  329.32 313  331 313  C 332.68 313  334 314.32  334 316  C 334 317.68  332.68 319  331 319  " fill-rule="nonzero" fill="#797979" stroke="none" />
</svg>