<?xml version="1.0" encoding="utf-8"?>
<svg version="1.1" xmlns:xlink="http://www.w3.org/1999/xlink" width="12px" height="12px" viewBox="637 236  12 12" xmlns="http://www.w3.org/2000/svg">
  <path d="M 643 236  C 646.36 236  649 238.64  649 242  C 649 245.36  646.36 248  643 248  C 639.64 248  637 245.36  637 242  C 637 238.64  639.64 236  643 236  Z " fill-rule="nonzero" fill="#ffffff" stroke="none" />
  <path d="M 643 236.5  C 646.08 236.5  648.5 238.92  648.5 242  C 648.5 245.08  646.08 247.5  643 247.5  C 639.92 247.5  637.5 245.08  637.5 242  C 637.5 238.92  639.92 236.5  643 236.5  Z " stroke-width="1" stroke="#797979" fill="none" />
  <path d="M 643 245  C 641.32 245  640 243.68  640 242  C 640 240.32  641.32 239  643 239  C 644.68 239  646 240.32  646 242  C 646 243.68  644.68 245  643 245  " fill-rule="nonzero" fill="#797979" stroke="none" />
</svg>