<?xml version="1.0" encoding="utf-8"?>
<svg version="1.1" xmlns:xlink="http://www.w3.org/1999/xlink" width="12px" height="12px" viewBox="661 224  12 12" xmlns="http://www.w3.org/2000/svg">
  <path d="M 667 224  C 670.36 224  673 226.64  673 230  C 673 233.36  670.36 236  667 236  C 663.64 236  661 233.36  661 230  C 661 226.64  663.64 224  667 224  Z " fill-rule="nonzero" fill="#ffffff" stroke="none" />
  <path d="M 667 224.5  C 670.08 224.5  672.5 226.92  672.5 230  C 672.5 233.08  670.08 235.5  667 235.5  C 663.92 235.5  661.5 233.08  661.5 230  C 661.5 226.92  663.92 224.5  667 224.5  Z " stroke-width="1" stroke="#797979" fill="none" />
  <path d="M 667 233  C 665.32 233  664 231.68  664 230  C 664 228.32  665.32 227  667 227  C 668.68 227  670 228.32  670 230  C 670 231.68  668.68 233  667 233  " fill-rule="nonzero" fill="#797979" stroke="none" />
</svg>