<?xml version="1.0" encoding="utf-8"?>
<svg version="1.1" xmlns:xlink="http://www.w3.org/1999/xlink" width="12px" height="12px" viewBox="735 224  12 12" xmlns="http://www.w3.org/2000/svg">
  <path d="M 741 224  C 744.36 224  747 226.64  747 230  C 747 233.36  744.36 236  741 236  C 737.64 236  735 233.36  735 230  C 735 226.64  737.64 224  741 224  Z " fill-rule="nonzero" fill="#ffffff" stroke="none" />
  <path d="M 741 224.5  C 744.08 224.5  746.5 226.92  746.5 230  C 746.5 233.08  744.08 235.5  741 235.5  C 737.92 235.5  735.5 233.08  735.5 230  C 735.5 226.92  737.92 224.5  741 224.5  Z " stroke-width="1" stroke="#797979" fill="none" />
  <path d="M 741 233  C 739.32 233  738 231.68  738 230  C 738 228.32  739.32 227  741 227  C 742.68 227  744 228.32  744 230  C 744 231.68  742.68 233  741 233  " fill-rule="nonzero" fill="#797979" stroke="none" />
</svg>