<?xml version="1.0" encoding="utf-8"?>
<svg version="1.1" xmlns:xlink="http://www.w3.org/1999/xlink" width="12px" height="12px" viewBox="22 1074  12 12" xmlns="http://www.w3.org/2000/svg">
  <path d="M 28 1074  C 31.36 1074  34 1076.64  34 1080  C 34 1083.36  31.36 1086  28 1086  C 24.64 1086  22 1083.36  22 1080  C 22 1076.64  24.64 1074  28 1074  Z " fill-rule="nonzero" fill="#ffffff" stroke="none" />
  <path d="M 28 1074.5  C 31.08 1074.5  33.5 1076.92  33.5 1080  C 33.5 1083.08  31.08 1085.5  28 1085.5  C 24.92 1085.5  22.5 1083.08  22.5 1080  C 22.5 1076.92  24.92 1074.5  28 1074.5  Z " stroke-width="1" stroke="#797979" fill="none" />
  <path d="M 28 1083  C 26.32 1083  25 1081.68  25 1080  C 25 1078.32  26.32 1077  28 1077  C 29.68 1077  31 1078.32  31 1080  C 31 1081.68  29.68 1083  28 1083  " fill-rule="nonzero" fill="#797979" stroke="none" />
</svg>