<?xml version="1.0" encoding="utf-8"?>
<svg version="1.1" xmlns:xlink="http://www.w3.org/1999/xlink" width="12px" height="12px" viewBox="26 510  12 12" xmlns="http://www.w3.org/2000/svg">
  <path d="M 32 510  C 35.36 510  38 512.64  38 516  C 38 519.36  35.36 522  32 522  C 28.64 522  26 519.36  26 516  C 26 512.64  28.64 510  32 510  Z " fill-rule="nonzero" fill="#ffffff" stroke="none" />
  <path d="M 32 510.5  C 35.08 510.5  37.5 512.92  37.5 516  C 37.5 519.08  35.08 521.5  32 521.5  C 28.92 521.5  26.5 519.08  26.5 516  C 26.5 512.92  28.92 510.5  32 510.5  Z " stroke-width="1" stroke="#797979" fill="none" />
  <path d="M 32 519  C 30.32 519  29 517.68  29 516  C 29 514.32  30.32 513  32 513  C 33.68 513  35 514.32  35 516  C 35 517.68  33.68 519  32 519  " fill-rule="nonzero" fill="#797979" stroke="none" />
</svg>