<?xml version="1.0" encoding="utf-8"?>
<svg version="1.1" xmlns:xlink="http://www.w3.org/1999/xlink" width="12px" height="12px" viewBox="510 454  12 12" xmlns="http://www.w3.org/2000/svg">
  <path d="M 516 454  C 519.36 454  522 456.64  522 460  C 522 463.36  519.36 466  516 466  C 512.64 466  510 463.36  510 460  C 510 456.64  512.64 454  516 454  Z " fill-rule="nonzero" fill="#ffffff" stroke="none" />
  <path d="M 516 454.5  C 519.08 454.5  521.5 456.92  521.5 460  C 521.5 463.08  519.08 465.5  516 465.5  C 512.92 465.5  510.5 463.08  510.5 460  C 510.5 456.92  512.92 454.5  516 454.5  Z " stroke-width="1" stroke="#797979" fill="none" />
  <path d="M 516 463  C 514.32 463  513 461.68  513 460  C 513 458.32  514.32 457  516 457  C 517.68 457  519 458.32  519 460  C 519 461.68  517.68 463  516 463  " fill-rule="nonzero" fill="#797979" stroke="none" />
</svg>