<?xml version="1.0" encoding="utf-8"?>
<svg version="1.1" xmlns:xlink="http://www.w3.org/1999/xlink" width="12px" height="12px" viewBox="100 510  12 12" xmlns="http://www.w3.org/2000/svg">
  <path d="M 106 510  C 109.36 510  112 512.64  112 516  C 112 519.36  109.36 522  106 522  C 102.64 522  100 519.36  100 516  C 100 512.64  102.64 510  106 510  Z " fill-rule="nonzero" fill="#ffffff" stroke="none" />
  <path d="M 106 510.5  C 109.08 510.5  111.5 512.92  111.5 516  C 111.5 519.08  109.08 521.5  106 521.5  C 102.92 521.5  100.5 519.08  100.5 516  C 100.5 512.92  102.92 510.5  106 510.5  Z " stroke-width="1" stroke="#797979" fill="none" />
  <path d="M 106 519  C 104.32 519  103 517.68  103 516  C 103 514.32  104.32 513  106 513  C 107.68 513  109 514.32  109 516  C 109 517.68  107.68 519  106 519  " fill-rule="nonzero" fill="#797979" stroke="none" />
</svg>