<?xml version="1.0" encoding="utf-8"?>
<svg version="1.1" xmlns:xlink="http://www.w3.org/1999/xlink" width="21px" height="23px" xmlns="http://www.w3.org/2000/svg">
  <g transform="matrix(1 0 0 1 -1484 -325 )">
    <path d="M 20.5283203125 13.5589192708333  C 20.6149088541667 13.6537543402778  20.658203125 13.7660590277778  20.658203125 13.8958333333333  C 20.658203125 13.9457465277778  20.6536458333333 13.9806857638889  20.64453125 14.0006510416667  C 20.0611979166667 16.6759982638889  18.83984375 18.8447265625  16.98046875 20.5068359375  C 15.12109375 22.1689453125  12.9427083333333 23  10.4453125 23  C 9.11458333333333 23  7.8271484375 22.7254774305556  6.5830078125 22.1764322916667  C 5.3388671875 21.6273871527778  4.22916666666667 20.84375  3.25390625 19.8255208333333  L 1.490234375 21.7571614583333  C 1.31705729166667 21.9468315972222  1.11197916666667 22.0416666666667  0.875 22.0416666666667  C 0.638020833333333 22.0416666666667  0.432942708333333 21.9468315972222  0.259765625 21.7571614583333  C 0.0865885416666667 21.5674913194444  0 21.3428819444444  0 21.0833333333333  L 0 14.375  C 0 14.1154513888889  0.0865885416666667 13.8908420138889  0.259765625 13.701171875  C 0.432942708333333 13.5115017361111  0.638020833333333 13.4166666666667  0.875 13.4166666666667  L 7 13.4166666666667  C 7.23697916666667 13.4166666666667  7.44205729166667 13.5115017361111  7.615234375 13.701171875  C 7.78841145833333 13.8908420138889  7.875 14.1154513888889  7.875 14.375  C 7.875 14.6345486111111  7.78841145833333 14.8591579861111  7.615234375 15.048828125  L 5.7421875 17.1002604166667  C 6.38932291666667 17.7591145833333  7.123046875 18.2682291666667  7.943359375 18.6276041666667  C 8.763671875 18.9869791666667  9.61588541666667 19.1666666666667  10.5 19.1666666666667  C 11.7213541666667 19.1666666666667  12.8606770833333 18.8422309027778  13.91796875 18.193359375  C 14.9752604166667 17.5444878472222  15.8229166666667 16.6510416666667  16.4609375 15.5130208333333  C 16.5611979166667 15.3433159722222  16.802734375 14.7593315972222  17.185546875 13.7610677083333  C 17.2584635416667 13.5314670138889  17.3951822916667 13.4166666666667  17.595703125 13.4166666666667  L 20.220703125 13.4166666666667  C 20.3391927083333 13.4166666666667  20.4417317708333 13.4640842013889  20.5283203125 13.5589192708333  Z M 20.740234375 1.24283854166667  C 20.9134114583333 1.43250868055555  21 1.65711805555555  21 1.91666666666667  L 21 8.625  C 21 8.88454861111111  20.9134114583333 9.10915798611111  20.740234375 9.298828125  C 20.5670572916667 9.48849826388889  20.3619791666667 9.58333333333333  20.125 9.58333333333333  L 14 9.58333333333333  C 13.7630208333333 9.58333333333333  13.5579427083333 9.48849826388889  13.384765625 9.298828125  C 13.2115885416667 9.10915798611111  13.125 8.88454861111111  13.125 8.625  C 13.125 8.36545138888889  13.2115885416667 8.14084201388889  13.384765625 7.951171875  L 15.271484375 5.884765625  C 13.9225260416667 4.51714409722222  12.33203125 3.83333333333333  10.5 3.83333333333333  C 9.27864583333333 3.83333333333333  8.13932291666667 4.15776909722222  7.08203125 4.806640625  C 6.02473958333333 5.45551215277778  5.17708333333333 6.34895833333333  4.5390625 7.48697916666667  C 4.43880208333333 7.65668402777778  4.197265625 8.24066840277778  3.814453125 9.23893229166667  C 3.74153645833333 9.46853298611111  3.60481770833333 9.58333333333333  3.404296875 9.58333333333333  L 0.68359375 9.58333333333333  C 0.565104166666667 9.58333333333333  0.462565104166667 9.53591579861111  0.3759765625 9.44108072916667  C 0.289388020833333 9.34624565972222  0.24609375 9.23394097222222  0.24609375 9.10416666666667  L 0.24609375 8.99934895833333  C 0.838541666666667 6.32400173611111  2.06901041666667 4.1552734375  3.9375 2.4931640625  C 5.80598958333333 0.8310546875  7.99348958333333 0  10.5 0  C 11.8307291666667 0  13.125 0.277018229166668  14.3828125 0.8310546875  C 15.640625 1.38509114583333  16.7571614583333 2.16623263888889  17.732421875 3.17447916666667  L 19.509765625 1.24283854166667  C 19.6829427083333 1.05316840277778  19.8880208333333 0.958333333333332  20.125 0.958333333333332  C 20.3619791666667 0.958333333333332  20.5670572916667 1.05316840277778  20.740234375 1.24283854166667  Z " fill-rule="nonzero" fill="#000000" stroke="none" transform="matrix(1 0 0 1 1484 325 )" />
  </g>
</svg>