<?xml version="1.0" encoding="utf-8"?>
<svg version="1.1" xmlns:xlink="http://www.w3.org/1999/xlink" width="24px" height="16px" xmlns="http://www.w3.org/2000/svg">
  <g transform="matrix(1 0 0 1 -1281 -150 )">
    <path d="M 23.7595190380762 1.64948453608247  C 23.9198396793587 1.83276059564719  24 2.04352806414662  24 2.28178694158076  C 24 2.52004581901489  23.9198396793587 2.73081328751432  23.7595190380762 2.91408934707904  L 12.5531062124248 15.7250859106529  C 12.3927855711423 15.9083619702176  12.2084168336673 16  12 16  C 11.7915831663327 16  11.6072144288577 15.9083619702176  11.4468937875751 15.7250859106529  L 0.240480961923848 2.91408934707904  C 0.0801603206412828 2.73081328751432  0 2.52004581901489  0 2.28178694158076  C 0 2.04352806414662  0.0801603206412828 1.83276059564719  0.240480961923848 1.64948453608247  L 1.44288577154309 0.27491408934708  C 1.60320641282565 0.0916380297823576  1.7875751503006 0  1.99599198396794 0  C 2.20440881763527 0  2.38877755511022 0.0916380297823576  2.54909819639279 0.27491408934708  L 12 11.0790378006873  L 21.4509018036072 0.27491408934708  C 21.6112224448898 0.0916380297823576  21.7955911823647 0  22.0040080160321 0  C 22.2124248496994 0  22.3967935871744 0.0916380297823576  22.5571142284569 0.27491408934708  L 23.7595190380762 1.64948453608247  Z " fill-rule="nonzero" fill="#000000" stroke="none" transform="matrix(1 0 0 1 1281 150 )" />
  </g>
</svg>