<?xml version="1.0" encoding="utf-8"?>
<svg version="1.1" xmlns:xlink="http://www.w3.org/1999/xlink" width="26px" height="21px" xmlns="http://www.w3.org/2000/svg">
  <g transform="matrix(1 0 0 1 -146 -30 )">
    <path d="M 25.7394789579158 17.1752577319588  C 25.9131596526386 17.4158075601375  26 17.692439862543  26 18.0051546391753  C 26 18.3178694158076  25.9131596526386 18.5945017182131  25.7394789579158 18.8350515463918  L 24.436873747495 20.639175257732  C 24.2631930527722 20.8797250859106  24.063460253841 21  23.8376753507014 21  C 23.6118904475618 21  23.4121576486306 20.8797250859106  23.2384769539078 20.639175257732  L 13 6.45876288659794  L 2.76152304609218 20.639175257732  C 2.58784235136941 20.8797250859106  2.38810955243821 21  2.1623246492986 21  C 1.93653974615898 21  1.73680694722779 20.8797250859106  1.56312625250501 20.639175257732  L 0.260521042084168 18.8350515463918  C 0.0868403473613897 18.5945017182131  0 18.3178694158076  0 18.0051546391753  C 0 17.692439862543  0.0868403473613897 17.4158075601375  0.260521042084168 17.1752577319588  L 12.4008016032064 0.360824742268042  C 12.5744822979292 0.120274914089344  12.7742150968604 0  13 0  C 13.2257849031396 0  13.4255177020708 0.120274914089344  13.5991983967936 0.360824742268042  L 25.7394789579158 17.1752577319588  Z " fill-rule="nonzero" fill="#000000" stroke="none" transform="matrix(1 0 0 1 146 30 )" />
  </g>
</svg>