<?xml version="1.0" encoding="utf-8"?>
<svg version="1.1" xmlns:xlink="http://www.w3.org/1999/xlink" width="19px" height="22px" xmlns="http://www.w3.org/2000/svg">
  <g transform="matrix(1 0 0 1 -1241 -144 )">
    <path d="M 18.873828125 15.9055989583333  C 18.9579427083333 16.6265190972222  19 17.3927951388889  19 18.2044270833333  C 19 19.2452256944444  18.6907552083333 20.1380208333333  18.072265625 20.8828125  C 17.4537760416667 21.6276041666667  16.7091145833333 22  15.83828125 22  L 3.16171875 22  C 2.29088541666667 22  1.54622395833333 21.6276041666667  0.927734375 20.8828125  C 0.309244791666667 20.1380208333333  0 19.2452256944444  0 18.2044270833333  C 0 17.3927951388889  0.0420572916666668 16.6265190972222  0.126171875 15.9055989583333  C 0.210286458333333 15.1846788194444  0.366145833333333 14.458984375  0.59375 13.728515625  C 0.821354166666667 12.998046875  1.11080729166667 12.3726128472222  1.462109375 11.8522135416667  C 1.81341145833333 11.3318142361111  2.278515625 10.9069010416667  2.857421875 10.5774739583333  C 3.436328125 10.248046875  4.10182291666667 10.0833333333333  4.85390625 10.0833333333333  C 6.15026041666667 11.3055555555556  7.69895833333333 11.9166666666667  9.5 11.9166666666667  C 11.3010416666667 11.9166666666667  12.8497395833333 11.3055555555556  14.14609375 10.0833333333333  C 14.8981770833333 10.0833333333333  15.563671875 10.248046875  16.142578125 10.5774739583333  C 16.721484375 10.9069010416667  17.1865885416667 11.3318142361111  17.537890625 11.8522135416667  C 17.8891927083333 12.3726128472222  18.1786458333333 12.998046875  18.40625 13.728515625  C 18.6338541666667 14.458984375  18.7897135416667 15.1846788194444  18.873828125 15.9055989583333  Z M 13.530078125 1.611328125  C 14.643359375 2.685546875  15.2 3.98177083333333  15.2 5.5  C 15.2 7.01822916666667  14.643359375 8.314453125  13.530078125 9.388671875  C 12.416796875 10.462890625  11.0734375 11  9.5 11  C 7.9265625 11  6.583203125 10.462890625  5.469921875 9.388671875  C 4.356640625 8.314453125  3.8 7.01822916666667  3.8 5.5  C 3.8 3.98177083333333  4.356640625 2.685546875  5.469921875 1.611328125  C 6.583203125 0.537109375  7.9265625 0  9.5 0  C 11.0734375 0  12.416796875 0.537109375  13.530078125 1.611328125  Z " fill-rule="nonzero" fill="#000000" stroke="none" transform="matrix(1 0 0 1 1241 144 )" />
  </g>
</svg>