<?xml version="1.0" encoding="utf-8"?>
<svg version="1.1" xmlns:xlink="http://www.w3.org/1999/xlink" width="110px" height="70px" xmlns="http://www.w3.org/2000/svg">
  <g transform="matrix(1 0 0 1 -255 -699 )">
    <path d="M 265.5 768.5  L 364.5 768.5  L 364.5 709.5  L 359.5 709.5  L 359.5 704.5  L 354.5 704.5  L 354.5 699.5  L 255.5 699.5  L 255.5 758.5  L 260.5 758.5  L 260.5 763.5  L 265.5 763.5  L 265.5 768.5  Z " fill-rule="nonzero" fill="#ffffff" stroke="none" />
    <path d="M 265.5 768.5  L 364.5 768.5  L 364.5 709.5  L 359.5 709.5  L 359.5 704.5  L 354.5 704.5  L 354.5 699.5  L 255.5 699.5  L 255.5 758.5  L 260.5 758.5  L 260.5 763.5  L 265.5 763.5  L 265.5 768.5  Z " stroke-width="1" stroke="#797979" fill="none" />
    <path d="M 359.5 710  L 359.5 763.5  L 266 763.5  M 354.5 705  L 354.5 758.5  L 261 758.5  " stroke-width="1" stroke="#797979" fill="none" />
  </g>
</svg>