<?xml version="1.0" standalone="no"?><!DOCTYPE svg PUBLIC "-//W3C//DTD SVG 1.1//EN" "http://www.w3.org/Graphics/SVG/1.1/DTD/svg11.dtd"><svg xmlns:xlink="http://www.w3.org/1999/xlink" xmlns="http://www.w3.org/2000/svg" version="1.1" width="200" height="200" viewBox="0 0 200 200"><defs><style type="text/css"><![CDATA[
@font-face {
  font-family: "ifont";
  src: url("//at.alicdn.com/t/font_1442373896_4754455.eot?#iefix") format("embedded-opentype"), url("//at.alicdn.com/t/font_1442373896_4754455.woff") format("woff"), url("//at.alicdn.com/t/font_1442373896_4754455.ttf") format("truetype"), url("//at.alicdn.com/t/font_1442373896_4754455.svg#ifont") format("svg");
}

]]></style></defs><g class="transform-group"><g transform="scale(0.1953125, 0.1953125)"><path d="M887.904744 298.20852c-12.863647-12.063755-33.151673-11.487488-45.215428 1.408843L415.935493 753.983819 182.815858 524.287381c-12.607338-12.416396-32.8644-12.287381-45.280796 0.319957-12.416396 12.576374-12.256417 32.8644 0.352641 45.248112l256.479935 252.671415c0.096331 0.096331 0.223626 0.127295 0.319957 0.223626s0.127295 0.223626 0.223626 0.319957c2.016073 1.919742 4.448434 3.008628 6.784464 4.288456 1.152533 0.672598 2.143368 1.663432 3.359548 2.143368 3.775837 1.47249 7.775299 2.239699 11.743798 2.239699 4.192125 0 8.384249-0.832576 12.287381-2.496009 1.312512-0.543583 2.33603-1.663432 3.552211-2.368714 2.399677-1.408843 4.895686-2.59234 6.944443-4.67206 0.096331-0.096331 0.127295-0.25631 0.223626-0.352641 0.063647-0.096331 0.192662-0.127295 0.287273-0.223626L889.277463 343.420508C901.439269 330.591265 900.768391 310.335923 887.904744 298.20852z" fill="#272636"></path></g></g></svg>