<?xml version="1.0" encoding="utf-8"?>
<svg version="1.1" xmlns:xlink="http://www.w3.org/1999/xlink" width="40px" height="40px" xmlns="http://www.w3.org/2000/svg">
  <g transform="matrix(1 0 0 1 -19 -80 )">
    <path d="M 39 80  C 50.2 80  59 88.8  59 100  C 59 111.2  50.2 120  39 120  C 27.8 120  19 111.2  19 100  C 19 88.8  27.8 80  39 80  Z " fill-rule="nonzero" fill="#ffffff" stroke="none" />
    <path d="M 39 80.5  C 49.92 80.5  58.5 89.08  58.5 100  C 58.5 110.92  49.92 119.5  39 119.5  C 28.08 119.5  19.5 110.92  19.5 100  C 19.5 89.08  28.08 80.5  39 80.5  Z " stroke-width="1" stroke="#797979" fill="none" />
  </g>
</svg>