<?xml version="1.0" encoding="utf-8"?>
<svg version="1.1" xmlns:xlink="http://www.w3.org/1999/xlink" width="21px" height="21px" xmlns="http://www.w3.org/2000/svg">
  <g transform="matrix(1 0 0 1 -252 -403 )">
    <path d="M 262.5 403  C 268.38 403  273 407.62  273 413.5  C 273 419.38  268.38 424  262.5 424  C 256.62 424  252 419.38  252 413.5  C 252 407.62  256.62 403  262.5 403  Z " fill-rule="nonzero" fill="#d9001b" stroke="none" />
    <path d="M 262.5 403.5  C 268.1 403.5  272.5 407.9  272.5 413.5  C 272.5 419.1  268.1 423.5  262.5 423.5  C 256.9 423.5  252.5 419.1  252.5 413.5  C 252.5 407.9  256.9 403.5  262.5 403.5  Z " stroke-width="1" stroke="#797979" fill="none" />
  </g>
</svg>