<?xml version="1.0" encoding="utf-8"?>
<svg version="1.1" xmlns:xlink="http://www.w3.org/1999/xlink" width="12px" height="12px" xmlns="http://www.w3.org/2000/svg">
  <g transform="matrix(1 0 0 1 -381 -66 )">
    <path d="M 387 66  C 390.36 66  393 68.64  393 72  C 393 75.36  390.36 78  387 78  C 383.64 78  381 75.36  381 72  C 381 68.64  383.64 66  387 66  Z " fill-rule="nonzero" fill="#ffffff" stroke="none" />
    <path d="M 387 66.5  C 390.08 66.5  392.5 68.92  392.5 72  C 392.5 75.08  390.08 77.5  387 77.5  C 383.92 77.5  381.5 75.08  381.5 72  C 381.5 68.92  383.92 66.5  387 66.5  Z " stroke-width="1" stroke="#797979" fill="none" />
  </g>
</svg>