<?xml version="1.0" encoding="utf-8"?>
<svg version="1.1" xmlns:xlink="http://www.w3.org/1999/xlink" width="6px" height="6px" xmlns="http://www.w3.org/2000/svg">
  <g transform="matrix(1 0 0 1 -384 -69 )">
    <path d="M 387 69  C 388.68 69  390 70.32  390 72  C 390 73.68  388.68 75  387 75  C 385.32 75  384 73.68  384 72  C 384 70.32  385.32 69  387 69  Z " fill-rule="nonzero" fill="#cccccc" stroke="none" />
    <path d="M 387 69.5  C 388.4 69.5  389.5 70.6  389.5 72  C 389.5 73.4  388.4 74.5  387 74.5  C 385.6 74.5  384.5 73.4  384.5 72  C 384.5 70.6  385.6 69.5  387 69.5  Z " stroke-width="1" stroke="#797979" fill="none" />
  </g>
</svg>