<?xml version="1.0" encoding="utf-8"?>
<svg version="1.1" xmlns:xlink="http://www.w3.org/1999/xlink" width="7px" height="7px" xmlns="http://www.w3.org/2000/svg">
  <g transform="matrix(1 0 0 1 -358 -68 )">
    <path d="M 361.5 68  C 363.46 68  365 69.54  365 71.5  C 365 73.46  363.46 75  361.5 75  C 359.54 75  358 73.46  358 71.5  C 358 69.54  359.54 68  361.5 68  Z " fill-rule="nonzero" fill="#cccccc" stroke="none" />
    <path d="M 361.5 68.5  C 363.18 68.5  364.5 69.82  364.5 71.5  C 364.5 73.18  363.18 74.5  361.5 74.5  C 359.82 74.5  358.5 73.18  358.5 71.5  C 358.5 69.82  359.82 68.5  361.5 68.5  Z " stroke-width="1" stroke="#797979" fill="none" />
  </g>
</svg>