<?xml version="1.0" encoding="utf-8"?>
<svg version="1.1" xmlns:xlink="http://www.w3.org/1999/xlink" width="40px" height="40px" xmlns="http://www.w3.org/2000/svg">
  <g transform="matrix(1 0 0 1 -41 -98 )">
    <path d="M 61 98  C 72.2 98  81 106.8  81 118  C 81 129.2  72.2 138  61 138  C 49.8 138  41 129.2  41 118  C 41 106.8  49.8 98  61 98  Z " fill-rule="nonzero" fill="#ffffff" stroke="none" />
    <path d="M 61 98.5  C 71.92 98.5  80.5 107.08  80.5 118  C 80.5 128.92  71.92 137.5  61 137.5  C 50.08 137.5  41.5 128.92  41.5 118  C 41.5 107.08  50.08 98.5  61 98.5  Z " stroke-width="1" stroke="#797979" fill="none" />
  </g>
</svg>