<?xml version="1.0" encoding="utf-8"?>
<svg version="1.1" xmlns:xlink="http://www.w3.org/1999/xlink" width="21px" height="21px" xmlns="http://www.w3.org/2000/svg">
  <g transform="matrix(1 0 0 1 -92 -746 )">
    <path d="M 102.5 746  C 108.38 746  113 750.62  113 756.5  C 113 762.38  108.38 767  102.5 767  C 96.62 767  92 762.38  92 756.5  C 92 750.62  96.62 746  102.5 746  Z " fill-rule="nonzero" fill="#d9001b" stroke="none" />
    <path d="M 102.5 746.5  C 108.1 746.5  112.5 750.9  112.5 756.5  C 112.5 762.1  108.1 766.5  102.5 766.5  C 96.9 766.5  92.5 762.1  92.5 756.5  C 92.5 750.9  96.9 746.5  102.5 746.5  Z " stroke-width="1" stroke="#797979" fill="none" />
  </g>
</svg>