<?xml version="1.0" encoding="utf-8"?>
<svg version="1.1" xmlns:xlink="http://www.w3.org/1999/xlink" width="18px" height="18px" xmlns="http://www.w3.org/2000/svg">
  <g transform="matrix(1 0 0 1 -342 -673 )">
    <path d="M 351 673  C 356.04 673  360 676.96  360 682  C 360 687.04  356.04 691  351 691  C 345.96 691  342 687.04  342 682  C 342 676.96  345.96 673  351 673  Z " fill-rule="nonzero" fill="#ffffff" stroke="none" />
    <path d="M 351 673.5  C 355.76 673.5  359.5 677.24  359.5 682  C 359.5 686.76  355.76 690.5  351 690.5  C 346.24 690.5  342.5 686.76  342.5 682  C 342.5 677.24  346.24 673.5  351 673.5  Z " stroke-width="1" stroke="#797979" fill="none" />
  </g>
</svg>