<?xml version="1.0" encoding="utf-8"?>
<svg version="1.1" xmlns:xlink="http://www.w3.org/1999/xlink" width="25px" height="21px" xmlns="http://www.w3.org/2000/svg">
  <g transform="matrix(1 0 0 1 -423 -14 )">
    <path d="M 9.85026041666669 9.54717548076923  C 10.5837673611111 8.83623798076923  11.4670138888889 8.48076923076923  12.5 8.48076923076923  C 13.5329861111111 8.48076923076923  14.4162326388889 8.83623798076923  15.1497395833333 9.54717548076923  C 15.8832465277778 10.2581129807692  16.25 11.1141826923077  16.25 12.1153846153846  C 16.25 13.1165865384615  15.8832465277778 13.97265625  15.1497395833333 14.68359375  C 14.4162326388889 15.39453125  13.5329861111111 15.75  12.5 15.75  C 11.4670138888889 15.75  10.5837673611111 15.39453125  9.85026041666669 14.68359375  C 9.11675347222223 13.97265625  8.75 13.1165865384615  8.75 12.1153846153846  C 8.75 11.1141826923077  9.11675347222223 10.2581129807692  9.85026041666669 9.54717548076923  Z M 18.75 3.23076923076923  L 21.6666666666667 3.23076923076923  C 22.5868055555555 3.23076923076923  23.3723958333333 3.54627403846154  24.0234375 4.17728365384616  C 24.6744791666667 4.80829326923077  25 5.56971153846154  25 6.46153846153846  L 25 17.7692307692308  C 25 18.6610576923077  24.6744791666667 19.4224759615385  24.0234375 20.0534855769231  C 23.3723958333333 20.6844951923077  22.5868055555555 21  21.6666666666667 21  L 3.33333333333331 21  C 2.41319444444446 21  1.62760416666669 20.6844951923077  0.9765625 20.0534855769231  C 0.325520833333314 19.4224759615385  0 18.6610576923077  0 17.7692307692308  L 0 6.46153846153846  C 0 5.56971153846154  0.325520833333314 4.80829326923077  0.9765625 4.17728365384616  C 1.62760416666669 3.54627403846154  2.41319444444446 3.23076923076923  3.33333333333331 3.23076923076923  L 6.25 3.23076923076923  L 6.9140625 1.51442307692308  C 7.07899305555554 1.10216346153846  7.38064236111109 0.74669471153846  7.81901041666669 0.448016826923077  C 8.25737847222223 0.149338942307694  8.70659722222223 0  9.16666666666669 0  L 15.8333333333333 0  C 16.2934027777778 0  16.7426215277778 0.149338942307694  17.1809895833333 0.448016826923077  C 17.6193576388889 0.74669471153846  17.9210069444445 1.10216346153846  18.0859375 1.51442307692308  L 18.75 3.23076923076923  Z M 8.37890625 16.1096754807692  C 9.52039930555554 17.2160456730769  10.8940972222222 17.7692307692308  12.5 17.7692307692308  C 14.1059027777778 17.7692307692308  15.4796006944445 17.2160456730769  16.62109375 16.1096754807692  C 17.7625868055555 15.0033052884615  18.3333333333333 13.671875  18.3333333333333 12.1153846153846  C 18.3333333333333 10.5588942307692  17.7625868055555 9.22746394230769  16.62109375 8.12109375  C 15.4796006944445 7.01472355769231  14.1059027777778 6.46153846153846  12.5 6.46153846153846  C 10.8940972222222 6.46153846153846  9.52039930555554 7.01472355769231  8.37890625 8.12109375  C 7.23741319444446 9.22746394230769  6.66666666666669 10.5588942307692  6.66666666666669 12.1153846153846  C 6.66666666666669 13.671875  7.23741319444446 15.0033052884615  8.37890625 16.1096754807692  Z " fill-rule="nonzero" fill="#949494" stroke="none" transform="matrix(1 0 0 1 423 14 )" />
  </g>
</svg>