<?xml version="1.0" standalone="no"?><!DOCTYPE svg PUBLIC "-//W3C//DTD SVG 1.1//EN" "http://www.w3.org/Graphics/SVG/1.1/DTD/svg11.dtd"><svg xmlns:xlink="http://www.w3.org/1999/xlink" xmlns="http://www.w3.org/2000/svg" version="1.1" width="200" height="200" viewBox="0 0 200 200"><defs><style type="text/css"><![CDATA[
@font-face {
  font-family: "ifont";
  src: url("//at.alicdn.com/t/font_1442373896_4754455.eot?#iefix") format("embedded-opentype"), url("//at.alicdn.com/t/font_1442373896_4754455.woff") format("woff"), url("//at.alicdn.com/t/font_1442373896_4754455.ttf") format("truetype"), url("//at.alicdn.com/t/font_1442373896_4754455.svg#ifont") format("svg");
}

]]></style></defs><g class="transform-group"><g transform="scale(0.1953125, 0.1953125)"><path d="M209.513187 890.861078c-62.613136 0-113.529313-50.916177-113.529313-113.529313L95.983874 278.834873c0-62.613136 50.916177-113.529313 113.529313-113.529313L832.548295 165.30556c62.613136 0 113.529313 50.916177 113.529313 113.529313l0 498.496892c0 62.613136-50.916177 113.529313-113.529313 113.529313L209.513187 890.861078zM209.513187 226.198555c-28.898371 0-52.636318 23.565933-52.636318 52.636318l0 498.496892c0 28.898371 23.565933 52.636318 52.636318 52.636318L832.548295 829.968083c28.898371 0 52.636318-23.565933 52.636318-52.636318L885.184613 278.834873c0-28.898371-23.565933-52.636318-52.636318-52.636318L209.513187 226.198555zM791.092894 703.88174c-16.857383 0-30.446498-13.761129-30.446498-30.446498 0-51.948261-42.143457-94.091718-94.091718-94.091718s-94.091718 42.143457-94.091718 94.091718c0 16.857383-13.761129 30.446498-30.446498 30.446498-16.857383 0-30.446498-13.761129-30.446498-30.446498 0-53.15236 27.350244-102.176382 72.417941-130.55871-19.781623-20.985721-30.790526-48.507979-30.790526-77.234336 0-62.613136 50.916177-113.529313 113.529313-113.529313s113.529313 50.916177 113.529313 113.529313c0 28.726356-11.180917 56.0766-30.790526 77.234336 44.895683 28.382328 72.417941 77.234336 72.417941 130.55871C821.711406 690.120611 807.950277 703.88174 791.092894 703.88174zM666.554678 413.177893c-28.898371 0-52.636318 23.565933-52.636318 52.636318s23.565933 52.636318 52.636318 52.636318c29.070385 0 52.636318-23.565933 52.636318-52.636318S695.453049 413.177893 666.554678 413.177893zM434.507643 413.86595 248.216361 413.86595c-17.717453 0-31.994625-14.277171-31.994625-31.994625 0-17.717453 14.277171-31.994625 31.994625-31.994625l186.291282 0c17.717453 0 31.994625 14.277171 31.994625 31.994625C466.502268 399.588779 452.225097 413.86595 434.507643 413.86595zM434.507643 559.90593 248.216361 559.90593c-17.717453 0-31.994625-14.277171-31.994625-31.994625s14.277171-31.994625 31.994625-31.994625l186.291282 0c17.717453 0 31.994625 14.277171 31.994625 31.994625S452.225097 559.90593 434.507643 559.90593zM434.507643 704.397783 248.216361 704.397783c-17.717453 0-31.994625-14.277171-31.994625-31.994625s14.277171-31.994625 31.994625-31.994625l186.291282 0c17.717453 0 31.994625 14.277171 31.994625 31.994625S452.225097 704.397783 434.507643 704.397783z" fill="#272636"></path></g></g></svg>