<?xml version="1.0" standalone="no"?><!DOCTYPE svg PUBLIC "-//W3C//DTD SVG 1.1//EN" "http://www.w3.org/Graphics/SVG/1.1/DTD/svg11.dtd"><svg xmlns:xlink="http://www.w3.org/1999/xlink" xmlns="http://www.w3.org/2000/svg" version="1.1" width="200" height="200" viewBox="0 0 200 200"><defs><style type="text/css"><![CDATA[
@font-face {
  font-family: "ifont";
  src: url("//at.alicdn.com/t/font_1442373896_4754455.eot?#iefix") format("embedded-opentype"), url("//at.alicdn.com/t/font_1442373896_4754455.woff") format("woff"), url("//at.alicdn.com/t/font_1442373896_4754455.ttf") format("truetype"), url("//at.alicdn.com/t/font_1442373896_4754455.svg#ifont") format("svg");
}

]]></style></defs><g class="transform-group"><g transform="scale(0.1953125, 0.1953125)"><path d="M767.010919 959.838737c-5.332437 0-10.664875-1.376113-15.48127-3.956325l-241.335797-133.826978-241.851839 132.966907c-10.664875 5.84848-23.909961 5.160423-33.88678-1.892155-9.976818-7.052579-15.137242-19.26558-13.073072-31.306568L268.342012 637.140265 71.901898 435.023686c-8.256677-8.428691-11.180917-20.985721-7.396607-32.166639 3.612296-11.352931 13.245087-19.609609 24.942046-21.673778l154.984714-26.662187c17.545439-2.92424 34.058794 8.77272 36.983034 26.146145s-8.77272 33.88678-26.146145 36.983034l-95.123803 16.341341 165.30556 170.121955c7.052579 7.224593 10.320847 17.545439 8.600706 27.522258l-38.875189 235.659331 199.536368-109.745003c9.63279-5.332437 21.32975-5.332437 30.96254 0l199.19234 110.433059-38.015118-235.831346c-1.548127-9.976818 1.548127-20.297665 8.77272-27.522258l164.617504-168.2298L634.732068 401.652948c-10.492861-1.548127-19.609609-8.428691-24.081975-18.061482L511.397951 171.15404l-100.112212 211.74937c-7.568621 15.997312-26.662187 22.877877-42.659499 15.309256-15.997312-7.568621-22.877877-26.662187-15.309256-42.659499l129.182597-273.502436c5.332437-11.180917 16.513355-18.40551 28.898371-18.40551 0 0 0 0 0 0 12.385016 0 23.737947 7.224593 28.898371 18.40551l120.753906 258.537208 270.406182 41.799429c11.868974 1.892155 21.673778 10.148833 25.458088 21.501764 3.78431 11.352931 0.860071 23.909961-7.568621 32.510667l-196.956157 201.256509 45.927768 284.855367c1.892155 12.040988-3.268268 24.25399-13.245087 31.306568C779.911977 957.946582 773.547455 959.838737 767.010919 959.838737z" fill="#272636"></path></g></g></svg>