<?xml version="1.0" encoding="utf-8"?>
<svg version="1.1" xmlns:xlink="http://www.w3.org/1999/xlink" width="20px" height="18px" xmlns="http://www.w3.org/2000/svg">
  <g transform="matrix(1 0 0 1 -157 -29 )">
    <path d="M 19.7995991983968 14.7216494845361  C 19.9331997327989 14.9278350515464  20 15.1649484536082  20 15.4329896907217  C 20 15.701030927835  19.9331997327989 15.9381443298969  19.7995991983968 16.1443298969072  L 18.7975951903808 17.6907216494845  C 18.6639946559786 17.8969072164948  18.5103540414162 18  18.3366733466934 18  C 18.1629926519706 18  18.0093520374081 17.8969072164948  17.875751503006 17.6907216494845  L 10 5.5360824742268  L 2.12424849699399 17.6907216494845  C 1.99064796259185 17.8969072164948  1.83700734802939 18  1.66332665330661 18  C 1.48964595858383 18  1.33600534402138 17.8969072164948  1.20240480961924 17.6907216494845  L 0.200400801603206 16.1443298969072  C 0.066800267201069 15.9381443298969  0 15.701030927835  0 15.4329896907217  C 0 15.1649484536082  0.066800267201069 14.9278350515464  0.200400801603206 14.7216494845361  L 9.53907815631263 0.309278350515465  C 9.67267869071476 0.103092783505152  9.82631930527722 0  10 0  C 10.1736806947228 0  10.3273213092852 0.103092783505152  10.4609218436874 0.309278350515465  L 19.7995991983968 14.7216494845361  Z " fill-rule="nonzero" fill="#000000" stroke="none" transform="matrix(1 0 0 1 157 29 )" />
  </g>
</svg>