<?xml version="1.0" encoding="utf-8"?>
<svg version="1.1" xmlns:xlink="http://www.w3.org/1999/xlink" width="96px" height="31px" xmlns="http://www.w3.org/2000/svg">
  <defs>
    <mask fill="white" id="clip45">
      <path d="M 0 26  L 0 5  C 0 2.20000000000005  2.20000000000005 0  5 0  L 45.0294117647059 0  L 91 0  C 93.8 0  96 2.20000000000005  96 5  L 96 26  C 96 28.8  93.8 31  91 31  L 5 31  C 2.20000000000005 31  0 28.8  0 26  Z " fill-rule="evenodd" />
    </mask>
  </defs>
  <g transform="matrix(1 0 0 1 -1088 -201 )">
    <path d="M 0 26  L 0 5  C 0 2.20000000000005  2.20000000000005 0  5 0  L 45.0294117647059 0  L 91 0  C 93.8 0  96 2.20000000000005  96 5  L 96 26  C 96 28.8  93.8 31  91 31  L 5 31  C 2.20000000000005 31  0 28.8  0 26  Z " fill-rule="nonzero" fill="#ffffff" stroke="none" transform="matrix(1 0 0 1 1088 201 )" />
    <path d="M 0 26  L 0 5  C 0 2.20000000000005  2.20000000000005 0  5 0  L 45.0294117647059 0  L 91 0  C 93.8 0  96 2.20000000000005  96 5  L 96 26  C 96 28.8  93.8 31  91 31  L 5 31  C 2.20000000000005 31  0 28.8  0 26  Z " stroke-width="2" stroke="#797979" fill="none" transform="matrix(1 0 0 1 1088 201 )" mask="url(#clip45)" />
  </g>
</svg>