<?xml version="1.0" encoding="utf-8"?>
<svg version="1.1" xmlns:xlink="http://www.w3.org/1999/xlink" width="12px" height="12px" viewBox="447 340  12 12" xmlns="http://www.w3.org/2000/svg">
  <path d="M 453 340  C 456.36 340  459 342.64  459 346  C 459 349.36  456.36 352  453 352  C 449.64 352  447 349.36  447 346  C 447 342.64  449.64 340  453 340  Z " fill-rule="nonzero" fill="#ffffff" stroke="none" />
  <path d="M 453 340.5  C 456.08 340.5  458.5 342.92  458.5 346  C 458.5 349.08  456.08 351.5  453 351.5  C 449.92 351.5  447.5 349.08  447.5 346  C 447.5 342.92  449.92 340.5  453 340.5  Z " stroke-width="1" stroke="#797979" fill="none" />
  <path d="M 453 349  C 451.32 349  450 347.68  450 346  C 450 344.32  451.32 343  453 343  C 454.68 343  456 344.32  456 346  C 456 347.68  454.68 349  453 349  " fill-rule="nonzero" fill="#797979" stroke="none" />
</svg>