<?xml version="1.0" encoding="utf-8"?>
<svg version="1.1" xmlns:xlink="http://www.w3.org/1999/xlink" width="158px" height="119px" xmlns="http://www.w3.org/2000/svg">
  <g transform="matrix(1 0 0 1 -77 -95 )">
    <path d="M 156 95  C 200.24 95  235 121.18  235 154.5  C 235 187.82  200.24 214  156 214  C 111.76 214  77 187.82  77 154.5  C 77 121.18  111.76 95  156 95  Z " fill-rule="nonzero" fill="#ffffff" stroke="none" />
    <path d="M 156 95.5  C 199.96 95.5  234.5 121.46  234.5 154.5  C 234.5 187.54  199.96 213.5  156 213.5  C 112.04 213.5  77.5 187.54  77.5 154.5  C 77.5 121.46  112.04 95.5  156 95.5  Z " stroke-width="1" stroke="#797979" fill="none" />
  </g>
</svg>