<?xml version="1.0" encoding="utf-8"?>
<svg version="1.1" xmlns:xlink="http://www.w3.org/1999/xlink" width="92px" height="28px" xmlns="http://www.w3.org/2000/svg">
  <defs>
    <mask fill="white" id="clip37">
      <path d="M 0 23  L 0 5  C 0 2.19999999999999  1.55692307692307 0  3.53846153846154 0  L 42.8153846153846 0  L 88.4615384615385 0  C 90.4430769230769 0  92 2.19999999999999  92 5  L 92 23  C 92 25.8  90.4430769230769 28  88.4615384615385 28  L 3.53846153846154 28  C 1.55692307692307 28  0 25.8  0 23  Z " fill-rule="evenodd" />
    </mask>
  </defs>
  <g transform="matrix(1 0 0 1 -302 -527 )">
    <path d="M 0 23  L 0 5  C 0 2.19999999999999  1.55692307692307 0  3.53846153846154 0  L 42.8153846153846 0  L 88.4615384615385 0  C 90.4430769230769 0  92 2.19999999999999  92 5  L 92 23  C 92 25.8  90.4430769230769 28  88.4615384615385 28  L 3.53846153846154 28  C 1.55692307692307 28  0 25.8  0 23  Z " fill-rule="nonzero" fill="#ffffff" stroke="none" transform="matrix(1 0 0 1 302 527 )" />
    <path d="M 0 23  L 0 5  C 0 2.19999999999999  1.55692307692307 0  3.53846153846154 0  L 42.8153846153846 0  L 88.4615384615385 0  C 90.4430769230769 0  92 2.19999999999999  92 5  L 92 23  C 92 25.8  90.4430769230769 28  88.4615384615385 28  L 3.53846153846154 28  C 1.55692307692307 28  0 25.8  0 23  Z " stroke-width="2" stroke="#797979" fill="none" transform="matrix(1 0 0 1 302 527 )" mask="url(#clip37)" />
  </g>
</svg>