<?xml version="1.0" encoding="utf-8"?>
<svg version="1.1" xmlns:xlink="http://www.w3.org/1999/xlink" width="113px" height="22px" xmlns="http://www.w3.org/2000/svg">
  <defs>
    <mask fill="white" id="clip67">
      <path d="M 0 17  L 0 5  C 0 2.19999999999999  2.19999999999999 0  5 0  L 108 0  C 110.8 0  113 2.19999999999999  113 5  L 113 17  C 113 19.8  110.8 22  108 22  L 35.6923076923077 22  L 5 22  C 2.19999999999999 22  0 19.8  0 17  Z " fill-rule="evenodd" />
    </mask>
  </defs>
  <g transform="matrix(1 0 0 1 -302 -451 )">
    <path d="M 0 17  L 0 5  C 0 2.19999999999999  2.19999999999999 0  5 0  L 108 0  C 110.8 0  113 2.19999999999999  113 5  L 113 17  C 113 19.8  110.8 22  108 22  L 35.6923076923077 22  L 5 22  C 2.19999999999999 22  0 19.8  0 17  Z " fill-rule="nonzero" fill="#ffffff" stroke="none" transform="matrix(1 0 0 1 302 451 )" />
    <path d="M 0 17  L 0 5  C 0 2.19999999999999  2.19999999999999 0  5 0  L 108 0  C 110.8 0  113 2.19999999999999  113 5  L 113 17  C 113 19.8  110.8 22  108 22  L 35.6923076923077 22  L 5 22  C 2.19999999999999 22  0 19.8  0 17  Z " stroke-width="2" stroke="#797979" fill="none" transform="matrix(1 0 0 1 302 451 )" mask="url(#clip67)" />
  </g>
</svg>