<?xml version="1.0" encoding="utf-8"?>
<svg version="1.1" xmlns:xlink="http://www.w3.org/1999/xlink" width="96px" height="20px" xmlns="http://www.w3.org/2000/svg">
  <defs>
    <mask fill="white" id="clip42">
      <path d="M 0 20  L 0 0  L 33.5789473684211 0  L 35.1578947368421 0  L 39.3684210526316 0  L 96 0  L 96 20  L 45.6842105263158 20  L 0 20  Z " fill-rule="evenodd" />
    </mask>
  </defs>
  <g transform="matrix(1 0 0 1 -388 -222 )">
    <path d="M 0 20  L 0 0  L 33.5789473684211 0  L 35.1578947368421 0  L 39.3684210526316 0  L 96 0  L 96 20  L 45.6842105263158 20  L 0 20  Z " fill-rule="nonzero" fill="#ffffff" stroke="none" transform="matrix(1 0 0 1 388 222 )" />
    <path d="M 0 20  L 0 0  L 33.5789473684211 0  L 35.1578947368421 0  L 39.3684210526316 0  L 96 0  L 96 20  L 45.6842105263158 20  L 0 20  Z " stroke-width="2" stroke="#797979" fill="none" transform="matrix(1 0 0 1 388 222 )" mask="url(#clip42)" />
  </g>
</svg>