<?xml version="1.0" encoding="utf-8"?>
<svg version="1.1" xmlns:xlink="http://www.w3.org/1999/xlink" width="96px" height="20px" xmlns="http://www.w3.org/2000/svg">
  <defs>
    <mask fill="white" id="clip43">
      <path d="M 0 20  L 0 0  L 43.25 0  L 54.1052631578947 0  L 96 0  L 96 20  L 54.3611111111111 20  L 0 20  Z " fill-rule="evenodd" />
    </mask>
  </defs>
  <g transform="matrix(1 0 0 1 -388 -324 )">
    <path d="M 0 20  L 0 0  L 43.25 0  L 54.1052631578947 0  L 96 0  L 96 20  L 54.3611111111111 20  L 0 20  Z " fill-rule="nonzero" fill="#ffffff" stroke="none" transform="matrix(1 0 0 1 388 324 )" />
    <path d="M 0 20  L 0 0  L 43.25 0  L 54.1052631578947 0  L 96 0  L 96 20  L 54.3611111111111 20  L 0 20  Z " stroke-width="2" stroke="#797979" fill="none" transform="matrix(1 0 0 1 388 324 )" mask="url(#clip43)" />
  </g>
</svg>