<?xml version="1.0" encoding="utf-8"?>
<svg version="1.1" xmlns:xlink="http://www.w3.org/1999/xlink" width="12px" height="12px" viewBox="114 112.5  12 12" xmlns="http://www.w3.org/2000/svg">
  <path d="M 120 112.5  C 123.36 112.5  126 115.14  126 118.5  C 126 121.86  123.36 124.5  120 124.5  C 116.64 124.5  114 121.86  114 118.5  C 114 115.14  116.64 112.5  120 112.5  Z " fill-rule="nonzero" fill="#ffffff" stroke="none" />
  <path d="M 120 113  C 123.08 113  125.5 115.42  125.5 118.5  C 125.5 121.58  123.08 124  120 124  C 116.92 124  114.5 121.58  114.5 118.5  C 114.5 115.42  116.92 113  120 113  Z " stroke-width="1" stroke="#797979" fill="none" />
  <path d="M 120 121.5  C 118.32 121.5  117 120.18  117 118.5  C 117 116.82  118.32 115.5  120 115.5  C 121.68 115.5  123 116.82  123 118.5  C 123 120.18  121.68 121.5  120 121.5  " fill-rule="nonzero" fill="#797979" stroke="none" />
</svg>