<?xml version="1.0" encoding="utf-8"?>
<svg version="1.1" xmlns:xlink="http://www.w3.org/1999/xlink" width="12px" height="12px" viewBox="172 112.5  12 12" xmlns="http://www.w3.org/2000/svg">
  <path d="M 178 112.5  C 181.36 112.5  184 115.14  184 118.5  C 184 121.86  181.36 124.5  178 124.5  C 174.64 124.5  172 121.86  172 118.5  C 172 115.14  174.64 112.5  178 112.5  Z " fill-rule="nonzero" fill="#ffffff" stroke="none" />
  <path d="M 178 113  C 181.08 113  183.5 115.42  183.5 118.5  C 183.5 121.58  181.08 124  178 124  C 174.92 124  172.5 121.58  172.5 118.5  C 172.5 115.42  174.92 113  178 113  Z " stroke-width="1" stroke="#797979" fill="none" />
  <path d="M 178 121.5  C 176.32 121.5  175 120.18  175 118.5  C 175 116.82  176.32 115.5  178 115.5  C 179.68 115.5  181 116.82  181 118.5  C 181 120.18  179.68 121.5  178 121.5  " fill-rule="nonzero" fill="#797979" stroke="none" />
</svg>