<?xml version="1.0" encoding="utf-8"?>
<svg version="1.1" xmlns:xlink="http://www.w3.org/1999/xlink" width="12px" height="12px" viewBox="310 112  12 12" xmlns="http://www.w3.org/2000/svg">
  <path d="M 316 112  C 319.36 112  322 114.64  322 118  C 322 121.36  319.36 124  316 124  C 312.64 124  310 121.36  310 118  C 310 114.64  312.64 112  316 112  Z " fill-rule="nonzero" fill="#ffffff" stroke="none" />
  <path d="M 316 112.5  C 319.08 112.5  321.5 114.92  321.5 118  C 321.5 121.08  319.08 123.5  316 123.5  C 312.92 123.5  310.5 121.08  310.5 118  C 310.5 114.92  312.92 112.5  316 112.5  Z " stroke-width="1" stroke="#797979" fill="none" />
  <path d="M 316 121  C 314.32 121  313 119.68  313 118  C 313 116.32  314.32 115  316 115  C 317.68 115  319 116.32  319 118  C 319 119.68  317.68 121  316 121  " fill-rule="nonzero" fill="#797979" stroke="none" />
</svg>