<?xml version="1.0" encoding="utf-8"?>
<svg version="1.1" xmlns:xlink="http://www.w3.org/1999/xlink" width="118px" height="16px" xmlns="http://www.w3.org/2000/svg">
  <defs>
    <mask fill="white" id="clip86">
      <path d="M 0 16  L 0 0  L 63.4874675885912 0  L 85.7973206568712 0  L 118 0  L 118 16  L 48.7458068247541 16  L 0 16  Z " fill-rule="evenodd" />
    </mask>
  </defs>
  <g transform="matrix(1 0 0 1 -130 -142 )">
    <path d="M 0 16  L 0 0  L 63.4874675885912 0  L 85.7973206568712 0  L 118 0  L 118 16  L 48.7458068247541 16  L 0 16  Z " fill-rule="nonzero" fill="#ffffff" stroke="none" transform="matrix(1 0 0 1 130 142 )" />
    <path d="M 0 16  L 0 0  L 63.4874675885912 0  L 85.7973206568712 0  L 118 0  L 118 16  L 48.7458068247541 16  L 0 16  Z " stroke-width="2" stroke="#797979" fill="none" transform="matrix(1 0 0 1 130 142 )" mask="url(#clip86)" />
  </g>
</svg>