<?xml version="1.0" encoding="utf-8"?>
<svg version="1.1" xmlns:xlink="http://www.w3.org/1999/xlink" width="12px" height="12px" viewBox="1482 298  12 12" xmlns="http://www.w3.org/2000/svg">
  <path d="M 1488 298  C 1491.36 298  1494 300.64  1494 304  C 1494 307.36  1491.36 310  1488 310  C 1484.64 310  1482 307.36  1482 304  C 1482 300.64  1484.64 298  1488 298  Z " fill-rule="nonzero" fill="#ffffff" stroke="none" />
  <path d="M 1488 298.5  C 1491.08 298.5  1493.5 300.92  1493.5 304  C 1493.5 307.08  1491.08 309.5  1488 309.5  C 1484.92 309.5  1482.5 307.08  1482.5 304  C 1482.5 300.92  1484.92 298.5  1488 298.5  Z " stroke-width="1" stroke="#797979" fill="none" />
  <path d="M 1488 307  C 1486.32 307  1485 305.68  1485 304  C 1485 302.32  1486.32 301  1488 301  C 1489.68 301  1491 302.32  1491 304  C 1491 305.68  1489.68 307  1488 307  " fill-rule="nonzero" fill="#797979" stroke="none" />
</svg>