<?xml version="1.0" encoding="utf-8"?>
<svg version="1.1" xmlns:xlink="http://www.w3.org/1999/xlink" width="12px" height="12px" viewBox="1545 384  12 12" xmlns="http://www.w3.org/2000/svg">
  <path d="M 1551 384  C 1554.36 384  1557 386.64  1557 390  C 1557 393.36  1554.36 396  1551 396  C 1547.64 396  1545 393.36  1545 390  C 1545 386.64  1547.64 384  1551 384  Z " fill-rule="nonzero" fill="#ffffff" stroke="none" />
  <path d="M 1551 384.5  C 1554.08 384.5  1556.5 386.92  1556.5 390  C 1556.5 393.08  1554.08 395.5  1551 395.5  C 1547.92 395.5  1545.5 393.08  1545.5 390  C 1545.5 386.92  1547.92 384.5  1551 384.5  Z " stroke-width="1" stroke="#797979" fill="none" />
  <path d="M 1551 393  C 1549.32 393  1548 391.68  1548 390  C 1548 388.32  1549.32 387  1551 387  C 1552.68 387  1554 388.32  1554 390  C 1554 391.68  1552.68 393  1551 393  " fill-rule="nonzero" fill="#797979" stroke="none" />
</svg>