<svg t="1591083162575" class="icon" viewBox="0 0 1024 1024" version="1.1" xmlns="http://www.w3.org/2000/svg" p-id="3444" width="200" height="200"><path d="M0 480h480V0H0v480z m121.6-358.4h243.2v243.2H121.6V121.6zM544 0v480H1024V0H544z m358.4 358.4h-243.2V121.6h243.2v236.8zM179.2 300.8h121.6V179.2H179.2v121.6zM0 1024h480V544H0V1024z m121.6-358.4h243.2v243.2H121.6v-243.2z m723.2-486.4h-121.6v121.6h121.6V179.2zM544 1024h121.6v-121.6H544V1024z m121.6-358.4v243.2h121.6v-243.2h-121.6z m236.8 236.8h-121.6V1024H1024v-243.2h-121.6v121.6z m0-236.8H1024V544h-121.6v121.6zM544 544v121.6h121.6V544H544z m-364.8 300.8h121.6v-121.6H179.2v121.6z" fill="#999999" p-id="3445"></path></svg>