<?xml version="1.0" encoding="utf-8"?>
<svg version="1.1" xmlns:xlink="http://www.w3.org/1999/xlink" width="7px" height="7px" xmlns="http://www.w3.org/2000/svg">
  <g transform="matrix(1 0 0 1 -720 -702 )">
    <path d="M 723.5 702  C 725.46 702  727 703.54  727 705.5  C 727 707.46  725.46 709  723.5 709  C 721.54 709  720 707.46  720 705.5  C 720 703.54  721.54 702  723.5 702  Z " fill-rule="nonzero" fill="#cccccc" stroke="none" />
    <path d="M 723.5 702.5  C 725.18 702.5  726.5 703.82  726.5 705.5  C 726.5 707.18  725.18 708.5  723.5 708.5  C 721.82 708.5  720.5 707.18  720.5 705.5  C 720.5 703.82  721.82 702.5  723.5 702.5  Z " stroke-width="1" stroke="#797979" fill="none" />
  </g>
</svg>