<?xml version="1.0" encoding="utf-8"?>
<svg version="1.1" xmlns:xlink="http://www.w3.org/1999/xlink" width="5px" height="5px" xmlns="http://www.w3.org/2000/svg">
  <g transform="matrix(1 0 0 1 -729 -703 )">
    <path d="M 731.5 703  C 732.9 703  734 704.1  734 705.5  C 734 706.9  732.9 708  731.5 708  C 730.1 708  729 706.9  729 705.5  C 729 704.1  730.1 703  731.5 703  Z " fill-rule="nonzero" fill="#cccccc" stroke="none" />
    <path d="M 731.5 703.5  C 732.62 703.5  733.5 704.38  733.5 705.5  C 733.5 706.62  732.62 707.5  731.5 707.5  C 730.38 707.5  729.5 706.62  729.5 705.5  C 729.5 704.38  730.38 703.5  731.5 703.5  Z " stroke-width="1" stroke="#797979" fill="none" />
  </g>
</svg>