<?xml version="1.0" encoding="utf-8"?>
<svg version="1.1" xmlns:xlink="http://www.w3.org/1999/xlink" width="12px" height="12px" xmlns="http://www.w3.org/2000/svg">
  <g transform="matrix(1 0 0 1 -743 -700 )">
    <path d="M 749 700  C 752.36 700  755 702.64  755 706  C 755 709.36  752.36 712  749 712  C 745.64 712  743 709.36  743 706  C 743 702.64  745.64 700  749 700  Z " fill-rule="nonzero" fill="#ffffff" stroke="none" />
    <path d="M 749 700.5  C 752.08 700.5  754.5 702.92  754.5 706  C 754.5 709.08  752.08 711.5  749 711.5  C 745.92 711.5  743.5 709.08  743.5 706  C 743.5 702.92  745.92 700.5  749 700.5  Z " stroke-width="1" stroke="#797979" fill="none" />
  </g>
</svg>