<?xml version="1.0" encoding="utf-8"?>
<svg version="1.1" xmlns:xlink="http://www.w3.org/1999/xlink" width="6px" height="6px" xmlns="http://www.w3.org/2000/svg">
  <g transform="matrix(1 0 0 1 -746 -703 )">
    <path d="M 749 703  C 750.68 703  752 704.32  752 706  C 752 707.68  750.68 709  749 709  C 747.32 709  746 707.68  746 706  C 746 704.32  747.32 703  749 703  Z " fill-rule="nonzero" fill="#cccccc" stroke="none" />
    <path d="M 749 703.5  C 750.4 703.5  751.5 704.6  751.5 706  C 751.5 707.4  750.4 708.5  749 708.5  C 747.6 708.5  746.5 707.4  746.5 706  C 746.5 704.6  747.6 703.5  749 703.5  Z " stroke-width="1" stroke="#797979" fill="none" />
  </g>
</svg>