<svg t="1591168496929" class="icon" viewBox="0 0 1024 1024" version="1.1" xmlns="http://www.w3.org/2000/svg" p-id="2591" width="200" height="200"><path d="M0 512c0 282.965333 229.034667 512 512 512s512-229.034667 512-512-229.034667-512-512-512-512 229.034667-512 512z" fill="#DCDCDC" p-id="2592"></path><path d="M565.248 512l211.797333 211.797333a38.741333 38.741333 0 0 1 0 53.248 38.741333 38.741333 0 0 1-53.248 0L512 565.248 300.202667 777.045333a38.741333 38.741333 0 0 1-53.248 0 38.741333 38.741333 0 0 1 0-53.248L458.752 512 246.954667 300.202667a38.741333 38.741333 0 0 1 0-53.248 38.741333 38.741333 0 0 1 53.248 0L512 458.752l211.797333-211.797333a38.741333 38.741333 0 0 1 53.248 0 38.741333 38.741333 0 0 1 0 53.248L565.248 512z" fill="#FFFFFF" p-id="2593"></path></svg>