<?xml version="1.0" standalone="no"?><!DOCTYPE svg PUBLIC "-//W3C//DTD SVG 1.1//EN" "http://www.w3.org/Graphics/SVG/1.1/DTD/svg11.dtd"><svg t="1564989538463" class="icon" viewBox="0 0 1024 1024" version="1.1" xmlns="http://www.w3.org/2000/svg" p-id="1970" xmlns:xlink="http://www.w3.org/1999/xlink" width="200" height="200"><defs><style type="text/css"></style></defs><path d="M42.958 560.838c13.623 13.623 35.692 13.623 49.315 0L511.5 141.6l419.227 419.238c13.623 13.623 35.692 13.623 49.315 0s13.623-35.692 0-49.315L536.158 67.638c-13.623-13.623-35.692-13.623-49.315 0L42.958 511.511c-13.623 13.635-13.623 35.704 0 49.327z" p-id="1971" fill="#8a8a8a"></path><path d="M42.958 909.588c13.623 13.623 35.692 13.623 49.315 0L511.5 490.35l419.227 419.238c13.623 13.623 35.692 13.623 49.315 0s13.623-35.692 0-49.315L536.158 416.388c-13.623-13.623-35.692-13.623-49.315 0L42.958 860.261c-13.623 13.635-13.623 35.704 0 49.327z" p-id="1972" fill="#8a8a8a"></path></svg>