<?xml version="1.0" encoding="utf-8"?>
<svg version="1.1" xmlns:xlink="http://www.w3.org/1999/xlink" width="22px" height="20px" xmlns="http://www.w3.org/2000/svg">
  <g transform="matrix(1 0 0 1 -37 -173 )">
    <path d="M 6.11111111111113 6.36363636363635  L 6.11111111111113 9.09090909090901  L 15.8888888888889 9.09090909090901  L 15.8888888888889 6.36363636363635  C 15.8888888888889 5.3598484848485  15.4114583333334 4.50284090909099  14.4565972222223 3.79261363636365  C 13.5017361111111 3.08238636363635  12.3495370370371 2.72727272727283  11 2.72727272727283  C 9.65046296296291 2.72727272727283  8.49826388888887 3.08238636363635  7.54340277777774 3.79261363636365  C 6.58854166666661 4.50284090909099  6.11111111111113 5.3598484848485  6.11111111111113 6.36363636363635  Z M 21.4652777777777 9.48863636363635  C 21.8217592592592 9.75378787878785  22 10.0757575757576  22 10.4545454545454  L 22 18.6363636363637  C 22 19.0151515151515  21.8217592592592 19.3371212121212  21.4652777777777 19.6022727272728  C 21.1087962962963 19.8674242424242  20.675925925926 20  20.1666666666666 20  L 1.83333333333339 20  C 1.32407407407403 20  0.891203703703709 19.8674242424242  0.534722222222257 19.6022727272728  C 0.178240740740804 19.3371212121212  0 19.0151515151515  0 18.6363636363637  L 0 10.4545454545454  C 0 10.0757575757576  0.178240740740804 9.75378787878785  0.534722222222257 9.48863636363635  C 0.891203703703709 9.22348484848484  1.32407407407403 9.09090909090901  1.83333333333339 9.09090909090901  L 2.44444444444451 9.09090909090901  L 2.44444444444451 6.36363636363635  C 2.44444444444451 4.62121212121215  3.28472222222226 3.125  4.96527777777774 1.875  C 6.64583333333339 0.625  8.65740740740742 0  11 0  C 13.3425925925926 0  15.3541666666666 0.625  17.0347222222223 1.875  C 18.7152777777777 3.125  19.5555555555555 4.62121212121215  19.5555555555555 6.36363636363635  L 19.5555555555555 9.09090909090901  L 20.1666666666666 9.09090909090901  C 20.675925925926 9.09090909090901  21.1087962962963 9.22348484848484  21.4652777777777 9.48863636363635  Z " fill-rule="nonzero" fill="#aeaeae" stroke="none" transform="matrix(1 0 0 1 37 173 )" />
  </g>
</svg>