<?xml version="1.0" encoding="utf-8"?>
<svg version="1.1" xmlns:xlink="http://www.w3.org/1999/xlink" width="18px" height="14px" xmlns="http://www.w3.org/2000/svg">
  <g transform="matrix(1 0 0 1 -222 -81 )">
    <path d="M 16.9955357142857 5.37926136363615  C 17.3772321428572 5.12073863636385  17.7120535714285 4.83238636363615  18 4.51420454545462  L 18 12.4090909090911  C 18 12.8465909090911  17.8426339285714 13.2211174242424  17.5279017857143 13.5326704545454  C 17.213169642857 13.8442234848484  16.8348214285714 14  16.3928571428572 14  L 1.60714285714278 14  C 1.16517857142861 14  0.786830357142975 13.8442234848484  0.472098214285694 13.5326704545454  C 0.157366071428555 13.2211174242424  0 12.8465909090911  0 12.4090909090911  L 0 4.51420454545462  C 0.294642857142975 4.83901515151513  0.6328125 5.12736742424235  1.01450892857139 5.37926136363615  C 3.4386160714285 7.00994318181816  5.10267857142861 8.15340909090892  6.00669642857139 8.80965909090892  C 6.38839285714278 9.08806818181816  6.69810267857144 9.30516098484841  6.93582589285722 9.4609375  C 7.17354910714286 9.61671401515159  7.48995535714286 9.77580492424235  7.88504464285722 9.93821022727261  C 8.28013392857144 10.1006155303032  8.6484375 10.1818181818182  8.98995535714278 10.1818181818182  L 9 10.1818181818182  L 9.01004464285722 10.1818181818182  C 9.3515625 10.1818181818182  9.71986607142856 10.1006155303032  10.1149553571428 9.93821022727261  C 10.5100446428571 9.77580492424235  10.8264508928571 9.61671401515159  11.0641741071428 9.4609375  C 11.3018973214286 9.30516098484841  11.6116071428572 9.08806818181816  11.9933035714286 8.80965909090892  C 13.1316964285714 7.99431818181816  14.7991071428571 6.85085227272739  16.9955357142857 5.37926136363615  Z M 17.5228794642857 0.467329545454618  C 17.8409598214286 0.778882575757649  18 1.15340909090892  18 1.59090909090892  C 18 2.11458333333344  17.8359374999999 2.61505681818184  17.5078125 3.09232954545462  C 17.1796875000001 3.56960227272739  16.7712053571429 3.97727272727261  16.2823660714286 4.31534090909108  C 13.7645089285714 6.04545454545462  12.1975446428571 7.12263257575765  11.5814732142857 7.546875  C 11.5145089285714 7.59327651515159  11.3722098214286 7.69436553030319  11.1545758928572 7.85014204545462  C 10.9369419642858 8.00591856060589  10.7561383928571 8.13186553030319  10.6121651785714 8.22798295454538  C 10.4681919642858 8.3241003787879  10.2940848214285 8.43181818181816  10.08984375 8.55113636363615  C 9.8856026785715 8.67045454545462  9.69308035714278 8.75994318181816  9.51227678571431 8.81960227272739  C 9.33147321428569 8.87926136363615  9.16406250000006 8.90909090909108  9.01004464285722 8.90909090909108  L 9 8.90909090909108  L 8.98995535714278 8.90909090909108  C 8.83593749999994 8.90909090909108  8.66852678571431 8.87926136363615  8.48772321428569 8.81960227272739  C 8.30691964285722 8.75994318181816  8.1143973214285 8.67045454545462  7.91015625 8.55113636363615  C 7.7059151785715 8.43181818181816  7.53180803571419 8.3241003787879  7.38783482142861 8.22798295454538  C 7.24386160714286 8.13186553030319  7.06305803571425 8.00591856060589  6.84542410714278 7.85014204545462  C 6.62779017857144 7.69436553030319  6.48549107142856 7.59327651515159  6.41852678571431 7.546875  C 5.80915178571419 7.12263257575765  4.93191964285722 6.51775568181816  3.78683035714278 5.73224431818184  C 2.64174107142861 4.94673295454538  1.95535714285703 4.47443181818184  1.72767857142861 4.31534090909108  C 1.31249999999994 4.03693181818184  0.920758928571502 3.65411931818184  0.552455357142776 3.16690340909108  C 0.184151785714192 2.6796875  0 2.22727272727261  0 1.80965909090892  C 0 1.29261363636385  0.138950892857139 0.861742424242351  0.416852678571388 0.517045454545382  C 0.694754464285808 0.172348484848413  1.09151785714286 0  1.60714285714278 0  L 16.3928571428572 0  C 16.8281250000001 0  17.204799107143 0.155776515151587  17.5228794642857 0.467329545454618  Z " fill-rule="nonzero" fill="#aeaeae" stroke="none" transform="matrix(1 0 0 1 222 81 )" />
  </g>
</svg>