<?xml version="1.0" encoding="utf-8"?>
<svg version="1.1" xmlns:xlink="http://www.w3.org/1999/xlink" width="18px" height="24px" xmlns="http://www.w3.org/2000/svg">
  <g transform="matrix(1 0 0 1 -38 -114 )">
    <path d="M 10.3242187500001 22.659375  C 10.69140625 22.3656249999999  10.8749999999999 22.0125  10.8749999999999 21.5999999999999  C 10.8749999999999 21.1875  10.69140625 20.8343749999999  10.3242187500001 20.5406250000001  C 9.95703124999996 20.246875  9.51562500000006 20.0999999999999  9 20.0999999999999  C 8.48437499999994 20.0999999999999  8.04296875000004 20.246875  7.67578124999995 20.5406250000001  C 7.30859375000001 20.8343749999999  7.12500000000005 21.1875  7.12500000000005 21.5999999999999  C 7.12500000000005 22.0125  7.30859375000001 22.3656249999999  7.67578124999995 22.659375  C 8.04296875000004 22.953125  8.48437499999994 23.0999999999999  9 23.0999999999999  C 9.51562500000006 23.0999999999999  9.95703124999996 22.953125  10.3242187500001 22.659375  Z M 15.5273437500001 19.0218749999999  C 15.67578125 18.903125  15.75 18.7625  15.75 18.5999999999999  L 15.75 5.40000000000009  C 15.75 5.23750000000003  15.67578125 5.09687500000003  15.5273437500001 4.97812500000009  C 15.3789062499999 4.859375  15.2031249999999 4.80000000000003  15.0000000000001 5  L 2.99999999999995 5  C 2.79687500000007 4.80000000000003  2.62109375000007 4.859375  2.47265624999995 4.97812500000009  C 2.32421874999999 5.09687500000003  2.25 5.23750000000003  2.25 5.40000000000009  L 2.25 18.5999999999999  C 2.25 18.7625  2.32421874999999 18.903125  2.47265624999995 19.0218749999999  C 2.62109375000007 19.140625  2.79687500000007 19.2  2.99999999999995 19  L 15.0000000000001 19  C 15.2031249999999 19.2  15.3789062499999 19.140625  15.5273437500001 19.0218749999999  Z M 10.8749999999999 3  C 11.1249999999999 3  11.25 2.90000000000009  11.25 2.69999999999997  C 11.25 2.5  11.1249999999999 2.40000000000009  10.8749999999999 2.40000000000009  L 7.12500000000005 2.40000000000009  C 6.87500000000007 2.40000000000009  6.75 2.5  6.75 2.69999999999997  C 6.75 2.90000000000009  6.87500000000007 3  7.12500000000005 3  L 10.8749999999999 3  Z M 17.1093750000001 0.712500000000091  C 17.7031250000001 1.1875  18 1.75  18 2.40000000000009  L 18 21.5999999999999  C 18 22.25  17.7031250000001 22.8125  17.1093750000001 23.2874999999999  C 16.515625 23.7625  15.8125 24  15.0000000000001 24  L 2.99999999999995 24  C 2.18749999999996 24  1.48437499999996 23.7625  0.89062499999995 23.2874999999999  C 0.296874999999929 22.8125  0 22.25  0 21.5999999999999  L 0 2.40000000000009  C 0 1.75  0.296874999999929 1.1875  0.89062499999995 0.712500000000091  C 1.48437499999996 0.237500000000026  2.18749999999996 0  2.99999999999995 0  L 15.0000000000001 0  C 15.8125 0  16.515625 0.237500000000026  17.1093750000001 0.712500000000091  Z " fill-rule="nonzero" fill="#aeaeae" stroke="none" transform="matrix(1 0 0 1 38 114 )" />
  </g>
</svg>