<?xml version="1.0" encoding="utf-8"?>
<svg version="1.1" xmlns:xlink="http://www.w3.org/1999/xlink" width="55px" height="55px" xmlns="http://www.w3.org/2000/svg">
  <g transform="matrix(1 0 0 1 -289 -382 )">
    <path d="M 316.5 382  C 331.9 382  344 394.1  344 409.5  C 344 424.9  331.9 437  316.5 437  C 301.1 437  289 424.9  289 409.5  C 289 394.1  301.1 382  316.5 382  Z " fill-rule="nonzero" fill="#ffffff" stroke="none" />
    <path d="M 316.5 382.5  C 331.62 382.5  343.5 394.38  343.5 409.5  C 343.5 424.62  331.62 436.5  316.5 436.5  C 301.38 436.5  289.5 424.62  289.5 409.5  C 289.5 394.38  301.38 382.5  316.5 382.5  Z " stroke-width="1" stroke="#797979" fill="none" />
  </g>
</svg>