<?xml version="1.0" encoding="utf-8"?>
<svg version="1.1" xmlns:xlink="http://www.w3.org/1999/xlink" width="55px" height="55px" xmlns="http://www.w3.org/2000/svg">
  <g transform="matrix(1 0 0 1 -658 -383 )">
    <path d="M 685.5 383  C 700.9 383  713 395.1  713 410.5  C 713 425.9  700.9 438  685.5 438  C 670.1 438  658 425.9  658 410.5  C 658 395.1  670.1 383  685.5 383  Z " fill-rule="nonzero" fill="#caf982" stroke="none" />
    <path d="M 685.5 383.5  C 700.62 383.5  712.5 395.38  712.5 410.5  C 712.5 425.62  700.62 437.5  685.5 437.5  C 670.38 437.5  658.5 425.62  658.5 410.5  C 658.5 395.38  670.38 383.5  685.5 383.5  Z " stroke-width="1" stroke="#ffffff" fill="none" />
  </g>
</svg>