<?xml version="1.0" encoding="utf-8"?>
<svg version="1.1" xmlns:xlink="http://www.w3.org/1999/xlink" width="55px" height="55px" xmlns="http://www.w3.org/2000/svg">
  <g transform="matrix(1 0 0 1 -727 -383 )">
    <path d="M 754.5 383  C 769.9 383  782 395.1  782 410.5  C 782 425.9  769.9 438  754.5 438  C 739.1 438  727 425.9  727 410.5  C 727 395.1  739.1 383  754.5 383  Z " fill-rule="nonzero" fill="#d7d7d7" stroke="none" />
    <path d="M 754.5 383.5  C 769.62 383.5  781.5 395.38  781.5 410.5  C 781.5 425.62  769.62 437.5  754.5 437.5  C 739.38 437.5  727.5 425.62  727.5 410.5  C 727.5 395.38  739.38 383.5  754.5 383.5  Z " stroke-width="1" stroke="#ffffff" fill="none" />
  </g>
</svg>