<?xml version="1.0" standalone="no"?><!DOCTYPE svg PUBLIC "-//W3C//DTD SVG 1.1//EN" "http://www.w3.org/Graphics/SVG/1.1/DTD/svg11.dtd"><svg width="32" height="32" viewBox="0 0 32 32" version="1.1" xmlns="http://www.w3.org/2000/svg" xmlns:xlink="http://www.w3.org/1999/xlink"><defs><style type="text/css"><![CDATA[
@font-face { font-family: ifont; src: url(http://at.alicdn.com/t/font_1442373896_4754455.eot?#iefix) format(embedded-opentype), url(http://at.alicdn.com/t/font_1442373896_4754455.woff) format(woff), url(http://at.alicdn.com/t/font_1442373896_4754455.ttf) format(truetype), url(http://at.alicdn.com/t/font_1442373896_4754455.svg#ifont) format(svg); }

]]></style></defs><g class="transform-group"><g transform="scale(0.03125, 0.03125)"><path d="M1013.412864 912.49152l-198.90176-198.892544c53.272576-73.8304 84.666368-164.492288 84.666368-262.488064 0-248.011776-201.056256-449.081344-449.088512-449.081344-248.018944 0-449.088512 201.069568-449.088512 449.081344 0 248.018944 201.069568 449.088512 449.088512 449.088512 97.999872 0 188.660736-31.39584 262.490112-84.667392L911.475712 1014.428672c14.075904 14.06976 36.895744 14.06976 50.971648 0l50.965504-50.965504C1027.488768 949.393408 1027.488768 926.573568 1013.412864 912.49152zM129.318912 451.111936c0-177.159168 143.618048-320.777216 320.777216-320.777216s320.771072 143.618048 320.771072 320.777216c0 177.165312-143.611904 320.78336-320.771072 320.78336S129.318912 628.276224 129.318912 451.111936z" fill="#000000"></path></g></g></svg>