<?xml version="1.0" standalone="no"?><!DOCTYPE svg PUBLIC "-//W3C//DTD SVG 1.1//EN" "http://www.w3.org/Graphics/SVG/1.1/DTD/svg11.dtd"><svg width="48" height="48" viewBox="0 0 48 48" version="1.1" xmlns="http://www.w3.org/2000/svg" xmlns:xlink="http://www.w3.org/1999/xlink"><defs><style type="text/css"><![CDATA[
@font-face { font-family: ifont; src: url(http://at.alicdn.com/t/font_1442373896_4754455.eot?#iefix) format(embedded-opentype), url(http://at.alicdn.com/t/font_1442373896_4754455.woff) format(woff), url(http://at.alicdn.com/t/font_1442373896_4754455.ttf) format(truetype), url(http://at.alicdn.com/t/font_1442373896_4754455.svg#ifont) format(svg); }

]]></style></defs><g class="transform-group"><g transform="scale(0.046875, 0.046875)"><path d="M46.545545 372.363364c-27.927727 0-46.545545-18.617819-46.545545-46.545545L0 139.636636C0 65.163364 65.163364 0 139.636636 0l186.181182 0c27.927727 0 46.545545 18.617819 46.545545 46.545545 0 27.927727-18.617819 46.545545-46.545545 46.545545L139.636636 93.091091c-27.927727 0-46.545545 18.617819-46.545545 46.545545l0 186.181182C93.091091 353.745545 74.473272 372.363364 46.545545 372.363364zM325.817819 1024 139.636636 1024C65.163364 1024 0 958.836636 0 884.364363L0 698.181182c0-27.926728 18.617819-46.545545 46.545545-46.545545 27.927727 0 46.544546 18.618818 46.544546 46.545545l0 186.182181c0 27.926728 18.617819 46.544546 46.545545 46.544546l186.181182 0c27.927727 0 46.545545 18.618818 46.545545 46.546544S353.745545 1024 325.817819 1024zM884.363364 1024 698.181182 1024c-27.926728 0-46.545545-18.617819-46.545545-46.545545s18.618818-46.546544 46.545545-46.546544l186.181182 0c27.927727 0 46.546544-18.617819 46.546544-46.544546L930.908909 698.181182c0-27.926728 18.617819-46.545545 46.545545-46.545545s46.545545 18.618818 46.545545 46.545545l0 186.182181C1024 958.836636 958.836636 1024 884.363364 1024zM977.454455 372.363364c-27.927727 0-46.545545-18.617819-46.545545-46.545545L930.908909 139.636636c0-27.927727-18.618818-46.545545-46.546544-46.545545L698.181182 93.091091c-27.926728 0-46.545545-18.617819-46.545545-46.545545 0-27.927727 18.618818-46.545545 46.545545-46.545545l186.181182 0c74.474271 0 139.636636 65.163364 139.636636 139.636636l0 186.181182C1024 353.745545 1005.382181 372.363364 977.454455 372.363364zM977.454455 558.545545 46.545545 558.545545C18.617819 558.545545 0 539.926728 0 512c0-27.927727 18.617819-46.545545 46.545545-46.545545l930.908909 0c27.927727 0 46.545545 18.617819 46.545545 46.545545C1024 539.926728 1005.382181 558.545545 977.454455 558.545545z" fill="#000000"></path></g></g></svg>