<?xml version="1.0" encoding="iso-8859-1"?>
<!-- Generator: Adobe Illustrator 18.0.0, SVG Export Plug-In . SVG Version: 6.00 Build 0)  -->
<!DOCTYPE svg PUBLIC "-//W3C//DTD SVG 1.1//EN" "http://www.w3.org/Graphics/SVG/1.1/DTD/svg11.dtd">
<svg xmlns="http://www.w3.org/2000/svg" xmlns:xlink="http://www.w3.org/1999/xlink" version="1.1" id="Capa_1" x="0px" y="0px" viewBox="0 0 280 280" style="enable-background:new 0 0 280 280;" xml:space="preserve" width="512px" height="512px">
<g>
	<path d="M140,60.082c-8.284,0-15,6.716-15,15v49.982H75.019c-8.284,0-15,6.716-15,15c0,8.284,6.716,15,15,15H140   c8.284,0,15-6.716,15-15V75.082C155,66.798,148.284,60.082,140,60.082z" fill="#a19aa1"/>
	<path d="M140,0C62.804,0,0,62.804,0,140s62.804,140,140,140s140-62.804,140-140S217.196,0,140,0z M140,250   c-60.654,0-110-49.346-110-110S79.346,30,140,30s110,49.346,110,110S200.654,250,140,250z" fill="#a19aa1"/>
</g>
<g>
</g>
<g>
</g>
<g>
</g>
<g>
</g>
<g>
</g>
<g>
</g>
<g>
</g>
<g>
</g>
<g>
</g>
<g>
</g>
<g>
</g>
<g>
</g>
<g>
</g>
<g>
</g>
<g>
</g>
</svg>
