<?xml version="1.0" standalone="no"?><!DOCTYPE svg PUBLIC "-//W3C//DTD SVG 1.1//EN" "http://www.w3.org/Graphics/SVG/1.1/DTD/svg11.dtd"><svg width="200" height="200" viewBox="0 0 200 200" version="1.1" xmlns="http://www.w3.org/2000/svg" xmlns:xlink="http://www.w3.org/1999/xlink"><defs><style type="text/css"><![CDATA[
@font-face { font-family: ifont; src: url(http://at.alicdn.com/t/font_1442373896_4754455.eot?#iefix) format(embedded-opentype), url(http://at.alicdn.com/t/font_1442373896_4754455.woff) format(woff), url(http://at.alicdn.com/t/font_1442373896_4754455.ttf) format(truetype), url(http://at.alicdn.com/t/font_1442373896_4754455.svg#ifont) format(svg); }

]]></style></defs><g class="transform-group"><g transform="scale(0.1953125, 0.1953125)"><path d="M563.591299 535.628454l289.170135-287.604938c13.665373-13.635273 13.725573-35.69853 0.1204-49.333804-13.635273-13.755673-35.63833-13.755673-49.303704-0.1806l-289.200235 287.725338L227.645855 198.659612c-13.544974-13.575073-35.66843-13.695473-49.303704-0.0602C164.706878 212.174486 164.676778 234.267842 178.281952 247.903116l286.61164 287.544738L175.904056 822.932393c-13.665373 13.575073-13.725573 35.63833-0.1505 49.333804 6.832687 6.892887 15.742269 10.29418 24.712052 10.29418 8.909583 0 17.819165-3.401293 24.621752-10.17378l289.079835-287.544738 289.290535 290.193533c6.832687 6.892887 15.742269 10.29418 24.712052 10.29418 8.909583 0 17.819165-3.401293 24.591652-10.17378 13.635273-13.635273 13.665373-35.69853 0.0602-49.333804L563.591299 535.628454 563.591299 535.628454zM563.591299 535.628454" fill="#272636"></path></g></g></svg>