<?xml version="1.0" standalone="no"?><!DOCTYPE svg PUBLIC "-//W3C//DTD SVG 1.1//EN" "http://www.w3.org/Graphics/SVG/1.1/DTD/svg11.dtd"><svg width="200" height="200" viewBox="0 0 200 200" version="1.1" xmlns="http://www.w3.org/2000/svg" xmlns:xlink="http://www.w3.org/1999/xlink"><defs><style type="text/css"><![CDATA[
@font-face {
  font-family: "ifont";
  src: url("//at.alicdn.com/t/font_1442373896_4754455.eot?#iefix") format("embedded-opentype"), url("//at.alicdn.com/t/font_1442373896_4754455.woff") format("woff"), url("//at.alicdn.com/t/font_1442373896_4754455.ttf") format("truetype"), url("//at.alicdn.com/t/font_1442373896_4754455.svg#ifont") format("svg");
}

]]></style></defs><g class="transform-group"><g transform="scale(0.1953125, 0.1953125)"><path d="M803.985269 405.075759c-0.527024 8.341992-1.456224 17.036002-2.73541 26.169009-21.728751 150.380986-140.877173 259.488962-283.460268 259.488962l-46.370974 0-8.53063 8.767688c32.01647 59.515488 91.534397 97.967242 158.404057 97.967242l46.080343 0 91.347124 95.670943c5.896532 5.894244 13.875577 9.119705 22.079759 9.119705 3.789458 0 7.678181-0.427742 11.391911-2.00875 11.50448-4.740978 19.107956-15.881712 19.107956-28.602432l0-77.767178c85.022832-17.402345 147.877898-97.553827 147.877898-194.002482C959.177036 501.474272 891.755792 419.741783 803.985269 405.075759zM517.789592 121.739669 307.884518 121.739669c-134.064745 0-243.0636 117.875664-243.0636 262.712377 0 129.74397 85.8016 236.843196 200.896541 258.271228l0 110.699218c0 14.290471 8.819214 27.375487 22.269079 32.969902 4.316482 1.593288 8.76907 2.384303 13.260545 2.384303 9.509974 0 18.868493-3.587712 25.694225-10.715039l125.733668-131.337257 65.113595 0c120.490032 0 221.396251-93.27436 239.951599-221.801619 2.132657-14.728446 3.112002-28.176736 3.112002-40.470737C760.853193 239.615333 651.854337 121.739669 517.789592 121.739669zM242.006482 413.794327c-19.672844 0-35.617632-15.945157-35.617632-35.602869 0-19.671015 15.944787-35.616172 35.617632-35.616172s35.605351 15.94618 35.605351 35.616172C277.611833 397.850194 261.678303 413.794327 242.006482 413.794327zM426.480332 413.794327c-19.672844 0-35.605351-15.945157-35.605351-35.602869 0-19.671015 15.932507-35.616172 35.605351-35.616172 19.671821 0 35.604328 15.94618 35.604328 35.616172C462.08466 397.850194 446.152153 413.794327 426.480332 413.794327zM610.954182 413.794327c-19.659541 0-35.604328-15.945157-35.604328-35.602869 0-19.671015 15.944787-35.616172 35.604328-35.616172 19.672844 0 35.618655 15.94618 35.618655 35.616172C646.572837 397.850194 630.627027 413.794327 610.954182 413.794327z" fill="#272636"></path></g></g></svg>