<?xml version="1.0" standalone="no"?><!DOCTYPE svg PUBLIC "-//W3C//DTD SVG 1.1//EN" "http://www.w3.org/Graphics/SVG/1.1/DTD/svg11.dtd"><svg width="200" height="200" viewBox="0 0 200 200" version="1.1" xmlns="http://www.w3.org/2000/svg" xmlns:xlink="http://www.w3.org/1999/xlink"><defs><style type="text/css"><![CDATA[
@font-face {
  font-family: "ifont";
  src: url("//at.alicdn.com/t/font_1442373896_4754455.eot?#iefix") format("embedded-opentype"), url("//at.alicdn.com/t/font_1442373896_4754455.woff") format("woff"), url("//at.alicdn.com/t/font_1442373896_4754455.ttf") format("truetype"), url("//at.alicdn.com/t/font_1442373896_4754455.svg#ifont") format("svg");
}

]]></style></defs><g class="transform-group"><g transform="scale(0.1953125, 0.1953125)"><path d="M473.408 392.032c0 45.088-36.896 81.984-81.984 81.984L100.016 474.016c-45.088 0-81.984-36.896-81.984-81.984L18.032 88.224c0-45.088 36.896-81.984 81.984-81.984l291.408 0c45.088 0 81.984 36.896 81.984 81.984L473.408 392.032 473.408 392.032zM473.408 392.032M473.408 935.776c0 45.088-36.896 81.968-81.984 81.968L100.016 1017.744c-45.088 0-81.984-36.88-81.984-81.968L18.032 631.968c0-45.056 36.896-81.968 81.984-81.968l291.408 0c45.088 0 81.984 36.912 81.984 81.968L473.408 935.776 473.408 935.776zM473.408 935.776M1005.936 392.032c0 45.088-36.896 81.984-81.952 81.984L632.56 474.016c-45.12 0-81.984-36.896-81.984-81.984L550.576 88.224c0-45.088 36.864-81.984 81.984-81.984l291.424 0c45.056 0 81.952 36.896 81.952 81.984L1005.936 392.032 1005.936 392.032zM1005.936 392.032M1005.952 935.776c0 45.088-36.912 81.968-81.968 81.968L632.56 1017.744c-45.12 0-81.984-36.88-81.984-81.968L550.576 631.968c0-45.056 36.864-81.968 81.984-81.968l291.424 0c45.072 0 81.968 36.912 81.968 81.968L1005.952 935.776 1005.952 935.776zM1005.952 935.776" fill="#272636"></path></g></g></svg>