<?xml version="1.0" standalone="no"?><!DOCTYPE svg PUBLIC "-//W3C//DTD SVG 1.1//EN" "http://www.w3.org/Graphics/SVG/1.1/DTD/svg11.dtd"><svg width="200" height="200" viewBox="0 0 200 200" version="1.1" xmlns="http://www.w3.org/2000/svg" xmlns:xlink="http://www.w3.org/1999/xlink"><defs><style type="text/css"><![CDATA[
@font-face {
  font-family: "ifont";
  src: url("//at.alicdn.com/t/font_1442373896_4754455.eot?#iefix") format("embedded-opentype"), url("//at.alicdn.com/t/font_1442373896_4754455.woff") format("woff"), url("//at.alicdn.com/t/font_1442373896_4754455.ttf") format("truetype"), url("//at.alicdn.com/t/font_1442373896_4754455.svg#ifont") format("svg");
}

]]></style></defs><g class="transform-group"><g transform="scale(0.1953125, 0.1953125)"><path d="M27.2 321.7c102.3 36.2 374 252.9 492.7 252.9 68.6 0 282.9-159.2 381.4-189.7l0 126.5c0 58.3-12.3 50.7-56.2 73.3l85 112.7 66.5-101.7c-19.2-38-31.8-37.1-31.8-84.3L964.8 384.9c0-47.3 12.6-46.3 31.8-84.3-19.5-38.5-418-274-460.9-274C456 26.6 41.4 251.3 27.2 321.7zM519.9 637.8l-47.7 0c-54.2 0-168-83.6-238.4-105.4l0 337.2c75.3 26.7 133.9 126.5 222.5 126.5l95.4 0c105.7 0 167.6-76.8 238.4-126.5L790.1 511.3C737.6 548.2 592.7 637.8 519.9 637.8z" fill="#272636"></path></g></g></svg>