<?xml version="1.0" standalone="no"?><!DOCTYPE svg PUBLIC "-//W3C//DTD SVG 1.1//EN" "http://www.w3.org/Graphics/SVG/1.1/DTD/svg11.dtd"><svg width="200" height="200" viewBox="0 0 200 200" version="1.1" xmlns="http://www.w3.org/2000/svg" xmlns:xlink="http://www.w3.org/1999/xlink"><defs><style type="text/css"><![CDATA[
@font-face {
  font-family: "ifont";
  src: url("//at.alicdn.com/t/font_1442373896_4754455.eot?#iefix") format("embedded-opentype"), url("//at.alicdn.com/t/font_1442373896_4754455.woff") format("woff"), url("//at.alicdn.com/t/font_1442373896_4754455.ttf") format("truetype"), url("//at.alicdn.com/t/font_1442373896_4754455.svg#ifont") format("svg");
}

]]></style></defs><g class="transform-group"><g transform="scale(0.1953125, 0.1953125)"><path d="M886.97856 604.81536c-1.3824 2.77504-3.2256 5.23264-4.6592 7.95648 1.3312 12.76928 2.05824 25.72288 2.05824 38.84032C884.3776 857.30304 717.64992 1024 512 1024S139.6224 857.30304 139.6224 651.6224c0-13.11744 0.72704-26.07104 2.048-38.84032-1.42336-2.73408-3.2768-5.18144-4.64896-7.95648C61.15328 603.40224 0 541.67552 0 465.44896c0-64.12288 43.47904-117.59616 102.37952-133.96992C142.60224 142.10048 310.65088 0 512 0s369.39776 142.10048 409.62048 331.47904C980.52096 347.8528 1024 401.32608 1024 465.44896 1024 541.67552 962.84672 603.40224 886.97856 604.81536zM425.27744 826.01984l306.944-177.22368L425.27744 471.57248 425.27744 826.01984zM512 93.07136c-205.64992 0-372.3776 166.72768-372.3776 372.3776 0 31.67232 5.2224 61.9008 12.6976 91.22816C194.34496 397.09696 339.22048 279.27552 512 279.27552c172.77952 0 317.65504 117.82144 359.68 277.4016 7.46496-29.32736 12.6976-59.55584 12.6976-91.22816C884.3776 259.79904 717.64992 93.07136 512 93.07136z" fill="#272636"></path></g></g></svg>