<?xml version="1.0" standalone="no"?><!DOCTYPE svg PUBLIC "-//W3C//DTD SVG 1.1//EN" "http://www.w3.org/Graphics/SVG/1.1/DTD/svg11.dtd"><svg width="200.390625" height="200" viewBox="0 0 200.390625 200" version="1.1" xmlns="http://www.w3.org/2000/svg" xmlns:xlink="http://www.w3.org/1999/xlink"><defs><style type="text/css"><![CDATA[
@font-face {
  font-family: "ifont";
  src: url("//at.alicdn.com/t/font_1442373896_4754455.eot?#iefix") format("embedded-opentype"), url("//at.alicdn.com/t/font_1442373896_4754455.woff") format("woff"), url("//at.alicdn.com/t/font_1442373896_4754455.ttf") format("truetype"), url("//at.alicdn.com/t/font_1442373896_4754455.svg#ifont") format("svg");
}

]]></style></defs><g class="transform-group"><g transform="scale(0.1953125, 0.1953125)"><path d="M826.311111 326.4C647.111111 288 647.111111 409.6 512.711111 409.6s-134.4-128-313.6-83.2C19.911111 371.2-69.688889 960 64.711111 960s224-166.4 448-166.4 313.6 166.4 448 166.4S1005.511111 371.2 826.311111 326.4zM384.711111 659.2 301.511111 659.2l0 83.2L211.911111 742.4l0-83.2L128.711111 659.2 128.711111 576l83.2 0L211.911111 492.8l83.2 0L295.111111 576 384.711111 576 384.711111 659.2zM768.711111 723.2c-57.6 0-108.8-44.8-108.8-108.8S711.111111 512 768.711111 512s108.8 44.8 108.8 108.8S826.311111 723.2 768.711111 723.2zM512.711111 345.6c19.2 0 38.4-6.4 57.6-12.8C563.911111 320 557.511111 300.8 557.511111 275.2c0-44.8 0-44.8 0-44.8 0-44.8 38.4-83.2 83.2-83.2l172.8 0L813.511111 64 621.511111 64C538.311111 64 467.911111 134.4 467.911111 217.6l0 57.6c0 25.6-6.4 44.8-12.8 57.6C474.311111 345.6 493.511111 345.6 512.711111 345.6z" fill="#272636"></path></g></g></svg>