<svg t="1528901488893" class="icon" viewBox="0 0 1024 1024" version="1.1" xmlns="http://www.w3.org/2000/svg" p-id="2080" height="32" width="32"><path d="M512 512m-512 0a512 512 0 1 0 1024 0 512 512 0 1 0-1024 0Z" fill="#FD5B5C" p-id="2081"></path><path d="M512 204.8c-40.96 0-76.8 35.84-76.8 76.8v204.8c0 40.96 35.84 76.8 76.8 76.8s76.8-35.84 76.8-76.8v-204.8c0-40.96-35.84-76.8-76.8-76.8z m0 460.8c-40.96 0-76.8 35.84-76.8 76.8S471.04 819.2 512 819.2s76.8-35.84 76.8-76.8S552.96 665.6 512 665.6z" fill="#FFFFFF" p-id="2082"></path></svg>