<?xml version="1.0" encoding="utf-8"?>
<svg version="1.1" xmlns:xlink="http://www.w3.org/1999/xlink" width="50px" height="50px" xmlns="http://www.w3.org/2000/svg">
  <g transform="matrix(1 0 0 1 -311 -596 )">
    <path d="M 38.96484375 28.5481770833333  C 39.3771701388889 28.1358506944444  39.5833333333333 27.6475694444444  39.5833333333333 27.0833333333333  L 39.5833333333333 22.9166666666667  C 39.5833333333333 22.3524305555556  39.3771701388889 21.8641493055556  38.96484375 21.4518229166667  C 38.5525173611111 21.0394965277778  38.0642361111111 20.8333333333333  37.5 20.8333333333333  L 29.1666666666667 20.8333333333333  L 29.1666666666667 12.5  C 29.1666666666667 11.9357638888889  28.9605034722222 11.4474826388889  28.5481770833333 11.03515625  C 28.1358506944444 10.6228298611111  27.6475694444444 10.4166666666667  27.0833333333333 10.4166666666667  L 22.9166666666667 10.4166666666667  C 22.3524305555556 10.4166666666667  21.8641493055556 10.6228298611111  21.4518229166667 11.03515625  C 21.0394965277778 11.4474826388889  20.8333333333333 11.9357638888889  20.8333333333333 12.5  L 20.8333333333333 20.8333333333333  L 12.5 20.8333333333333  C 11.9357638888889 20.8333333333333  11.4474826388889 21.0394965277778  11.03515625 21.4518229166667  C 10.6228298611111 21.8641493055556  10.4166666666667 22.3524305555556  10.4166666666667 22.9166666666667  L 10.4166666666667 27.0833333333333  C 10.4166666666667 27.6475694444444  10.6228298611111 28.1358506944444  11.03515625 28.5481770833333  C 11.4474826388889 28.9605034722222  11.9357638888889 29.1666666666667  12.5 29.1666666666667  L 20.8333333333333 29.1666666666667  L 20.8333333333333 37.5  C 20.8333333333333 38.0642361111111  21.0394965277778 38.5525173611111  21.4518229166667 38.96484375  C 21.8641493055556 39.3771701388889  22.3524305555556 39.5833333333333  22.9166666666667 39.5833333333333  L 27.0833333333333 39.5833333333333  C 27.6475694444444 39.5833333333333  28.1358506944444 39.3771701388889  28.5481770833333 38.96484375  C 28.9605034722222 38.5525173611111  29.1666666666667 38.0642361111111  29.1666666666667 37.5  L 29.1666666666667 29.1666666666667  L 37.5 29.1666666666667  C 38.0642361111111 29.1666666666667  38.5525173611111 28.9605034722222  38.96484375 28.5481770833333  Z M 46.6471354166667 12.451171875  C 48.8823784722222 16.2814670138889  50 20.4644097222222  50 25  C 50 29.5355902777778  48.8823784722222 33.7185329861111  46.6471354166667 37.548828125  C 44.4118923611111 41.3791232638889  41.3791232638889 44.4118923611111  37.548828125 46.6471354166667  C 33.7185329861111 48.8823784722222  29.5355902777778 50  25 50  C 20.4644097222222 50  16.2814670138889 48.8823784722222  12.451171875 46.6471354166667  C 8.62087673611111 44.4118923611111  5.58810763888889 41.3791232638889  3.35286458333333 37.548828125  C 1.11762152777778 33.7185329861111  0 29.5355902777778  0 25  C 0 20.4644097222222  1.11762152777778 16.2814670138889  3.35286458333333 12.451171875  C 5.58810763888889 8.62087673611111  8.62087673611111 5.58810763888888  12.451171875 3.35286458333333  C 16.2814670138889 1.11762152777777  20.4644097222222 0  25 0  C 29.5355902777778 0  33.7185329861111 1.11762152777777  37.548828125 3.35286458333333  C 41.3791232638889 5.58810763888888  44.4118923611111 8.62087673611111  46.6471354166667 12.451171875  Z " fill-rule="nonzero" fill="#000000" stroke="none" transform="matrix(1 0 0 1 311 596 )" />
  </g>
</svg>