<?xml version="1.0" encoding="utf-8"?>
<svg version="1.1" xmlns:xlink="http://www.w3.org/1999/xlink" width="18px" height="18px" xmlns="http://www.w3.org/2000/svg">
  <g transform="matrix(1 0 0 1 -1324 -206 )">
    <path d="M 1333 206  C 1338.04 206  1342 209.96  1342 215  C 1342 220.04  1338.04 224  1333 224  C 1327.96 224  1324 220.04  1324 215  C 1324 209.96  1327.96 206  1333 206  Z " fill-rule="nonzero" fill="#ffffff" stroke="none" />
    <path d="M 1333 206.5  C 1337.76 206.5  1341.5 210.24  1341.5 215  C 1341.5 219.76  1337.76 223.5  1333 223.5  C 1328.24 223.5  1324.5 219.76  1324.5 215  C 1324.5 210.24  1328.24 206.5  1333 206.5  Z " stroke-width="1" stroke="#797979" fill="none" />
  </g>
</svg>