<?xml version="1.0" encoding="utf-8"?>
<svg version="1.1" xmlns:xlink="http://www.w3.org/1999/xlink" width="25px" height="25px" xmlns="http://www.w3.org/2000/svg">
  <g transform="matrix(1 0 0 1 -1009 -390 )">
    <path d="M 1021.5 390  C 1028.5 390  1034 395.5  1034 402.5  C 1034 409.5  1028.5 415  1021.5 415  C 1014.5 415  1009 409.5  1009 402.5  C 1009 395.5  1014.5 390  1021.5 390  Z " fill-rule="nonzero" fill="#ffffff" stroke="none" />
    <path d="M 1021.5 390.5  C 1028.22 390.5  1033.5 395.78  1033.5 402.5  C 1033.5 409.22  1028.22 414.5  1021.5 414.5  C 1014.78 414.5  1009.5 409.22  1009.5 402.5  C 1009.5 395.78  1014.78 390.5  1021.5 390.5  Z " stroke-width="1" stroke="#797979" fill="none" />
  </g>
</svg>