<svg t="1528286907001" class="icon" viewBox="0 0 1024 1024" version="1.1" xmlns="http://www.w3.org/2000/svg" p-id="22647" height="32" width="32"><path d="M512.000625 0C229.507342 0 0.501602 229.00574 0.501602 511.499023s229.00574 511.499023 511.499023 511.499023S1023.498398 793.992307 1023.498398 511.499023 794.492658 0 512.000625 0zM512.000625 989.224341C248.160435 989.224341 34.275308 775.339214 34.275308 511.499023S248.160435 33.773706 512.000625 33.773706 989.724692 247.658833 989.724692 511.499023 775.840816 989.224341 512.000625 989.224341zM809.819666 467.718293 553.389677 467.718293l0-256.429989-72.550924 0 0 256.429989L224.408763 467.718293l0 72.550924 256.429989 0 0 256.429989 72.550924 0 0-256.429989 256.429989 0L809.819666 467.718293z" p-id="22648" fill="#8a8a8a"></path></svg>