<svg t="1528337562012" class="icon" viewBox="0 0 1024 1024" version="1.1" xmlns="http://www.w3.org/2000/svg" p-id="44021" height="32" width="32"><path d="M64 474.7c1.2-10 5.1-19.9 11.9-28.4 6.8-8.5 15.5-14.5 25.1-17.8l86.3-30.7c4.2-11.7 8.9-23.3 14.4-34.6l-39.3-82.8c-4.3-9.1-6.3-19.5-5.1-30.2s5.3-20.5 11.5-28.4l52.9-52.9c8-6.2 17.7-10.4 28.4-11.5s21.1 0.8 30.2 5.1l82.8 39.3c11.4-5.4 22.9-10.2 34.7-14.4l30.7-86.3c3.4-9.5 9.4-18.3 17.8-25.1 8.5-6.8 18.3-10.7 28.4-11.9h74.4c10 1.2 19.9 5.1 28.4 11.9 8.5 6.8 14.5 15.5 17.8 25.1l30.7 86.3c11.7 4.2 23.3 8.9 34.7 14.4l82.8-39.3c9.1-4.3 19.5-6.3 30.2-5.1 10.8 1.2 20.5 5.3 28.4 11.5l52.9 52.9c6.2 8 10.4 17.7 11.5 28.4s-0.8 21.1-5.1 30.2l-39.3 82.8c5.4 11.3 10.2 22.9 14.4 34.6l86.3 30.7c9.5 3.4 18.3 9.4 25.1 17.8s10.7 18.3 11.9 28.4v74.5c-1.2 10-5.1 19.9-11.9 28.4-6.8 8.5-15.5 14.5-25.1 17.8l-86.3 30.7c-4.2 11.7-8.9 23.3-14.4 34.7l39.3 82.8c4.3 9.1 6.3 19.5 5.1 30.2-1.2 10.8-5.3 20.5-11.5 28.4l-52.9 52.9c-8 6.2-17.7 10.4-28.4 11.5-10.8 1.2-21.1-0.8-30.2-5.1l-82.8-39.3c-11.4 5.4-22.9 10.2-34.7 14.4L595.4 923c-3.4 9.5-9.4 18.3-17.8 25.1-8.5 6.8-18.3 10.7-28.4 11.9h-74.4c-10-1.2-19.9-5.1-28.4-11.9-8.5-6.8-14.5-15.5-17.8-25.1l-30.7-86.3c-11.7-4.2-23.3-8.9-34.7-14.4l-82.8 39.3c-9.1 4.3-19.5 6.3-30.2 5.1s-20.5-5.3-28.4-11.5l-52.9-52.9c-6.2-8-10.4-17.7-11.5-28.4-1.2-10.8 0.8-21.1 5.1-30.2l39.3-82.8c-5.4-11.4-10.2-22.9-14.4-34.7L101 595.4c-9.5-3.4-18.3-9.4-25.1-17.8-6.8-8.5-10.7-18.3-11.9-28.4v-74.5z m56.1 6.6c-1.8 20.3-1.8 41.1 0 61.3l112.3 39.9 4.2 13.5c5.3 17.6 12.5 34.7 21.2 51.2l6.6 12.5-51.1 107.6c13.3 15.5 27.8 30.1 43.4 43.4l107.6-51.1 12.5 6.6c16.5 8.7 33.6 15.9 51.2 21.2l13.5 4.2 39.9 112.3c10.1 0.9 20.3 1.4 30.6 1.4s20.5-0.5 30.6-1.4l39.9-112.3 13.5-4.2c17.6-5.3 34.7-12.5 51.2-21.2l12.5-6.6 107.6 51.1c15.5-13.3 30.1-27.8 43.4-43.4l-51.1-107.6 6.6-12.5c8.7-16.5 15.9-33.6 21.2-51.2l4.2-13.5 112.3-39.9c1.8-20.2 1.8-41 0-61.3l-112.3-39.9-4.2-13.5c-5.3-17.5-12.5-34.7-21.2-51.1l-6.6-12.5 51.1-107.6c-13.3-15.5-27.8-30.1-43.4-43.4l-107.6 51.1-12.5-6.6c-16.5-8.7-33.6-15.9-51.2-21.2l-13.5-4.2-39.9-112.3c-10.1-0.9-20.3-1.4-30.6-1.4s-20.5 0.5-30.6 1.4l-39.9 112.3-13.5 4.2c-17.6 5.3-34.7 12.5-51.2 21.2l-12.5 6.6-107.6-51.1c-15.5 13.3-30.1 27.8-43.4 43.4l51.1 107.6-6.6 12.5c-8.7 16.4-15.9 33.6-21.2 51.1l-4.2 13.5-112.3 39.9z" fill="#0079fe" p-id="44022"></path><path d="M512 386c69.5 0 126 56.5 126 126s-56.5 126-126 126-126-56.5-126-126 56.5-126 126-126m0-56c-100.5 0-182 81.5-182 182s81.5 182 182 182 182-81.5 182-182-81.5-182-182-182z" fill="#0079fe" p-id="44023"></path></svg>