<?xml version="1.0" standalone="no"?><!DOCTYPE svg PUBLIC "-//W3C//DTD SVG 1.1//EN" "http://www.w3.org/Graphics/SVG/1.1/DTD/svg11.dtd"><svg width="64" height="64" viewBox="0 0 64 64" version="1.1" xmlns="http://www.w3.org/2000/svg" xmlns:xlink="http://www.w3.org/1999/xlink"><defs><style type="text/css"><![CDATA[
@font-face { font-family: ifont; src: url(http://at.alicdn.com/t/font_1442373896_4754455.eot?#iefix) format(embedded-opentype), url(http://at.alicdn.com/t/font_1442373896_4754455.woff) format(woff), url(http://at.alicdn.com/t/font_1442373896_4754455.ttf) format(truetype), url(http://at.alicdn.com/t/font_1442373896_4754455.svg#ifont) format(svg); }

]]></style></defs><g class="transform-group"><g transform="scale(0.0625, 0.0625)"><path d="M515.76591 73.677899c-244.159898 0-442.085066 197.927489-442.085066 442.067394 0 244.150138 197.925168 442.067394 442.085066 442.067394 244.149664 0 442.085066-197.917256 442.085066-442.067394C957.850975 271.605388 759.915574 73.677899 515.76591 73.677899zM708.410617 780.894656c-6.088903 23.924851-23.158299 22.594556-23.158299 22.594556l-50.421234 0.10233 0-99.495863c0-5.862509-2.373137-11.174481-6.221938-15.011872-3.837544-3.847624-9.147681-6.221689-15.012472-6.221689-11.727534 0-21.23441 9.506496-21.23441 21.233561l0 99.57875-59.127854 0.122796 0-99.701547c0-5.862509-2.374161-11.174481-6.221938-15.011872-3.837544-3.847624-9.148705-6.221689-15.012472-6.221689-11.727534 0-21.23441 9.506496-21.23441 21.233561l0 99.783411-59.128878 0.122796 0-99.906208c0-5.862509-2.374161-11.174481-6.221938-15.011872-3.837544-3.847624-9.148705-6.221689-15.012472-6.221689-11.727534 0-21.23441 9.506496-21.23441 21.233561l0 99.987049-51.75056 0.103354c-17.76527 0-22.523825-22.022529-22.523825-22.022529l-91.957787-266.5298 578.036457-0.511652L708.410617 780.894656zM806.047969 478.425391l-599.659738 0c-12.771346 0-23.209466-10.437702-23.209466-23.208538l0-17.877124c0-12.760603 10.43812-23.208538 23.209466-23.208538l59.507515 0 157.707707-154.017508c-1.054045-3.049446-1.964823-6.221689-1.964823-9.578127 0-17.017548 14.081228-30.719591 31.40646-30.719591 17.396866 0 31.478094 13.702043 31.478094 30.719591 0 16.935684-14.081228 30.709358-31.478094 30.709358-2.282059 0-4.338983-0.828876-6.539175-1.330295l-137.394308 134.216573 405.367445 0-136.637032-134.533797c-2.670931 0.757245-5.270227 1.64752-8.15606 1.64752-17.386633 0-31.479117-13.773674-31.479117-30.709358 0-17.017548 14.092485-30.719591 31.479117-30.719591 17.355932 0 31.405437 13.702043 31.405437 30.719591 0 3.100612-0.910777 5.95563-1.831788 8.872047l158.466006 154.723588 48.322354 0c12.761113 0 23.199232 10.447935 23.199232 23.208538l0 17.877124C829.247202 467.988712 818.809082 478.425391 806.047969 478.425391z" fill="#56abe4"></path></g></g></svg>