<?xml version="1.0" standalone="no"?><!DOCTYPE svg PUBLIC "-//W3C//DTD SVG 1.1//EN" "http://www.w3.org/Graphics/SVG/1.1/DTD/svg11.dtd"><svg width="120" height="120" viewBox="0 0 120 120" version="1.1" xmlns="http://www.w3.org/2000/svg" xmlns:xlink="http://www.w3.org/1999/xlink"><defs><style type="text/css"><![CDATA[
@font-face { font-family: ifont; src: url(http://at.alicdn.com/t/font_1442373896_4754455.eot?#iefix) format(embedded-opentype), url(http://at.alicdn.com/t/font_1442373896_4754455.woff) format(woff), url(http://at.alicdn.com/t/font_1442373896_4754455.ttf) format(truetype), url(http://at.alicdn.com/t/font_1442373896_4754455.svg#ifont) format(svg); }

]]></style></defs><g class="transform-group"><g transform="scale(0.1171875, 0.1171875)"><path d="M405.167091 409.675549c0 0 25.045631-24.672989 50.466967-22.431011 28.129882 2.481898 48.972315 30.094166 48.972315 30.094166 32.242217-22.990485 61.681962 8.410481 61.681962 8.410481l68.410959-87.47594L321.802465 338.273244 405.167091 409.675549zM512 0C229.230006 0 0 229.230006 0 512S229.230006 1024 512 1024 1024 794.769994 1024 512 794.769994 0 512 0zM751.335242 366.311242c-5.514082 0-10.899525-0.538034-16.126724-1.526301-75.045009 78.930696-211.392191 216.97876-219.387151 225.071729l0 174.584343 95.326947 0c18.581057 0 33.644985 15.062907 33.644985 33.644985 0 18.581057-15.062907 33.644985-33.644985 33.644985L355.44745 831.730983c-18.581057 0-33.644985-15.062907-33.644985-33.644985 0-18.581057 15.062907-33.644985 33.644985-33.644985L458.625404 764.441013 458.625404 590.234417 202.924538 319.581926c0 0-37.382636-44.85998 0-46.354632l462.341615 0c3.436475-44.54349 40.64453-79.625954 86.069089-79.625954 47.693081 0 86.354951 38.662891 86.354951 86.354951C837.690193 327.649372 799.028323 366.311242 751.335242 366.311242z" fill="#f4c600"></path></g></g></svg>