<?xml version="1.0" standalone="no"?><!DOCTYPE svg PUBLIC "-//W3C//DTD SVG 1.1//EN" "http://www.w3.org/Graphics/SVG/1.1/DTD/svg11.dtd"><svg width="64" height="64" viewBox="0 0 64 64" version="1.1" xmlns="http://www.w3.org/2000/svg" xmlns:xlink="http://www.w3.org/1999/xlink"><defs><style type="text/css"><![CDATA[
@font-face { font-family: ifont; src: url(http://at.alicdn.com/t/font_1442373896_4754455.eot?#iefix) format(embedded-opentype), url(http://at.alicdn.com/t/font_1442373896_4754455.woff) format(woff), url(http://at.alicdn.com/t/font_1442373896_4754455.ttf) format(truetype), url(http://at.alicdn.com/t/font_1442373896_4754455.svg#ifont) format(svg); }

]]></style></defs><g class="transform-group"><g transform="scale(0.0625, 0.0625)"><path d="M512 0C229.239467 0 0 229.239467 0 512s229.239467 512 512 512 512-229.239467 512-512S794.760533 0 512 0zM493.602133 365.2608c0 46.762667-31.880533 85.777067-74.581333 96.529067l0 407.2448L369.322667 869.034667 369.322667 461.755733c-42.7008-10.717867-74.615467-49.7664-74.615467-96.529067L294.7072 186.504533l49.732267 0 0 178.756267c0 18.397867 10.103467 34.269867 24.8832 42.666667L369.322667 186.504533l49.732267 0 0 221.422933c14.7456-8.3968 24.849067-24.2688 24.849067-42.666667L443.904 186.504533l49.732267 0L493.636267 365.2608zM642.594133 700.552533l0-38.536533c49.732267-6.792533 79.9744-88.4736 79.9744-218.2144 0-129.1264-30.0032-210.500267-79.325867-217.941333l-1.365333 634.743467-49.698133-0.136533 1.4336-674.065067 49.732267 0.1024 0 0.682667c98.850133 5.5296 123.835733 134.690133 123.835733 256.6144C767.1808 566.1696 742.058667 695.671467 642.594133 700.552533z" fill="#ea8010"></path></g></g></svg>