<?xml version="1.0" standalone="no"?><!DOCTYPE svg PUBLIC "-//W3C//DTD SVG 1.1//EN" "http://www.w3.org/Graphics/SVG/1.1/DTD/svg11.dtd"><svg width="120" height="120" viewBox="0 0 120 120" version="1.1" xmlns="http://www.w3.org/2000/svg" xmlns:xlink="http://www.w3.org/1999/xlink"><defs><style type="text/css"><![CDATA[
@font-face { font-family: ifont; src: url(http://at.alicdn.com/t/font_1442373896_4754455.eot?#iefix) format(embedded-opentype), url(http://at.alicdn.com/t/font_1442373896_4754455.woff) format(woff), url(http://at.alicdn.com/t/font_1442373896_4754455.ttf) format(truetype), url(http://at.alicdn.com/t/font_1442373896_4754455.svg#ifont) format(svg); }

]]></style></defs><g class="transform-group"><g transform="scale(0.1171875, 0.1171875)"><path d="M510.546394 31.907711c264.339434 0 478.616682 214.288504 478.616682 478.615659 0 264.330224-214.276225 478.618729-478.616682 478.618729-264.335341 0-478.618729-214.288504-478.618729-478.618729C31.927665 246.196215 246.211053 31.907711 510.546394 31.907711L510.546394 31.907711zM391.51951 273.039583c65.588811 0 118.754684-32.432667 118.754684-72.440869 0-40.001039-53.165874-72.433706-118.754684-72.433706-65.571415 0-118.738311 32.432667-118.738311 72.433706C272.780175 240.61408 325.947072 273.039583 391.51951 273.039583L391.51951 273.039583zM512.675894 319.345212l47.797609 0c-1.570775-7.724938-2.408863-15.71082-2.408863-23.896246 0-57.385988 40.483017-104.924701 94.427626-116.447129 0.402159 0.013303 0.74599-0.059352 1.155313-0.059352 13.20372 0 23.901363-10.697643 23.901363-23.895223 0.007163-13.20372-10.697643-23.902386-23.901363-23.902386l0-0.577145c-80.956823 11.691273-143.374408 80.678484-143.374408 164.881235C510.273171 303.634392 511.540024 311.469847 512.675894 319.345212L512.675894 319.345212zM650.668735 319.345212c-34.515095 0-110.435205 36.015262-140.056849 49.181119-29.640064-13.171997-108.556415-49.181119-143.078673-49.181119-132.033106 0-192.768375 107.033735-192.768375 239.066841 0 18.157545 2.421142 35.671431 6.251378 52.673663 25.447579 159.535483 162.551166 281.812387 329.259002 281.812387 165.829839 0 302.510802-120.965026 328.990896-279.286868 4.238534-17.819854 7.068999-36.171828 7.068999-55.288211C846.334089 426.340061 782.650675 319.345212 650.668735 319.345212L650.668735 319.345212zM414.012803 432.240445c10.175757-2.739391 17.673521-12.028964 17.673521-23.070438 0-13.19758-10.701736-23.902386-23.899316-23.902386-3.823072 0-7.426133 0.902556-10.627035 2.492774C334.450746 416.783405 288.010041 474.708676 275.631106 544.954553c-0.473791 1.889023-0.733711 3.869121-0.733711 5.907547 0 13.196557 10.697643 23.896246 23.896246 23.896246 13.041014 0 23.636327-10.45205 23.882943-23.429619C332.600609 498.611062 367.279433 455.039707 414.012803 432.240445z" fill="#11cd6e"></path></g></g></svg>