<svg t="1591094732256" class="icon" viewBox="0 0 1024 1024" version="1.1" xmlns="http://www.w3.org/2000/svg" p-id="3553" width="200" height="200"><path d="M810.77943309 6.48280494c-2.97743803 0.38836148-6.08432987 0.12945383-9.06176791 0.12945382-49.19245431 0-98.38490864-0.12945383-147.57736296 0.12945383-14.23992098 0-28.35038815 1.81235358-41.94304 6.60214519-24.07841185 8.41449876-38.5772405 25.2434963-44.53211653 49.71026963-2.20071506 9.0617679-3.10689185 18.25298963-3.10689186 27.57366518 0 86.99297185-0.12945383 173.85648987 0.12945382 260.84946172 0 17.86462815 1.16508445 35.7292563 8.02613729 52.8171615 8.93231408 22.13660445 25.50240395 35.21144098 48.28627753 41.03686321 8.15559111 2.07126124 16.57008987 2.84798419 24.98458864 2.84798418h282.2093432c10.74466765 0 21.48933531-0.9061768 32.10454916-2.97743802 31.58673383-5.82542222 52.29934617-26.79694222 58.12476838-58.25422221 0.51781531-2.84798419-0.51781531-6.73159902 3.75416098-8.02613728v-300.33287902c-0.51781531-0.51781531-0.64726914-1.16508445-0.64726913-1.94180742-1.94180741-6.2137837-2.20071506-12.68647506-4.27197629-19.02971258-9.19122173-27.1853037-28.0914805-43.23757827-55.40623802-50.22808494-8.28504494-2.07126124-16.57008987-3.10689185-25.2434963-2.71853037-1.68289975 0.12945383-3.88361482 1.29453827-5.04869926-1.16508445h-115.21390618c-0.51781531 3.3657995-3.49525333 2.71853037-5.56651456 2.97743803z m127.77092741 52.68770765c5.17815309 0 10.48576 1.16508445 15.40500542 2.71853038 8.93231408 2.84798419 13.8515595 9.83849086 13.85155951 19.54752789 0 96.83146272 0.12945383 193.66292543-0.12945382 290.49438816 0 14.49882864-11.13302914 23.30168889-27.31475753 23.43114271-49.45136197 0.38836148-98.77327013 0.12945383-148.22463211 0.12945382h-146.28282469c-5.82542222 0-11.13302914-1.68289975-16.44063604-3.49525333-11.00357531-4.01306864-12.42756741-13.59265185-12.55702124-23.17223505-0.25890765-48.54518518-0.12945383-97.09037037-0.12945383-145.63555556V86.61472395c0-8.41449876 1.94180741-16.18172839 8.93231408-22.00715062 5.95487605-4.91924543 13.33374419-5.56651457 20.19479703-5.56651457 97.60818569-0.12945383 195.21637136 0 292.69510322 0.12945383z" p-id="3554"></path><path d="M809.74380247 4.54099753c-51.13426173 0.12945383-102.26852347 0.12945383-153.27333136 0.12945383-12.16865975 0-24.07841185 1.29453827-35.85871013 4.01306864-15.01664395 3.49525333-28.60929581 9.96794469-38.83614815 21.61878914-13.72210569 15.66391309-19.15916642 34.8230795-19.15916641 55.14733036-0.25890765 90.0998637-0.25890765 180.32918124 0 270.42904495 0 11.78029827 0.9061768 23.69005037 3.62470716 35.21144098 3.62470717 15.14609778 9.83849086 29.12711111 21.61878914 39.48341729 15.14609778 13.33374419 33.52854124 19.41807408 53.72333826 19.41807408 95.92528592 0.12945383 191.98002569 0.12945383 287.90531161 0 12.03920592 0 24.20786569-0.64726914 35.85871013-3.88361483 24.59622717-6.99050667 43.49648592-20.58315852 51.78153086-46.34447012 2.20071506-6.86105283 2.33016889-14.11046717 4.91924544-20.84206616-4.14252247 1.29453827-3.23634569 5.17815309-3.75416099 8.02613728-5.82542222 31.58673383-26.53803457 52.4288-58.1247684 58.25422221-10.61521383 1.94180741-21.35988148 2.97743803-32.10454913 2.97743802h-282.20934322c-8.41449876 0-16.82899753-0.77672297-24.98458864-2.84798418-22.65441975-5.82542222-39.35396347-18.90025876-48.28627753-41.03686321-6.86105283-16.95845136-8.02613728-34.95253333-8.02613728-52.8171615-0.25890765-86.99297185-0.12945383-173.85648987-0.12945383-260.84946172 0-9.32067555 0.9061768-18.51189728 3.10689185-27.57366518 5.95487605-24.46677333 20.45370469-41.29577086 44.53211654-49.71026963 13.59265185-4.78979161 27.70311902-6.47269136 41.94304-6.60214519 49.19245431-0.25890765 98.38490864-0.12945383 147.57736297-0.12945383 2.97743803 0 6.08432987 0.25890765 9.06176789-0.12945382 2.20071506-0.25890765 5.04869925 0.25890765 5.43706075-3.10689185-1.55344592 2.71853037-4.14252247 1.16508445-6.34323753 1.16508444zM5.3177205 380.34545778c2.58907653 16.18172839 7.1199605 31.58673383 18.51189728 44.01430124 14.88719013 16.44063605 34.30526419 23.30168889 55.66514569 23.43114271 97.21982419 0.38836148 194.43964839 0.38836148 291.7889264 0 12.16865975 0 24.46677333-1.29453827 36.37652544-5.04869926 31.71618765-9.96794469 50.61644642-35.34089482 50.61644642-68.73998222 0-95.7958321 0-191.46221037 0.12945382-287.25804247 0-8.28504494-1.03563061-16.31118222-3.10689185-24.33731951-7.50832197-28.99765728-31.71618765-50.61644642-61.49056789-54.75896888-5.30760691-0.77672297-10.61521383-1.4239921-16.05227457-1.42399211-2.58907653 0-5.82542222 0.77672297-6.73159902-3.10689185h-115.21390617c-1.68289975 2.71853037-4.2719763 1.16508445-6.34323753 1.16508444-53.20552297 0.12945383-106.41104592-0.25890765-159.61656889 0.25890766-19.15916642 0.12945383-37.80051753 3.3657995-54.62951506 13.8515595-16.18172839 10.09739852-25.63185778 24.72568098-30.68055704 42.71976297-1.03563061 3.49525333-0.25890765 7.37886815-2.45962271 10.61521383v301.62741728c3.75416098 1.16508445 2.84798419 4.53088395 3.23634568 6.99050667z m51.13426172-299.03834075c0-10.48576 8.02613728-18.90025876 18.77080495-21.10097383 5.69596839-1.16508445 11.3919368-1.29453827 17.08790518-1.29453826h283.50388148c5.56651457 0 10.87412148 1.03563061 16.05227456 2.58907654 9.70903703 3.10689185 13.98101333 8.93231408 13.98101334 18.90025877v291.91838025c0 10.61521383-4.91924543 17.21735902-15.01664395 20.58315852-5.17815309 1.68289975-10.48576 2.71853037-16.05227458 2.58907653-48.1568237-0.12945383-96.18419358-0.12945383-144.34101728-0.12945382-48.80409283 0-97.47873185 0.12945383-146.28282468-0.12945383-8.15559111 0-16.31118222-1.16508445-22.3955121-7.89668345-3.49525333-3.88361482-5.30760691-8.15559111-5.30760692-13.07483655-0.12945383-97.47873185-0.12945383-195.21637136 0-292.95401087z" p-id="3555"></path><path d="M3.24645925 376.72075061c0.12945383 11.52139061 3.3657995 22.3955121 8.28504494 32.49291063 13.46319803 27.70311902 37.41215605 40.13068642 66.79817483 40.38959407 96.44310124 0.77672297 192.88620247 0.25890765 289.19984987 0.25890766 12.03920592 0 24.07841185-1.03563061 35.85871013-3.88361482 35.08198717-8.67340642 56.44186864-34.17581037 56.70077629-70.42288198 0.64726914-95.53692445 0.25890765-191.07384889 0.25890766-286.61077334 0-6.34323753 0-12.68647506-1.16508445-19.02971258-3.88361482-20.97152-13.8515595-38.05942518-31.32782617-50.4869926-14.23992098-10.09739852-30.42164939-14.23992098-47.76846222-14.75773629-2.97743803-0.12945383-6.34323753 1.55344592-8.93231408-1.16508445 0.9061768 3.88361482 4.2719763 3.10689185 6.73159901 3.10689185 5.43706075 0 10.74466765 0.77672297 16.05227457 1.4239921 29.77438025 4.14252247 53.98224592 25.76131161 61.4905679 54.75896889 2.07126124 8.02613728 3.10689185 16.05227457 3.10689186 24.3373195-0.12945383 95.7958321 0 191.46221037-0.12945384 287.25804248 0 33.26963358-18.90025876 58.6425837-50.61644641 68.73998222-11.9097521 3.75416098-24.20786569 5.04869925-36.37652544 5.04869925-97.21982419 0.25890765-194.43964839 0.38836148-291.78892642 0-21.35988148-0.12945383-40.64850173-6.99050667-55.66514567-23.4311427-11.3919368-12.55702124-15.92282075-27.83257283-18.5118973-44.01430125-0.38836148-2.45962272 0.51781531-5.95487605-3.36579949-6.731599 1.68289975 0.12945383 1.16508445 1.68289975 1.16508443 2.71853036zM97.48884543 991.88533728c2.71853037-0.38836148 5.56651457-0.12945383 8.41449876-0.12945381h266.67488396c10.87412148 0 21.48933531-1.29453827 31.97509532-4.01306865 33.01072592-8.54395259 53.59388445-34.8230795 53.72333826-68.86943606 0.12945383-32.75181827 0-65.63309037 0-98.38490863v-191.59166421c0-41.81358617-27.70311902-72.75305086-69.38725136-77.28393481-14.7577363-1.55344592-29.64492642-2.20071506-44.53211654-2.58907654-44.66157037-0.9061768-89.32314075 0.64726914-133.8552573 1.68289974-42.71976297 1.03563061-85.43952592 0.25890765-128.02983505 0.9061768-14.88719013 0.25890765-29.25656494 3.49525333-42.33140148 10.48576-17.6057205 9.32067555-28.35038815 23.94895803-33.26963358 43.23757828-0.9061768 3.62470717-0.12945383 8.41449876-4.7897916 10.35630616v302.92195556c2.58907653 7.1199605 2.84798419 14.7577363 5.04869926 22.13660444 7.63777581 26.79694222 25.11404247 43.10812445 51.5226232 50.35753876 8.41449876 2.33016889 17.08790518 2.97743803 25.76131161 2.71853038 1.81235358 0 4.2719763-1.4239921 5.69596839 1.16508445h2.58907655c0.25890765-2.97743803 2.71853037-2.84798419 4.7897916-3.10689186z m-14.75773629-52.55825381c-15.79336691 0-26.79694222-8.54395259-26.66748839-26.53803458 0.51781531-94.88965531 0.25890765-189.77931061 0.12945382-284.79841975 0-15.27555161 9.0617679-23.43114272 23.69005037-23.94895803 96.57255506-3.10689185 193.0156563-0.64726914 289.58821136-1.03563061 8.28504494 0 17.34681283-0.51781531 25.37295012 3.88361481 6.99050667 3.88361482 11.00357531 9.32067555 11.00357531 17.73517432-0.12945383 48.54518518 0 97.09037037 0 145.63555555 0 48.1568237-0.25890765 96.18419358 0.12945382 144.34101729 0.12945383 15.66391309-10.09739852 22.78387358-24.20786568 24.98458864-11.13302914 1.68289975-22.00715061 0-33.01072592-0.12945383-88.67587161-0.25890765-177.3517432-0.12945383-266.02761481-0.12945381z" p-id="3556"></path><path d="M99.6895605 993.82714469c87.76969482-0.12945383 175.66884347-0.12945383 263.43853826 0 12.16865975 0 24.20786569-0.25890765 36.24707161-2.71853038 16.18172839-3.23634569 30.81001086-10.09739852 42.07249382-22.13660444 12.55702124-13.46319803 18.77080494-30.29219555 18.77080495-48.67463901 0.25890765-96.18419358 0.12945383-192.49784098 0.12945383-288.68203456 0-8.15559111-0.51781531-16.05227457-2.58907655-23.94895803-6.86105283-25.76131161-22.3955121-43.62593975-47.50955457-53.46443062-17.21735902-6.73159902-35.34089482-6.47269136-53.07606913-6.86105283-29.90383408-0.64726914-59.80766815-1.16508445-89.71150222 0.64726913-24.59622717 1.55344592-49.45136197 0.38836148-74.17704297 1.29453827-35.7292563 1.16508445-71.58796642 0.38836148-107.44667655 0.25890765-8.28504494 0-16.44063605 0.77672297-24.59622715 2.58907655-23.81950419 5.43706075-42.07249383 17.86462815-52.55825383 40.51904789-3.3657995 7.37886815-3.62470717 15.53445925-6.73159902 22.91332742 4.78979161-1.94180741 3.88361482-6.73159902 4.78979161-10.35630618 4.91924543-19.28862025 15.79336691-33.91690272 33.26963358-43.23757827 13.20429037-6.99050667 27.44421136-10.22685235 42.33140148-10.48576 42.71976297-0.64726914 85.3100721 0.12945383 128.02983507-0.90617678 44.66157037-1.03563061 89.19368691-2.58907653 133.85525728-1.68289975 14.88719013 0.25890765 29.77438025 0.9061768 44.53211653 2.58907653 41.68413235 4.53088395 69.25779753 35.47034864 69.38725137 77.28393482v191.5916642c0 32.75181827 0.12945383 65.63309037 0 98.38490864-0.25890765 34.17581037-20.71261235 60.32548347-53.72333827 68.86943604-10.48576 2.71853037-21.10097383 4.01306864-31.97509532 4.01306865h-266.67488394c-2.84798419 0-5.56651457-0.12945383-8.41449876 0.12945384-2.07126124 0.25890765-4.53088395 0-4.78979161 3.10689184 1.94180741-2.45962272 4.78979161-1.03563061 7.1199605-1.03563062z" p-id="3557"></path><path d="M35.09210075 18.65146469c16.82899753-10.35630617 35.47034864-13.72210569 54.62951506-13.85155951 53.20552297-0.51781531 106.41104592-0.12945383 159.61656888-0.25890765 2.07126124 0 4.66033778 1.55344592 6.34323753-1.16508444-2.20071506 1.29453827-4.66033778 0.64726914-6.99050667 0.64726913-57.99531457 0.38836148-115.99062914-1.03563061-173.9859437 0.77672296-24.46677333 0.77672297-45.17938569 10.48576-60.19602963 30.55110321-8.15559111 10.87412148-11.78029827 23.30168889-12.55702124 36.63543309 2.33016889-3.10689185 1.55344592-6.99050667 2.45962272-10.61521383 5.17815309-17.99408197 14.49882864-32.62236445 30.68055705-42.71976296zM936.60855309 4.54099753c8.54395259-0.38836148 16.95845136 0.64726914 25.2434963 2.71853037 27.1853037 6.99050667 46.2150163 23.04278124 55.40623802 50.22808493 2.07126124 6.2137837 2.33016889 12.81592889 4.27197629 19.0297126v-0.5178153c0.51781531-36.37652543-31.58673383-68.86943605-68.2221669-71.58796643-7.24941431-0.51781531-14.49882864 0.64726914-21.74824297-1.16508445 1.03563061 2.71853037 3.3657995 1.4239921 5.04869926 1.29453828zM84.28455506 993.82714469c-8.67340642 0.25890765-17.34681283-0.38836148-25.76131159-2.71853038-26.40858075-7.24941431-43.88484741-23.56059653-51.52262322-50.35753876-2.07126124-7.37886815-2.33016889-15.01664395-5.04869927-22.13660444 1.4239921 6.86105283 1.03563061 13.98101333 2.71853038 20.84206617 7.1199605 29.51547259 33.01072592 52.55825383 62.91456 54.37060741 7.50832197 0.51781531 15.01664395-0.77672297 22.39551211 1.03563062-1.4239921-2.45962272-3.88361482-1.16508445-5.69596841-1.03563062z" p-id="3558"></path><path d="M636.79348939 712.91233975c-15.92282075 0.25890765-26.40858075 10.74466765-26.40858075 25.89076543V961.20478025c0 15.92282075 11.00357531 26.02021925 26.92639605 25.7613116 16.6995437-0.25890765 27.1853037-8.93231408 27.31475753-25.50240395 0.25890765-74.3064968 0.12945383-148.74244741 0-223.0489442 0-15.53445925-10.87412148-25.76131161-27.83257283-25.50240395zM964.3116721 713.17124741c-12.81592889-2.33016889-30.16274173 6.34323753-30.16274173 23.56059654-0.25890765 37.80051753 0 75.47158124 0 113.27209877v112.62482963c0 2.07126124-0.12945383 4.40143013 0.51781532 6.34323752 4.2719763 12.16865975 18.64135111 20.97152 30.42164937 18.12353582 14.7577363-3.49525333 23.17223506-9.32067555 23.30168889-27.70311902 0.25890765-71.84687408 0.12945383-143.69374815 0.12945383-215.54062222-0.12945383-18.64135111-5.95487605-27.31475753-24.20786568-30.68055704zM844.30797431 790.71408987c-3.3657995-12.16865975-16.82899753-21.74824297-28.60929579-19.5475279-16.05227457 3.10689185-25.11404247 8.54395259-25.2434963 27.05584988-0.38836148 53.20552297-0.12945383 106.54049975-0.12945383 159.74602272 0 17.86462815 7.37886815 25.89076543 22.65441976 28.73874962 14.36937482 2.71853037 31.58673383-5.82542222 31.71618766-24.72568099v-82.20318023-83.49771852c0-1.68289975 0-3.75416098-0.3883615-5.56651458zM808.44926419 554.46085531c-11.26248297 2.45962272-18.12353581 13.20429037-18.1235358 25.63185778V694.5298963c0 16.95845136 5.17815309 27.1853037 23.43114272 30.68055703 13.33374419 2.45962272 31.06891852-6.73159902 30.9394647-23.94895802-0.12945383-20.45370469 0-40.90740939 0-61.4905679 0-19.80643555-0.25890765-39.61287111 0-59.5487605 0.38836148-24.59622717-18.90025876-29.51547259-36.24707162-25.7613116zM654.39920987 557.82665482c-6.34323753-4.40143013-13.07483653-4.2719763-19.93588937-4.2719763-13.59265185 0-23.94895803 10.22685235-23.94895803 23.69005037v33.65799506c0 11.65084445-0.12945383 23.30168889 0 34.95253333 0.12945383 5.95487605 1.68289975 11.26248297 6.34323753 15.92282075 6.73159902 6.73159902 14.49882864 8.67340642 23.56059653 8.41449877 12.81592889-0.38836148 24.3373195-11.52139061 24.33731952-24.20786569 0.12945383-22.91332741 0.25890765-45.69720098-0.12945383-68.61052839 0-7.89668347-3.10689185-14.62828247-10.22685235-19.5475279zM986.18936889 568.83023013c-2.84798419-8.02613728-12.68647506-15.27555161-23.17223506-15.53445927-18.51189728-0.64726914-30.5511032 10.22685235-29.12711111 29.51547261 0.64726914 9.0617679 0.12945383 18.12353581 0.12945381 27.1853037v32.36345678c0 1.94180741 0 3.88361482 0.51781532 5.6959684 4.14252247 13.33374419 16.6995437 20.0653432 30.93946468 18.1235358 14.23992098-2.07126124 22.52496592-10.87412148 22.7838736-25.50240396 0.38836148-20.45370469 0.12945383-41.0368632 0.12945382-61.49056789 0-3.75416098-1.03563061-7.1199605-2.20071506-10.35630617zM304.87387653 182.92837136c-2.45962272-9.45012939-10.22685235-16.44063605-19.93588936-17.73517433-1.68289975-0.25890765-3.49525333-0.51781531-5.17815309-0.5178153-0.77672297 0-1.94180741 0.25890765-2.20071506-1.03563062h-37.28270222c-0.51781531 0.9061768-1.4239921 0.38836148-2.07126125 0.38836148-17.21735902 0-34.43471803-0.12945383-51.65207703 0.12945383-6.2137837 0-12.29811358 1.16508445-17.73517433 4.53088395-5.30760691 3.23634569-8.28504494 8.02613728-9.96794469 13.8515595-0.25890765 1.16508445 0 2.45962272-0.77672297 3.36579952v97.7376395c1.29453827 0.25890765 0.9061768 1.4239921 1.03563064 2.20071506 0.9061768 5.30760691 2.33016889 10.22685235 5.95487603 14.23992099 4.78979161 5.30760691 11.13302914 7.50832197 17.99408198 7.63777581 31.45728 0.12945383 63.04401383 0.12945383 94.50129384 0 4.01306864 0 7.89668347-0.38836148 11.78029826-1.68289977 10.22685235-3.23634569 16.44063605-11.52139061 16.44063605-22.26605826v-93.07730174c0.12945383-2.58907653-0.25890765-5.17815309-0.9061768-7.76722962zM866.05621728 172.96042667c-2.45962272-9.45012939-10.22685235-16.44063605-19.93588938-17.73517432-1.68289975-0.25890765-3.49525333-0.51781531-5.17815308-0.51781532-0.77672297 0-1.94180741 0.25890765-2.20071507-1.03563061h-37.28270222c-0.51781531 0.9061768-1.4239921 0.38836148-2.07126123 0.38836148-17.21735902 0-34.43471803-0.12945383-51.65207705 0.12945383-6.2137837 0-12.29811358 1.16508445-17.73517431 4.53088396-5.30760691 3.23634569-8.28504494 8.02613728-9.96794469 13.85155949-0.25890765 1.16508445 0 2.45962272-0.77672297 3.36579951v97.7376395c1.29453827 0.25890765 0.9061768 1.4239921 1.03563062 2.20071506 0.9061768 5.30760691 2.33016889 10.22685235 5.95487605 14.239921 4.78979161 5.30760691 11.13302914 7.50832197 17.99408197 7.6377758 31.45728 0.12945383 63.04401383 0.12945383 94.50129383 0 4.01306864 0 7.89668347-0.38836148 11.78029828-1.68289975 10.22685235-3.23634569 16.44063605-11.52139061 16.44063605-22.26605827v-93.07730173c0.25890765-2.58907653-0.25890765-5.30760691-0.9061768-7.76722963zM304.09715358 725.0809995c-2.45962272-9.45012939-10.22685235-16.44063605-19.93588939-17.73517432-1.68289975-0.25890765-3.49525333-0.51781531-5.17815308-0.51781531-0.77672297 0-1.94180741 0.25890765-2.20071506-1.03563062h-37.28270222c-0.51781531 0.9061768-1.4239921 0.38836148-2.07126124 0.3883615-17.21735902 0-34.43471803-0.12945383-51.65207704 0.12945382-6.2137837 0-12.29811358 1.16508445-17.73517431 4.53088395-5.30760691 3.23634569-8.28504494 8.02613728-9.96794471 13.85155951-0.25890765 1.16508445 0 2.45962272-0.77672295 3.3657995v97.7376395c1.29453827 0.25890765 0.9061768 1.4239921 1.03563061 2.20071507 0.9061768 5.30760691 2.33016889 10.22685235 5.95487606 14.23992099 4.78979161 5.30760691 11.13302914 7.50832197 17.99408197 7.6377758 31.45728 0.12945383 63.04401383 0.12945383 94.50129383 0 4.01306864 0 7.89668347-0.38836148 11.78029826-1.68289975 10.22685235-3.23634569 16.44063605-11.52139061 16.44063606-22.26605828v-93.07730172c0.12945383-2.58907653-0.25890765-5.17815309-0.90617679-7.76722964z" p-id="3559"></path></svg>