<?xml version="1.0" encoding="utf-8"?>
<svg version="1.1" xmlns:xlink="http://www.w3.org/1999/xlink" width="30px" height="30px" xmlns="http://www.w3.org/2000/svg">
  <g transform="matrix(1 0 0 1 -140 -256 )">
    <path d="M 155 256  C 163.4 256  170 262.6  170 271  C 170 279.4  163.4 286  155 286  C 146.6 286  140 279.4  140 271  C 140 262.6  146.6 256  155 256  Z " fill-rule="nonzero" fill="#ffffff" stroke="none" />
    <path d="M 155 256.5  C 163.12 256.5  169.5 262.88  169.5 271  C 169.5 279.12  163.12 285.5  155 285.5  C 146.88 285.5  140.5 279.12  140.5 271  C 140.5 262.88  146.88 256.5  155 256.5  Z " stroke-width="1" stroke="#797979" fill="none" />
  </g>
</svg>