<?xml version="1.0" encoding="utf-8"?>
<svg version="1.1" xmlns:xlink="http://www.w3.org/1999/xlink" width="28px" height="30px" xmlns="http://www.w3.org/2000/svg">
  <g transform="matrix(1 0 0 1 -136 -1356 )">
    <path d="M 150 1356  C 157.84 1356  164 1362.6  164 1371  C 164 1379.4  157.84 1386  150 1386  C 142.16 1386  136 1379.4  136 1371  C 136 1362.6  142.16 1356  150 1356  Z " fill-rule="nonzero" fill="#ffffff" stroke="none" />
    <path d="M 150 1356.5  C 157.56 1356.5  163.5 1362.88  163.5 1371  C 163.5 1379.12  157.56 1385.5  150 1385.5  C 142.44 1385.5  136.5 1379.12  136.5 1371  C 136.5 1362.88  142.44 1356.5  150 1356.5  Z " stroke-width="1" stroke="#797979" fill="none" />
  </g>
</svg>