<?xml version="1.0" encoding="utf-8"?>
<svg version="1.1" xmlns:xlink="http://www.w3.org/1999/xlink" width="50px" height="50px" xmlns="http://www.w3.org/2000/svg">
  <g transform="matrix(1 0 0 1 -2071 -2394 )">
    <path d="M 34.5377604166667 23.3072916666667  C 35.1236979166667 23.7196180555556  35.4166666666667 24.2838541666667  35.4166666666667 25  C 35.4166666666667 25.7161458333333  35.1236979166667 26.2803819444444  34.5377604166667 26.6927083333333  L 19.9544270833333 37.109375  C 19.2816840277778 37.6085069444444  18.5655381944444 37.6627604166667  17.8059895833333 37.2721354166667  C 17.0464409722222 36.9032118055556  16.6666666666667 36.2847222222222  17 35.4166666666667  L 17 14.5833333333333  C 16.6666666666667 13.7152777777778  17.0464409722222 13.0967881944444  17.8059895833333 12.7278645833333  C 18.5655381944444 12.3372395833333  19.2816840277778 12.3914930555556  19.9544270833333 12.890625  L 34.5377604166667 23.3072916666667  Z M 41.3736979166667 41.3736979166667  C 41.5690104166667 41.1783854166667  41.6666666666667 40.9288194444444  41 40.625  L 41 9.375  C 41.6666666666667 9.07118055555555  41.5690104166667 8.82161458333333  41.3736979166667 8.62630208333333  C 41.1783854166667 8.43098958333333  40.9288194444445 8.33333333333333  40.625 9  L 9.375 9  C 9.07118055555556 8.33333333333333  8.82161458333333 8.43098958333333  8.62630208333333 8.62630208333333  C 8.43098958333333 8.82161458333333  8.33333333333333 9.07118055555555  9 9.375  L 9 40.625  C 8.33333333333333 40.9288194444444  8.43098958333333 41.1783854166667  8.62630208333333 41.3736979166667  C 8.82161458333333 41.5690104166667  9.07118055555556 41.6666666666667  9.375 41  L 40.625 41  C 40.9288194444445 41.6666666666667  41.1783854166667 41.5690104166667  41.3736979166667 41.3736979166667  Z M 47.2493489583333 2.75065104166667  C 49.0831163194444 4.58441840277777  50 6.79253472222222  50 9.375  L 50 40.625  C 50 43.2074652777778  49.0831163194444 45.4155815972222  47.2493489583333 47.2493489583333  C 45.4155815972222 49.0831163194444  43.2074652777778 50  40.625 50  L 9.375 50  C 6.79253472222222 50  4.58441840277778 49.0831163194444  2.75065104166667 47.2493489583333  C 0.916883680555555 45.4155815972222  0 43.2074652777778  0 40.625  L 0 9.375  C 0 6.79253472222222  0.916883680555555 4.58441840277777  2.75065104166667 2.75065104166667  C 4.58441840277778 0.916883680555552  6.79253472222222 0  9.375 0  L 40.625 0  C 43.2074652777778 0  45.4155815972222 0.916883680555552  47.2493489583333 2.75065104166667  Z " fill-rule="nonzero" fill="#000000" stroke="none" transform="matrix(1 0 0 1 2071 2394 )" />
  </g>
</svg>