<?xml version="1.0" encoding="utf-8"?>
<svg version="1.1" xmlns:xlink="http://www.w3.org/1999/xlink" width="375px" height="45px" xmlns="http://www.w3.org/2000/svg">
  <defs>
    <mask fill="white" id="clip17">
      <path d="M 0 45  L 0 0  L 145 0  L 173 0  L 375 0  L 375 45  L 0 45  Z " fill-rule="evenodd" />
    </mask>
  </defs>
  <g transform="matrix(1 0 0 1 -785 -31 )">
    <path d="M 0 45  L 0 0  L 145 0  L 173 0  L 375 0  L 375 45  L 0 45  Z " fill-rule="nonzero" fill="#ffffff" stroke="none" transform="matrix(1 0 0 1 785 31 )" />
    <path d="M 0 45  L 0 0  L 145 0  L 173 0  L 375 0  L 375 45  L 0 45  Z " stroke-width="2" stroke="#797979" fill="none" transform="matrix(1 0 0 1 785 31 )" mask="url(#clip17)" />
  </g>
</svg>