<svg t="1582455398802" class="icon" viewBox="0 0 1024 1024" version="1.1" xmlns="http://www.w3.org/2000/svg" p-id="3662" width="200" height="200"><path d="M511.0661 65.5022c-246.1645 0-446.4415 200.277-446.4415 446.4415 0 246.1645 200.277 446.4415 446.4415 446.4415 246.1655 0 446.4425-200.277 446.4425-446.4415C957.5086 265.7802 757.2316 65.5022 511.0661 65.5022zM511.0661 902.5823c-215.4004 0-390.6365-175.2381-390.6365-390.6386 0-215.4004 175.2361-390.6365 390.6365-390.6365 215.4015 0 390.6365 175.2361 390.6365 390.6365C901.7037 727.3441 726.4676 902.5823 511.0661 902.5823zM734.2889 484.0428H355.2051200000001l119.7855-119.7855c10.8995-10.8995 10.8995-28.5573 0-39.4568-10.9005-10.8995-28.5573-10.8995-39.4557 0L268.118 492.2153c-10.8995 10.9005-10.8995 28.5573 0 39.4568L435.5338 699.0879c5.4487 5.4477 12.588 8.1746 19.7284 8.1746s14.2776-2.7269 19.7284-8.1746c10.8995-10.8995 10.8995-28.5573 0-39.4557L355.2051 539.8467h379.083776c15.4225 0 27.902-12.5071 27.902-27.903C762.1908 496.5222 749.7103 484.0428 734.2889 484.0428z" p-id="3663"></path></svg>