<?xml version="1.0" standalone="no"?><!DOCTYPE svg PUBLIC "-//W3C//DTD SVG 1.1//EN" "http://www.w3.org/Graphics/SVG/1.1/DTD/svg11.dtd"><svg t="1490162727342" class="icon" style="" viewBox="0 0 1024 1024" version="1.1" xmlns="http://www.w3.org/2000/svg" p-id="4180" xmlns:xlink="http://www.w3.org/1999/xlink" width="20" height="20"><defs><style type="text/css"></style></defs><path d="M573.626569 593.659835c-26.913976 0-48.826032-22.064528-48.826032-49.451272 0-27.233248 21.912056-49.297776 48.826032-49.297776 26.907836 0 48.817846 22.064528 48.817846 49.297776C622.444415 571.595306 600.534406 593.659835 573.626569 593.659835M958.995497 628.948549c0-126.957507-113.029286-230.90802-256.287037-239.870136-6.702656-0.366344-13.420661-0.6191-20.134573-0.6191-152.706961 0-276.435936 107.687628-276.435936 240.49026 0 20.027126 2.864234 39.420825 8.205892 57.948807C444.059632 791.735076 552.865733 869.452111 682.573887 869.452111c44.137243 0 85.790922-8.961092 122.718973-25.00244l62.051241 42.404786c0 0 16.544815 11.562337 14.930037-10.698666l-17.534352-66.399269C922.565796 765.735935 958.995497 701.069123 958.995497 628.948549M682.573887 368.431164c5.960759 0 11.800767 0.258896 17.656125 0.511653C677.470659 234.512105 544.41527 131.293255 383.633401 131.293255c-176.701444 0-319.959196 124.737956-319.959196 278.426267 0 85.683475 44.518936 162.278967 114.405633 213.387995l-23.632233 89.158622c0 0-8.074909 29.594015 22.514783 16.300244l88.162946-60.198034c36.682457 12.81077 76.600609 19.904329 118.508068 19.904329 3.604084 0 7.079232-0.25378 10.562567-0.25378-5.098111-19.031449-7.831362-38.799678-7.831362-59.066257C386.364605 485.329571 519.290033 368.431164 682.573887 368.431164M809.019741 593.624019c-26.913976 0-48.826032-22.064528-48.826032-49.451272 0-27.233248 21.912056-49.297776 48.826032-49.297776 26.907836 0 48.817846 22.064528 48.817846 49.297776C857.837586 571.560514 835.927577 593.624019 809.019741 593.624019M233.637178 371.635135c-26.913976 0-48.826032-22.064528-48.826032-49.451272 0-27.233248 21.912056-49.297776 48.826032-49.297776 26.907836 0 48.817846 22.064528 48.817846 49.297776C282.455023 349.570607 260.545014 371.635135 233.637178 371.635135M522.579963 371.59932c-26.913976 0-48.826032-22.064528-48.826032-49.451272 0-27.233248 21.912056-49.297776 48.826032-49.297776 26.907836 0 48.817846 22.064528 48.817846 49.297776C571.397808 349.535815 549.487799 371.59932 522.579963 371.59932" p-id="4181" fill="#999999"></path></svg>