<?xml version="1.0" standalone="no"?><!DOCTYPE svg PUBLIC "-//W3C//DTD SVG 1.1//EN" "http://www.w3.org/Graphics/SVG/1.1/DTD/svg11.dtd"><svg t="1490162793758" class="icon" style="" viewBox="0 0 1024 1024" version="1.1" xmlns="http://www.w3.org/2000/svg" p-id="5176" xmlns:xlink="http://www.w3.org/1999/xlink" width="20" height="20"><defs><style type="text/css"></style></defs><path d="M286.331819 491.645416C293.397748 408.639934 345.113597 338.563926 417.425529 305.282938c25.482371-55.267744 73.101925-123.296117 153.946184-207.090569 8.794293-9.058306 17.025769-17.570167 24.956392-25.745361-27.323299-5.242398-55.513338-8.080026-84.339874-8.080026-136.768967 0-259.107269 61.544705-341.040327 158.399613 10.447956 28.976962 17.927301 50.15633 17.927301 50.15633S223.753575 402.5134 286.331819 491.645416z" p-id="5177" fill="#999999"></path><path d="M379.014708 694.224228c-48.483224-35.252899-82.347496-89.148389-91.14179-151.276379-41.49302-47.76998-84.001159-128.331807-122.901121-259.013125-4.096295-13.850449-7.930623-26.797319-11.57564-39.181371-55.324026 74.360592-88.060615 166.498058-88.060615 266.266319 0 56.114019 10.447956 109.803825 29.353538 159.301146 30.142507 4.173043 51.904137 7.349385 51.904137 7.349385S272.275685 706.120163 379.014708 694.224228z" p-id="5178" fill="#999999"></path><path d="M457.528899 291.264667c17.477047-4.322445 35.592636-6.859221 54.459333-6.859221 42.959418 0 82.987063 12.177344 117.189026 32.905434 61.22441-10.166547 147.632385-7.160073 269.929756 18.717294 9.05933 1.87879 17.74106 3.739161 26.158776 5.54325C872.271832 212.411761 760.533958 113.565499 623.274828 78.348416c-17.851577 20.72809-30.518061 35.236526-30.518061 35.236526S506.350838 198.468191 457.528899 291.264667z" p-id="5179" fill="#999999"></path><path d="M729.90231 572.714803c-13.906731 49.14121-43.974537 91.38636-84.076884 120.833019-21.647019 60.436464-75.807546 138.38579-184.688349 238.304478-7.554046 6.915503-14.732539 13.493316-21.723767 19.863397 23.64042 3.870144 47.88152 5.956665 72.574922 5.956665 105.650225 0 202.654536-36.757159 279.138488-98.076736-1.916653-15.672958-3.043313-25.576515-3.043313-25.576515S782.107299 674.605402 729.90231 572.714803z" p-id="5180" fill="#999999"></path><path d="M601.363795 719.256344c-27.473725 11.800767-57.654095 18.378579-89.375563 18.378579-32.5483 0-63.442938-6.991228-91.480504-19.37528-61.300135 12.008498-149.285025 10.655687-275.268344-14.282285-14.057157-2.799766-27.210735-5.412266-39.726793-7.950066 56.714699 124.517945 168.903851 218.310098 305.07316 249.937422 17.739013-18.229177 30.104645-30.801517 30.104645-30.801517S551.075459 819.249733 601.363795 719.256344z" p-id="5181" fill="#999999"></path><path d="M663.566486 342.904791c45.928029 41.49302 75.05644 101.308337 75.05644 168.114882 0 5.01727-0.451278 9.921977-0.75213 14.864546 36.305881 53.538357 65.847707 146.202826 75.958996 302.685787 0.26299 3.758604 0.488117 7.291057 0.676405 10.917654 88.623433-81.594343 144.135748-198.538799 144.135748-328.467987 0-49.968042-8.343015-97.944729-23.452131-142.80238-22.6253-3.494591-37.84698-5.918803-37.84698-5.918803S770.755764 331.949274 663.566486 342.904791z" p-id="5182" fill="#999999"></path></svg>