<svg t="1591089377950" class="icon" viewBox="0 0 1024 1024" version="1.1" xmlns="http://www.w3.org/2000/svg" p-id="2583" width="200" height="200"><path d="M512 0a43.52 43.52 0 1 1 0 87.04A425.053 425.053 0 0 0 86.947 512.093c0 234.682 190.278 424.914 425.006 424.914a425.053 425.053 0 0 0 425.054-425.054 43.52 43.52 0 1 1 86.946 0c0 282.764-229.236 512-512 512C229.236 1023.953 0 794.717 0 511.953 0 229.236 229.236 0 512 0z m263.494 217.693a42.822 42.822 0 0 1 60.788-60.137l74.938 75.032a57.81 57.81 0 0 1 0 81.827l-74.938 74.938a42.729 42.729 0 0 1-60.416-60.51l12.707-12.66H733.37c-150.109 0-201.076 63.907-201.076 257.164A42.682 42.682 0 0 1 459.31 603.6a42.682 42.682 0 0 1-12.475-30.254c0-238.964 87.227-342.621 286.534-342.621h55.157l-13.033-13.033z" fill="#707070" p-id="2584"></path></svg>