<?xml version="1.0" encoding="utf-8"?>
<svg version="1.1" xmlns:xlink="http://www.w3.org/1999/xlink" width="12px" height="12px" viewBox="1778 350  12 12" xmlns="http://www.w3.org/2000/svg">
  <path d="M 1784 350  C 1787.36 350  1790 352.64  1790 356  C 1790 359.36  1787.36 362  1784 362  C 1780.64 362  1778 359.36  1778 356  C 1778 352.64  1780.64 350  1784 350  Z " fill-rule="nonzero" fill="#ffffff" stroke="none" />
  <path d="M 1784 350.5  C 1787.08 350.5  1789.5 352.92  1789.5 356  C 1789.5 359.08  1787.08 361.5  1784 361.5  C 1780.92 361.5  1778.5 359.08  1778.5 356  C 1778.5 352.92  1780.92 350.5  1784 350.5  Z " stroke-width="1" stroke="#797979" fill="none" />
  <path d="M 1784 359  C 1782.32 359  1781 357.68  1781 356  C 1781 354.32  1782.32 353  1784 353  C 1785.68 353  1787 354.32  1787 356  C 1787 357.68  1785.68 359  1784 359  " fill-rule="nonzero" fill="#797979" stroke="none" />
</svg>