<?xml version="1.0" encoding="utf-8"?>
<svg version="1.1" xmlns:xlink="http://www.w3.org/1999/xlink" width="12px" height="12px" viewBox="2191 364  12 12" xmlns="http://www.w3.org/2000/svg">
  <path d="M 2197 364  C 2200.36 364  2203 366.64  2203 370  C 2203 373.36  2200.36 376  2197 376  C 2193.64 376  2191 373.36  2191 370  C 2191 366.64  2193.64 364  2197 364  Z " fill-rule="nonzero" fill="#ffffff" stroke="none" />
  <path d="M 2197 364.5  C 2200.08 364.5  2202.5 366.92  2202.5 370  C 2202.5 373.08  2200.08 375.5  2197 375.5  C 2193.92 375.5  2191.5 373.08  2191.5 370  C 2191.5 366.92  2193.92 364.5  2197 364.5  Z " stroke-width="1" stroke="#797979" fill="none" />
  <path d="M 2197 373  C 2195.32 373  2194 371.68  2194 370  C 2194 368.32  2195.32 367  2197 367  C 2198.68 367  2200 368.32  2200 370  C 2200 371.68  2198.68 373  2197 373  " fill-rule="nonzero" fill="#797979" stroke="none" />
</svg>