<?xml version="1.0" encoding="utf-8"?>
<svg version="1.1" xmlns:xlink="http://www.w3.org/1999/xlink" width="12px" height="12px" viewBox="2191 441  12 12" xmlns="http://www.w3.org/2000/svg">
  <path d="M 2197 441  C 2200.36 441  2203 443.64  2203 447  C 2203 450.36  2200.36 453  2197 453  C 2193.64 453  2191 450.36  2191 447  C 2191 443.64  2193.64 441  2197 441  Z " fill-rule="nonzero" fill="#ffffff" stroke="none" />
  <path d="M 2197 441.5  C 2200.08 441.5  2202.5 443.92  2202.5 447  C 2202.5 450.08  2200.08 452.5  2197 452.5  C 2193.92 452.5  2191.5 450.08  2191.5 447  C 2191.5 443.92  2193.92 441.5  2197 441.5  Z " stroke-width="1" stroke="#797979" fill="none" />
  <path d="M 2197 450  C 2195.32 450  2194 448.68  2194 447  C 2194 445.32  2195.32 444  2197 444  C 2198.68 444  2200 445.32  2200 447  C 2200 448.68  2198.68 450  2197 450  " fill-rule="nonzero" fill="#797979" stroke="none" />
</svg>