<?xml version="1.0" encoding="utf-8"?>
<svg version="1.1" xmlns:xlink="http://www.w3.org/1999/xlink" width="12px" height="12px" viewBox="3035 350  12 12" xmlns="http://www.w3.org/2000/svg">
  <path d="M 3041 350  C 3044.36 350  3047 352.64  3047 356  C 3047 359.36  3044.36 362  3041 362  C 3037.64 362  3035 359.36  3035 356  C 3035 352.64  3037.64 350  3041 350  Z " fill-rule="nonzero" fill="#ffffff" stroke="none" />
  <path d="M 3041 350.5  C 3044.08 350.5  3046.5 352.92  3046.5 356  C 3046.5 359.08  3044.08 361.5  3041 361.5  C 3037.92 361.5  3035.5 359.08  3035.5 356  C 3035.5 352.92  3037.92 350.5  3041 350.5  Z " stroke-width="1" stroke="#797979" fill="none" />
  <path d="M 3041 359  C 3039.32 359  3038 357.68  3038 356  C 3038 354.32  3039.32 353  3041 353  C 3042.68 353  3044 354.32  3044 356  C 3044 357.68  3042.68 359  3041 359  " fill-rule="nonzero" fill="#797979" stroke="none" />
</svg>