<?xml version="1.0" encoding="utf-8"?>
<svg version="1.1" xmlns:xlink="http://www.w3.org/1999/xlink" width="12px" height="12px" viewBox="3035 235  12 12" xmlns="http://www.w3.org/2000/svg">
  <path d="M 3041 235  C 3044.36 235  3047 237.64  3047 241  C 3047 244.36  3044.36 247  3041 247  C 3037.64 247  3035 244.36  3035 241  C 3035 237.64  3037.64 235  3041 235  Z " fill-rule="nonzero" fill="#ffffff" stroke="none" />
  <path d="M 3041 235.5  C 3044.08 235.5  3046.5 237.92  3046.5 241  C 3046.5 244.08  3044.08 246.5  3041 246.5  C 3037.92 246.5  3035.5 244.08  3035.5 241  C 3035.5 237.92  3037.92 235.5  3041 235.5  Z " stroke-width="1" stroke="#797979" fill="none" />
  <path d="M 3041 244  C 3039.32 244  3038 242.68  3038 241  C 3038 239.32  3039.32 238  3041 238  C 3042.68 238  3044 239.32  3044 241  C 3044 242.68  3042.68 244  3041 244  " fill-rule="nonzero" fill="#797979" stroke="none" />
</svg>