<?xml version="1.0" encoding="utf-8"?>
<svg version="1.1" xmlns:xlink="http://www.w3.org/1999/xlink" width="12px" height="12px" viewBox="530 235  12 12" xmlns="http://www.w3.org/2000/svg">
  <path d="M 536 235  C 539.36 235  542 237.64  542 241  C 542 244.36  539.36 247  536 247  C 532.64 247  530 244.36  530 241  C 530 237.64  532.64 235  536 235  Z " fill-rule="nonzero" fill="#ffffff" stroke="none" />
  <path d="M 536 235.5  C 539.08 235.5  541.5 237.92  541.5 241  C 541.5 244.08  539.08 246.5  536 246.5  C 532.92 246.5  530.5 244.08  530.5 241  C 530.5 237.92  532.92 235.5  536 235.5  Z " stroke-width="1" stroke="#797979" fill="none" />
  <path d="M 536 244  C 534.32 244  533 242.68  533 241  C 533 239.32  534.32 238  536 238  C 537.68 238  539 239.32  539 241  C 539 242.68  537.68 244  536 244  " fill-rule="nonzero" fill="#797979" stroke="none" />
</svg>