<?xml version="1.0" encoding="utf-8"?>
<svg version="1.1" xmlns:xlink="http://www.w3.org/1999/xlink" width="12px" height="12px" viewBox="530 350  12 12" xmlns="http://www.w3.org/2000/svg">
  <path d="M 536 350  C 539.36 350  542 352.64  542 356  C 542 359.36  539.36 362  536 362  C 532.64 362  530 359.36  530 356  C 530 352.64  532.64 350  536 350  Z " fill-rule="nonzero" fill="#ffffff" stroke="none" />
  <path d="M 536 350.5  C 539.08 350.5  541.5 352.92  541.5 356  C 541.5 359.08  539.08 361.5  536 361.5  C 532.92 361.5  530.5 359.08  530.5 356  C 530.5 352.92  532.92 350.5  536 350.5  Z " stroke-width="1" stroke="#797979" fill="none" />
  <path d="M 536 359  C 534.32 359  533 357.68  533 356  C 533 354.32  534.32 353  536 353  C 537.68 353  539 354.32  539 356  C 539 357.68  537.68 359  536 359  " fill-rule="nonzero" fill="#797979" stroke="none" />
</svg>