<?xml version="1.0" encoding="utf-8"?>
<svg version="1.1" xmlns:xlink="http://www.w3.org/1999/xlink" width="12px" height="12px" viewBox="2191 263  12 12" xmlns="http://www.w3.org/2000/svg">
  <path d="M 2197 263  C 2200.36 263  2203 265.64  2203 269  C 2203 272.36  2200.36 275  2197 275  C 2193.64 275  2191 272.36  2191 269  C 2191 265.64  2193.64 263  2197 263  Z " fill-rule="nonzero" fill="#ffffff" stroke="none" />
  <path d="M 2197 263.5  C 2200.08 263.5  2202.5 265.92  2202.5 269  C 2202.5 272.08  2200.08 274.5  2197 274.5  C 2193.92 274.5  2191.5 272.08  2191.5 269  C 2191.5 265.92  2193.92 263.5  2197 263.5  Z " stroke-width="1" stroke="#797979" fill="none" />
  <path d="M 2197 272  C 2195.32 272  2194 270.68  2194 269  C 2194 267.32  2195.32 266  2197 266  C 2198.68 266  2200 267.32  2200 269  C 2200 270.68  2198.68 272  2197 272  " fill-rule="nonzero" fill="#797979" stroke="none" />
</svg>