<?xml version="1.0" encoding="utf-8"?>
<svg version="1.1" xmlns:xlink="http://www.w3.org/1999/xlink" width="12px" height="12px" viewBox="2191 405  12 12" xmlns="http://www.w3.org/2000/svg">
  <path d="M 2197 405  C 2200.36 405  2203 407.64  2203 411  C 2203 414.36  2200.36 417  2197 417  C 2193.64 417  2191 414.36  2191 411  C 2191 407.64  2193.64 405  2197 405  Z " fill-rule="nonzero" fill="#ffffff" stroke="none" />
  <path d="M 2197 405.5  C 2200.08 405.5  2202.5 407.92  2202.5 411  C 2202.5 414.08  2200.08 416.5  2197 416.5  C 2193.92 416.5  2191.5 414.08  2191.5 411  C 2191.5 407.92  2193.92 405.5  2197 405.5  Z " stroke-width="1" stroke="#797979" fill="none" />
  <path d="M 2197 414  C 2195.32 414  2194 412.68  2194 411  C 2194 409.32  2195.32 408  2197 408  C 2198.68 408  2200 409.32  2200 411  C 2200 412.68  2198.68 414  2197 414  " fill-rule="nonzero" fill="#797979" stroke="none" />
</svg>