<?xml version="1.0" encoding="utf-8"?>
<svg version="1.1" xmlns:xlink="http://www.w3.org/1999/xlink" width="12px" height="12px" viewBox="2193 313  12 12" xmlns="http://www.w3.org/2000/svg">
  <path d="M 2199 313  C 2202.36 313  2205 315.64  2205 319  C 2205 322.36  2202.36 325  2199 325  C 2195.64 325  2193 322.36  2193 319  C 2193 315.64  2195.64 313  2199 313  Z " fill-rule="nonzero" fill="#ffffff" stroke="none" />
  <path d="M 2199 313.5  C 2202.08 313.5  2204.5 315.92  2204.5 319  C 2204.5 322.08  2202.08 324.5  2199 324.5  C 2195.92 324.5  2193.5 322.08  2193.5 319  C 2193.5 315.92  2195.92 313.5  2199 313.5  Z " stroke-width="1" stroke="#797979" fill="none" />
  <path d="M 2199 322  C 2197.32 322  2196 320.68  2196 319  C 2196 317.32  2197.32 316  2199 316  C 2200.68 316  2202 317.32  2202 319  C 2202 320.68  2200.68 322  2199 322  " fill-rule="nonzero" fill="#797979" stroke="none" />
</svg>