<?xml version="1.0" encoding="utf-8"?>
<svg version="1.1" xmlns:xlink="http://www.w3.org/1999/xlink" width="12px" height="12px" viewBox="2619 235  12 12" xmlns="http://www.w3.org/2000/svg">
  <path d="M 2625 235  C 2628.36 235  2631 237.64  2631 241  C 2631 244.36  2628.36 247  2625 247  C 2621.64 247  2619 244.36  2619 241  C 2619 237.64  2621.64 235  2625 235  Z " fill-rule="nonzero" fill="#ffffff" stroke="none" />
  <path d="M 2625 235.5  C 2628.08 235.5  2630.5 237.92  2630.5 241  C 2630.5 244.08  2628.08 246.5  2625 246.5  C 2621.92 246.5  2619.5 244.08  2619.5 241  C 2619.5 237.92  2621.92 235.5  2625 235.5  Z " stroke-width="1" stroke="#797979" fill="none" />
  <path d="M 2625 244  C 2623.32 244  2622 242.68  2622 241  C 2622 239.32  2623.32 238  2625 238  C 2626.68 238  2628 239.32  2628 241  C 2628 242.68  2626.68 244  2625 244  " fill-rule="nonzero" fill="#797979" stroke="none" />
</svg>