<?xml version="1.0" encoding="utf-8"?>
<svg version="1.1" xmlns:xlink="http://www.w3.org/1999/xlink" width="12px" height="12px" viewBox="1362 235  12 12" xmlns="http://www.w3.org/2000/svg">
  <path d="M 1368 235  C 1371.36 235  1374 237.64  1374 241  C 1374 244.36  1371.36 247  1368 247  C 1364.64 247  1362 244.36  1362 241  C 1362 237.64  1364.64 235  1368 235  Z " fill-rule="nonzero" fill="#ffffff" stroke="none" />
  <path d="M 1368 235.5  C 1371.08 235.5  1373.5 237.92  1373.5 241  C 1373.5 244.08  1371.08 246.5  1368 246.5  C 1364.92 246.5  1362.5 244.08  1362.5 241  C 1362.5 237.92  1364.92 235.5  1368 235.5  Z " stroke-width="1" stroke="#797979" fill="none" />
  <path d="M 1368 244  C 1366.32 244  1365 242.68  1365 241  C 1365 239.32  1366.32 238  1368 238  C 1369.68 238  1371 239.32  1371 241  C 1371 242.68  1369.68 244  1368 244  " fill-rule="nonzero" fill="#797979" stroke="none" />
</svg>