<?xml version="1.0" encoding="utf-8"?>
<svg version="1.1" xmlns:xlink="http://www.w3.org/1999/xlink" width="12px" height="12px" viewBox="1362 350  12 12" xmlns="http://www.w3.org/2000/svg">
  <path d="M 1368 350  C 1371.36 350  1374 352.64  1374 356  C 1374 359.36  1371.36 362  1368 362  C 1364.64 362  1362 359.36  1362 356  C 1362 352.64  1364.64 350  1368 350  Z " fill-rule="nonzero" fill="#ffffff" stroke="none" />
  <path d="M 1368 350.5  C 1371.08 350.5  1373.5 352.92  1373.5 356  C 1373.5 359.08  1371.08 361.5  1368 361.5  C 1364.92 361.5  1362.5 359.08  1362.5 356  C 1362.5 352.92  1364.92 350.5  1368 350.5  Z " stroke-width="1" stroke="#797979" fill="none" />
  <path d="M 1368 359  C 1366.32 359  1365 357.68  1365 356  C 1365 354.32  1366.32 353  1368 353  C 1369.68 353  1371 354.32  1371 356  C 1371 357.68  1369.68 359  1368 359  " fill-rule="nonzero" fill="#797979" stroke="none" />
</svg>