<?xml version="1.0" encoding="utf-8"?>
<svg version="1.1" xmlns:xlink="http://www.w3.org/1999/xlink" width="25px" height="21px" xmlns="http://www.w3.org/2000/svg">
  <g transform="matrix(1 0 0 1 -42 -147 )">
    <path d="M 24.6907552083333 17.11171875  C 24.8969184027778 17.31953125  25 17.565625  25 17.85  L 25 19.95  C 25 20.234375  24.8969184027778 20.48046875  24.6907552083333 20.68828125  C 24.4845920138889 20.89609375  24.2404513888889 21  23.9583333333333 21  L 1.04166666666666 21  C 0.759548611111114 21  0.515407986111114 20.89609375  0.309244791666664 20.68828125  C 0.103081597222221 20.48046875  0 20.234375  0 19.95  L 0 17.85  C 0 17.565625  0.103081597222221 17.31953125  0.309244791666664 17.11171875  C 0.515407986111114 16.90390625  0.759548611111114 16.8  1.04166666666666 16.8  L 23.9583333333333 16.8  C 24.2404513888889 16.8  24.4845920138889 16.90390625  24.6907552083333 17.11171875  Z M 24.6907552083333 8.71171875  C 24.8969184027778 8.91953124999999  25 9.16562499999999  25 9.45  L 25 11.55  C 25 11.834375  24.8969184027778 12.08046875  24.6907552083333 12.28828125  C 24.4845920138889 12.49609375  24.2404513888889 12.6  23.9583333333333 12.6  L 1.04166666666666 12.6  C 0.759548611111114 12.6  0.515407986111114 12.49609375  0.309244791666664 12.28828125  C 0.103081597222221 12.08046875  0 11.834375  0 11.55  L 0 9.45  C 0 9.16562499999999  0.103081597222221 8.91953124999999  0.309244791666664 8.71171875  C 0.515407986111114 8.50390625000001  0.759548611111114 8.40000000000001  1.04166666666666 8.40000000000001  L 23.9583333333333 8.40000000000001  C 24.2404513888889 8.40000000000001  24.4845920138889 8.50390625000001  24.6907552083333 8.71171875  Z M 24.6907552083333 0.311718749999997  C 24.8969184027778 0.51953125  25 0.765625  25 1.05  L 25 3.15000000000001  C 25 3.434375  24.8969184027778 3.68046875  24.6907552083333 3.88828125000001  C 24.4845920138889 4.09609374999999  24.2404513888889 4.2  23.9583333333333 4.2  L 1.04166666666666 4.2  C 0.759548611111114 4.2  0.515407986111114 4.09609374999999  0.309244791666664 3.88828125000001  C 0.103081597222221 3.68046875  0 3.434375  0 3.15000000000001  L 0 1.05  C 0 0.765625  0.103081597222221 0.51953125  0.309244791666664 0.311718749999997  C 0.515407986111114 0.103906250000001  0.759548611111114 0  1.04166666666666 0  L 23.9583333333333 0  C 24.2404513888889 0  24.4845920138889 0.103906250000001  24.6907552083333 0.311718749999997  Z " fill-rule="nonzero" fill="#ffffff" stroke="none" transform="matrix(1 0 0 1 42 147 )" />
  </g>
</svg>