<?xml version="1.0" encoding="utf-8"?>
<svg version="1.1" xmlns:xlink="http://www.w3.org/1999/xlink" width="26px" height="26px" xmlns="http://www.w3.org/2000/svg">
  <g transform="matrix(1 0 0 1 -359 -146 )">
    <path d="M 25.4829545454546 9.97159090909091  C 25.8276515151515 10.3162878787879  26 10.7348484848485  26 11.2272727272727  L 26 14.7727272727273  C 26 15.2651515151515  25.8276515151515 15.6837121212121  25.4829545454546 16.0284090909091  C 25.1382575757576 16.3731060606061  24.719696969697 16.5454545454545  24.2272727272727 16.5454545454545  L 16.5454545454546 16.5454545454545  L 16.5454545454546 24.2272727272727  C 16.5454545454546 24.719696969697  16.3731060606061 25.1382575757576  16.0284090909091 25.4829545454545  C 15.6837121212121 25.8276515151515  15.2651515151515 26  14.7727272727273 26  L 11.2272727272727 26  C 10.7348484848485 26  10.3162878787879 25.8276515151515  9.97159090909093 25.4829545454545  C 9.62689393939394 25.1382575757576  9.45454545454544 24.719696969697  9.45454545454544 24.2272727272727  L 9.45454545454544 16.5454545454545  L 1.77272727272731 16.5454545454545  C 1.280303030303 16.5454545454545  0.861742424242436 16.3731060606061  0.517045454545439 16.0284090909091  C 0.172348484848499 15.6837121212121  0 15.2651515151515  0 14.7727272727273  L 0 11.2272727272727  C 0 10.7348484848485  0.172348484848499 10.3162878787879  0.517045454545439 9.97159090909091  C 0.861742424242436 9.62689393939394  1.280303030303 9.45454545454545  1.77272727272731 9.45454545454545  L 9.45454545454544 9.45454545454545  L 9.45454545454544 1.77272727272727  C 9.45454545454544 1.28030303030303  9.62689393939394 0.861742424242422  9.97159090909093 0.517045454545453  C 10.3162878787879 0.172348484848484  10.7348484848485 0  11.2272727272727 0  L 14.7727272727273 0  C 15.2651515151515 0  15.6837121212121 0.172348484848484  16.0284090909091 0.517045454545453  C 16.3731060606061 0.861742424242422  16.5454545454546 1.28030303030303  16.5454545454546 1.77272727272727  L 16.5454545454546 9.45454545454545  L 24.2272727272727 9.45454545454545  C 24.719696969697 9.45454545454545  25.1382575757576 9.62689393939394  25.4829545454546 9.97159090909091  Z " fill-rule="nonzero" fill="#ffffff" stroke="none" transform="matrix(1 0 0 1 359 146 )" />
  </g>
</svg>