<svg t="1591264516226" class="icon" viewBox="0 0 1024 1024" version="1.1" xmlns="http://www.w3.org/2000/svg" p-id="5113" width="200" height="200"><path d="M935.637498 537.999413c-20.87873-41.634565-25.699-62.636191-12.521776-74.939485 19.827284-18.502734 26.286171 5.612268 37.565329-37.456087 11.675157-44.611388-90.779464-58.293853-100.187865 12.48081-41.743806 1.051447-8.343299 1.051447-62.608881 0-6.267716-132.181891-111.67185-176.929831-137.753194-187.335058-27.364929-10.910468-174.280731-28.102307-300.54994 0-126.405761 28.129617-137.753194 187.335058-137.753194 187.335058s-14.611015 2.089239-50.087105 0c-24.005761-80.142099-118.963702-44.74794-112.709641 0 6.267716 44.761595 36.527537 29.153754 50.10076 37.469743 13.559568 8.329644-5.489372 61.748606-25.043553 87.433951-23.432244 30.765062-45.116629 81.466649-25.043552 174.854247 74.693692 118.513082 140.880224 32.267129 150.27497 0 9.394746-32.253474 37.565329-23.92383 62.608881-12.494466 125.176797 57.215095 424.921083 33.878437 475.868463 0 15.648807-10.391572 44.611388-19.622456 62.622536 0 34.083264 37.155674 102.905241 119.905907 150.27497 12.494466 30.642166-69.532044-4.192132-158.208614-25.057208-199.843179zM403.40056 300.700147h206.616136c86.996986 0 125.231418 83.364715 125.231417 124.903694H284.436858c0-48.29828 61.2024-124.903694 118.963702-124.903694zM240.603814 662.903107c-44.952767 0-106.441926-65.435498-106.441926-99.914762S195.637392 538.013068 240.603814 538.013068c44.952767 0 81.398373 27.9521 81.398373 62.44502 0 34.479264-36.445606 62.445019-81.398373 62.445019z m269.252327 0c-82.996026 0-150.27497-11.183571-150.27497-24.975277 0-13.805361 67.278944-24.975277 150.27497-24.975276 82.982371 0 150.27497 11.169916 150.27497 24.975276 0 13.791706-67.292599 24.975277-150.27497 24.975277z m269.238672 0c-44.952767 0-81.398373-27.965755-81.398373-62.445019 0-34.492919 36.445606-62.445019 81.398373-62.44502s106.441926-9.503987 106.441925 24.975277-61.489159 99.914762-106.441925 99.914762z" fill="#ffffff" p-id="5114"></path></svg>