<svg t="1528348557066" class="icon" viewBox="0 0 1024 1024" version="1.1" xmlns="http://www.w3.org/2000/svg" p-id="62394" height="32" width="32"><path d="M837.307506 194.641025 185.609837 194.641025c-31.755238 0-57.502645 25.765827-57.502645 57.502645l0 519.095605c0 31.765471 25.748431 57.512878 57.502645 57.512878l651.697669 0c31.763424 0 57.501622-25.747407 57.501622-57.512878L894.809127 252.143671C894.810151 220.405829 869.07093 194.641025 837.307506 194.641025M855.818091 640.538515 658.864394 469.12654 550.448172 580.752874l49.2681 73.103972L373.29852 456.06813 167.097204 630.207216 167.097204 271.966135c0-21.160949 17.157775-38.334073 38.334073-38.334073l612.05274 0c21.187555 0 38.334073 17.174148 38.334073 38.334073L855.818091 640.538515z" fill="#707070" p-id="62395"></path></svg>