<svg t="1528348708297" class="icon" viewBox="0 0 1024 1024" version="1.1" xmlns="http://www.w3.org/2000/svg" p-id="63172" height="32" width="32"><path d="M511.292 384.659c-76.506 0-138.519 59.54-138.519 132.971 0 73.455 62.013 132.98 138.519 132.98 76.503 0 138.515-59.524 138.515-132.98 0-73.431-62.012-132.971-138.515-132.971z m433.575-134.443c-1.208-5.684-2.151-11.414-2.151-16.767 0 0-106.878-2.697-176.152-28.833-39.535-14.88-70.584-47.364-70.584-47.364 0-24.483-20.673-44.337-46.173-44.337H372.773c-25.499 0-46.17 19.854-46.17 44.337 0 0-29.116 31.94-66.674 46.365-68.18 26.202-181.498 29.833-181.498 29.833 0 5.85-1.294 12.154-2.914 18.354C60.55 259.133 50.29 274.06 50.29 291.29v531.39c0 24.5 20.672 44.36 46.178 44.36h831.062c25.505 0 46.177-19.86 46.177-44.36v-531.39c0-18.583-11.93-34.494-28.841-41.075zM511.292 739.259c-127.506 0-230.867-99.234-230.867-221.628 0-122.391 103.36-221.63 230.867-221.63 127.504 0 230.865 99.239 230.865 221.63-0.001 122.394-103.361 221.628-230.865 221.628z" p-id="63173" fill="#797979"></path></svg>