<svg t="1528348826685" class="icon" viewBox="0 0 1024 1024" version="1.1" xmlns="http://www.w3.org/2000/svg" p-id="64551" height="32" width="32"><path d="M597.704348 573.217391c-40.069565 40.069565-40.069565 83.478261-83.478261 83.478261s-83.478261-40.069565-123.547826-83.478261c-40.069565-43.408696-83.478261-83.478261-83.478261-123.547826s40.069565-40.069565 83.478261-83.478261-83.478261-163.617391-123.547826-163.617391-123.547826 123.547826-123.547826 123.547826c0 83.478261 83.478261 249.321739 163.617391 329.46087s247.095652 163.617391 329.46087 163.617391c0 0 123.547826-83.478261 123.547826-123.547826s-119.095652-164.730435-162.504348-122.434783z m227.060869-309.426087l40.069566-23.373913c8.904348-5.565217 14.469565 0 14.469565 5.565218V367.304348c0 8.904348-5.565217 11.130435-14.469565 5.565217l-40.069566-23.373913c-8.904348-5.565217-14.469565-8.904348-14.469565-16.695652V278.26087c0-5.565217 5.565217-11.130435 14.469565-14.469566z m-65.669565-45.634782h-154.713043c-16.695652 0-28.93913 14.469565-28.939131 28.93913v125.773913c0 16.695652 14.469565 28.93913 28.939131 28.939131h154.713043c16.695652 0 28.93913-14.469565 28.939131-28.939131v-125.773913c-1.113043-14.469565-12.243478-28.93913-28.939131-28.93913z" fill="#797979" p-id="64552"></path></svg>