<?xml version="1.0" encoding="utf-8"?>
<svg version="1.1" xmlns:xlink="http://www.w3.org/1999/xlink" width="100px" height="60px" xmlns="http://www.w3.org/2000/svg">
  <defs>
    <mask fill="white" id="clip33">
      <path d="M 0 60  L 14.5 0  L 41 0  L 100 0  L 82 60  L 55.5 60  L 42 60  L 0 60  Z " fill-rule="evenodd" />
    </mask>
  </defs>
  <g transform="matrix(1 0 0 1 -307 -437 )">
    <path d="M 0 60  L 14.5 0  L 41 0  L 100 0  L 82 60  L 55.5 60  L 42 60  L 0 60  Z " fill-rule="nonzero" fill="#ffffff" stroke="none" transform="matrix(1 0 0 1 307 437 )" />
    <path d="M 0 60  L 14.5 0  L 41 0  L 100 0  L 82 60  L 55.5 60  L 42 60  L 0 60  Z " stroke-width="2" stroke="#797979" fill="none" transform="matrix(1 0 0 1 307 437 )" mask="url(#clip33)" />
  </g>
</svg>