<?xml version="1.0" encoding="utf-8"?>
<svg version="1.1" xmlns:xlink="http://www.w3.org/1999/xlink" width="12px" height="12px" viewBox="116 295  12 12" xmlns="http://www.w3.org/2000/svg">
  <path d="M 122 295  C 125.36 295  128 297.64  128 301  C 128 304.36  125.36 307  122 307  C 118.64 307  116 304.36  116 301  C 116 297.64  118.64 295  122 295  Z " fill-rule="nonzero" fill="#ffffff" stroke="none" />
  <path d="M 122 295.5  C 125.08 295.5  127.5 297.92  127.5 301  C 127.5 304.08  125.08 306.5  122 306.5  C 118.92 306.5  116.5 304.08  116.5 301  C 116.5 297.92  118.92 295.5  122 295.5  Z " stroke-width="1" stroke="#797979" fill="none" />
  <path d="M 122 304  C 120.32 304  119 302.68  119 301  C 119 299.32  120.32 298  122 298  C 123.68 298  125 299.32  125 301  C 125 302.68  123.68 304  122 304  " fill-rule="nonzero" fill="#797979" stroke="none" />
</svg>