<?xml version="1.0" encoding="utf-8"?>
<svg version="1.1" xmlns:xlink="http://www.w3.org/1999/xlink" width="19px" height="19px" xmlns="http://www.w3.org/2000/svg">
  <g transform="matrix(1 0 0 1 -1379 -211 )">
    <path d="M 1388.5 211  C 1393.82 211  1398 215.18  1398 220.5  C 1398 225.82  1393.82 230  1388.5 230  C 1383.18 230  1379 225.82  1379 220.5  C 1379 215.18  1383.18 211  1388.5 211  Z " fill-rule="nonzero" fill="#ffffff" stroke="none" />
    <path d="M 1388.5 211.5  C 1393.54 211.5  1397.5 215.46  1397.5 220.5  C 1397.5 225.54  1393.54 229.5  1388.5 229.5  C 1383.46 229.5  1379.5 225.54  1379.5 220.5  C 1379.5 215.46  1383.46 211.5  1388.5 211.5  Z " stroke-width="1" stroke="#797979" fill="none" />
  </g>
</svg>