<?xml version="1.0" encoding="utf-8"?>
<svg version="1.1" xmlns:xlink="http://www.w3.org/1999/xlink" width="12px" height="12px" viewBox="1022 284  12 12" xmlns="http://www.w3.org/2000/svg">
  <path d="M 1028 284  C 1031.36 284  1034 286.64  1034 290  C 1034 293.36  1031.36 296  1028 296  C 1024.64 296  1022 293.36  1022 290  C 1022 286.64  1024.64 284  1028 284  Z " fill-rule="nonzero" fill="#ffffff" stroke="none" />
  <path d="M 1028 284.5  C 1031.08 284.5  1033.5 286.92  1033.5 290  C 1033.5 293.08  1031.08 295.5  1028 295.5  C 1024.92 295.5  1022.5 293.08  1022.5 290  C 1022.5 286.92  1024.92 284.5  1028 284.5  Z " stroke-width="1" stroke="#797979" fill="none" />
  <path d="M 1028 293  C 1026.32 293  1025 291.68  1025 290  C 1025 288.32  1026.32 287  1028 287  C 1029.68 287  1031 288.32  1031 290  C 1031 291.68  1029.68 293  1028 293  " fill-rule="nonzero" fill="#797979" stroke="none" />
</svg>