<?xml version="1.0" encoding="utf-8"?>
<svg version="1.1" xmlns:xlink="http://www.w3.org/1999/xlink" width="12px" height="12px" viewBox="791 1633  12 12" xmlns="http://www.w3.org/2000/svg">
  <path d="M 797 1633  C 800.36 1633  803 1635.64  803 1639  C 803 1642.36  800.36 1645  797 1645  C 793.64 1645  791 1642.36  791 1639  C 791 1635.64  793.64 1633  797 1633  Z " fill-rule="nonzero" fill="#ffffff" stroke="none" />
  <path d="M 797 1633.5  C 800.08 1633.5  802.5 1635.92  802.5 1639  C 802.5 1642.08  800.08 1644.5  797 1644.5  C 793.92 1644.5  791.5 1642.08  791.5 1639  C 791.5 1635.92  793.92 1633.5  797 1633.5  Z " stroke-width="1" stroke="#797979" fill="none" />
  <path d="M 797 1642  C 795.32 1642  794 1640.68  794 1639  C 794 1637.32  795.32 1636  797 1636  C 798.68 1636  800 1637.32  800 1639  C 800 1640.68  798.68 1642  797 1642  " fill-rule="nonzero" fill="#797979" stroke="none" />
</svg>