<?xml version="1.0" encoding="utf-8"?>
<svg version="1.1" xmlns:xlink="http://www.w3.org/1999/xlink" width="19px" height="19px" xmlns="http://www.w3.org/2000/svg">
  <g transform="matrix(1 0 0 1 -793 -133 )">
    <path d="M 802.5 133  C 807.82 133  812 137.18  812 142.5  C 812 147.82  807.82 152  802.5 152  C 797.18 152  793 147.82  793 142.5  C 793 137.18  797.18 133  802.5 133  Z " fill-rule="nonzero" fill="#ffffff" stroke="none" />
    <path d="M 802.5 133.5  C 807.54 133.5  811.5 137.46  811.5 142.5  C 811.5 147.54  807.54 151.5  802.5 151.5  C 797.46 151.5  793.5 147.54  793.5 142.5  C 793.5 137.46  797.46 133.5  802.5 133.5  Z " stroke-width="1" stroke="#797979" fill="none" />
  </g>
</svg>