<?xml version="1.0" encoding="utf-8"?>
<svg version="1.1" xmlns:xlink="http://www.w3.org/1999/xlink" width="12px" height="12px" viewBox="791 1710  12 12" xmlns="http://www.w3.org/2000/svg">
  <path d="M 797 1710  C 800.36 1710  803 1712.64  803 1716  C 803 1719.36  800.36 1722  797 1722  C 793.64 1722  791 1719.36  791 1716  C 791 1712.64  793.64 1710  797 1710  Z " fill-rule="nonzero" fill="#ffffff" stroke="none" />
  <path d="M 797 1710.5  C 800.08 1710.5  802.5 1712.92  802.5 1716  C 802.5 1719.08  800.08 1721.5  797 1721.5  C 793.92 1721.5  791.5 1719.08  791.5 1716  C 791.5 1712.92  793.92 1710.5  797 1710.5  Z " stroke-width="1" stroke="#797979" fill="none" />
  <path d="M 797 1719  C 795.32 1719  794 1717.68  794 1716  C 794 1714.32  795.32 1713  797 1713  C 798.68 1713  800 1714.32  800 1716  C 800 1717.68  798.68 1719  797 1719  " fill-rule="nonzero" fill="#797979" stroke="none" />
</svg>