<?xml version="1.0" encoding="utf-8"?>
<svg version="1.1" xmlns:xlink="http://www.w3.org/1999/xlink" width="30px" height="30px" xmlns="http://www.w3.org/2000/svg">
  <g transform="matrix(1 0 0 1 -2073 -262 )">
    <path d="M 2088 262  C 2096.4 262  2103 268.6  2103 277  C 2103 285.4  2096.4 292  2088 292  C 2079.6 292  2073 285.4  2073 277  C 2073 268.6  2079.6 262  2088 262  Z " fill-rule="nonzero" fill="#ffffff" stroke="none" />
    <path d="M 2088 262.5  C 2096.12 262.5  2102.5 268.88  2102.5 277  C 2102.5 285.12  2096.12 291.5  2088 291.5  C 2079.88 291.5  2073.5 285.12  2073.5 277  C 2073.5 268.88  2079.88 262.5  2088 262.5  Z " stroke-width="1" stroke="#797979" fill="none" />
  </g>
</svg>