<?xml version="1.0" encoding="utf-8"?>
<svg version="1.1" xmlns:xlink="http://www.w3.org/1999/xlink" width="12px" height="12px" viewBox="1022 902  12 12" xmlns="http://www.w3.org/2000/svg">
  <path d="M 1028 902  C 1031.36 902  1034 904.64  1034 908  C 1034 911.36  1031.36 914  1028 914  C 1024.64 914  1022 911.36  1022 908  C 1022 904.64  1024.64 902  1028 902  Z " fill-rule="nonzero" fill="#ffffff" stroke="none" />
  <path d="M 1028 902.5  C 1031.08 902.5  1033.5 904.92  1033.5 908  C 1033.5 911.08  1031.08 913.5  1028 913.5  C 1024.92 913.5  1022.5 911.08  1022.5 908  C 1022.5 904.92  1024.92 902.5  1028 902.5  Z " stroke-width="1" stroke="#797979" fill="none" />
  <path d="M 1028 911  C 1026.32 911  1025 909.68  1025 908  C 1025 906.32  1026.32 905  1028 905  C 1029.68 905  1031 906.32  1031 908  C 1031 909.68  1029.68 911  1028 911  " fill-rule="nonzero" fill="#797979" stroke="none" />
</svg>