<?xml version="1.0" encoding="utf-8"?>
<svg version="1.1" xmlns:xlink="http://www.w3.org/1999/xlink" width="12px" height="12px" viewBox="881 902.5  12 12" xmlns="http://www.w3.org/2000/svg">
  <path d="M 887 902.5  C 890.36 902.5  893 905.14  893 908.5  C 893 911.86  890.36 914.5  887 914.5  C 883.64 914.5  881 911.86  881 908.5  C 881 905.14  883.64 902.5  887 902.5  Z " fill-rule="nonzero" fill="#ffffff" stroke="none" />
  <path d="M 887 903  C 890.08 903  892.5 905.42  892.5 908.5  C 892.5 911.58  890.08 914  887 914  C 883.92 914  881.5 911.58  881.5 908.5  C 881.5 905.42  883.92 903  887 903  Z " stroke-width="1" stroke="#797979" fill="none" />
  <path d="M 887 911.5  C 885.32 911.5  884 910.18  884 908.5  C 884 906.82  885.32 905.5  887 905.5  C 888.68 905.5  890 906.82  890 908.5  C 890 910.18  888.68 911.5  887 911.5  " fill-rule="nonzero" fill="#797979" stroke="none" />
</svg>