<?xml version="1.0" encoding="utf-8"?>
<svg version="1.1" xmlns:xlink="http://www.w3.org/1999/xlink" width="12px" height="12px" viewBox="791 1421  12 12" xmlns="http://www.w3.org/2000/svg">
  <path d="M 797 1421  C 800.36 1421  803 1423.64  803 1427  C 803 1430.36  800.36 1433  797 1433  C 793.64 1433  791 1430.36  791 1427  C 791 1423.64  793.64 1421  797 1421  Z " fill-rule="nonzero" fill="#ffffff" stroke="none" />
  <path d="M 797 1421.5  C 800.08 1421.5  802.5 1423.92  802.5 1427  C 802.5 1430.08  800.08 1432.5  797 1432.5  C 793.92 1432.5  791.5 1430.08  791.5 1427  C 791.5 1423.92  793.92 1421.5  797 1421.5  Z " stroke-width="1" stroke="#797979" fill="none" />
  <path d="M 797 1430  C 795.32 1430  794 1428.68  794 1427  C 794 1425.32  795.32 1424  797 1424  C 798.68 1424  800 1425.32  800 1427  C 800 1428.68  798.68 1430  797 1430  " fill-rule="nonzero" fill="#797979" stroke="none" />
</svg>