<?xml version="1.0" encoding="utf-8"?>
<svg version="1.1" xmlns:xlink="http://www.w3.org/1999/xlink" width="12px" height="12px" viewBox="791 1599  12 12" xmlns="http://www.w3.org/2000/svg">
  <path d="M 797 1599  C 800.36 1599  803 1601.64  803 1605  C 803 1608.36  800.36 1611  797 1611  C 793.64 1611  791 1608.36  791 1605  C 791 1601.64  793.64 1599  797 1599  Z " fill-rule="nonzero" fill="#ffffff" stroke="none" />
  <path d="M 797 1599.5  C 800.08 1599.5  802.5 1601.92  802.5 1605  C 802.5 1608.08  800.08 1610.5  797 1610.5  C 793.92 1610.5  791.5 1608.08  791.5 1605  C 791.5 1601.92  793.92 1599.5  797 1599.5  Z " stroke-width="1" stroke="#797979" fill="none" />
  <path d="M 797 1608  C 795.32 1608  794 1606.68  794 1605  C 794 1603.32  795.32 1602  797 1602  C 798.68 1602  800 1603.32  800 1605  C 800 1606.68  798.68 1608  797 1608  " fill-rule="nonzero" fill="#797979" stroke="none" />
</svg>