<?xml version="1.0" encoding="utf-8"?>
<svg version="1.1" xmlns:xlink="http://www.w3.org/1999/xlink" width="12px" height="12px" viewBox="791 1563  12 12" xmlns="http://www.w3.org/2000/svg">
  <path d="M 797 1563  C 800.36 1563  803 1565.64  803 1569  C 803 1572.36  800.36 1575  797 1575  C 793.64 1575  791 1572.36  791 1569  C 791 1565.64  793.64 1563  797 1563  Z " fill-rule="nonzero" fill="#ffffff" stroke="none" />
  <path d="M 797 1563.5  C 800.08 1563.5  802.5 1565.92  802.5 1569  C 802.5 1572.08  800.08 1574.5  797 1574.5  C 793.92 1574.5  791.5 1572.08  791.5 1569  C 791.5 1565.92  793.92 1563.5  797 1563.5  Z " stroke-width="1" stroke="#797979" fill="none" />
  <path d="M 797 1572  C 795.32 1572  794 1570.68  794 1569  C 794 1567.32  795.32 1566  797 1566  C 798.68 1566  800 1567.32  800 1569  C 800 1570.68  798.68 1572  797 1572  " fill-rule="nonzero" fill="#797979" stroke="none" />
</svg>