<?xml version="1.0" encoding="utf-8"?>
<svg version="1.1" xmlns:xlink="http://www.w3.org/1999/xlink" width="12px" height="12px" viewBox="1022 2795  12 12" xmlns="http://www.w3.org/2000/svg">
  <path d="M 1028 2795  C 1031.36 2795  1034 2797.64  1034 2801  C 1034 2804.36  1031.36 2807  1028 2807  C 1024.64 2807  1022 2804.36  1022 2801  C 1022 2797.64  1024.64 2795  1028 2795  Z " fill-rule="nonzero" fill="#ffffff" stroke="none" />
  <path d="M 1028 2795.5  C 1031.08 2795.5  1033.5 2797.92  1033.5 2801  C 1033.5 2804.08  1031.08 2806.5  1028 2806.5  C 1024.92 2806.5  1022.5 2804.08  1022.5 2801  C 1022.5 2797.92  1024.92 2795.5  1028 2795.5  Z " stroke-width="1" stroke="#797979" fill="none" />
  <path d="M 1028 2804  C 1026.32 2804  1025 2802.68  1025 2801  C 1025 2799.32  1026.32 2798  1028 2798  C 1029.68 2798  1031 2799.32  1031 2801  C 1031 2802.68  1029.68 2804  1028 2804  " fill-rule="nonzero" fill="#797979" stroke="none" />
</svg>