<?xml version="1.0" encoding="utf-8"?>
<svg version="1.1" xmlns:xlink="http://www.w3.org/1999/xlink" width="12px" height="12px" viewBox="881 2795.5  12 12" xmlns="http://www.w3.org/2000/svg">
  <path d="M 887 2795.5  C 890.36 2795.5  893 2798.14  893 2801.5  C 893 2804.86  890.36 2807.5  887 2807.5  C 883.64 2807.5  881 2804.86  881 2801.5  C 881 2798.14  883.64 2795.5  887 2795.5  Z " fill-rule="nonzero" fill="#ffffff" stroke="none" />
  <path d="M 887 2796  C 890.08 2796  892.5 2798.42  892.5 2801.5  C 892.5 2804.58  890.08 2807  887 2807  C 883.92 2807  881.5 2804.58  881.5 2801.5  C 881.5 2798.42  883.92 2796  887 2796  Z " stroke-width="1" stroke="#797979" fill="none" />
  <path d="M 887 2804.5  C 885.32 2804.5  884 2803.18  884 2801.5  C 884 2799.82  885.32 2798.5  887 2798.5  C 888.68 2798.5  890 2799.82  890 2801.5  C 890 2803.18  888.68 2804.5  887 2804.5  " fill-rule="nonzero" fill="#797979" stroke="none" />
</svg>