<?xml version="1.0" encoding="utf-8"?>
<svg version="1.1" xmlns:xlink="http://www.w3.org/1999/xlink" width="18px" height="18px" xmlns="http://www.w3.org/2000/svg">
  <g transform="matrix(1 0 0 1 -339 -124 )">
    <path d="M 348 124  C 353.04 124  357 127.96  357 133  C 357 138.04  353.04 142  348 142  C 342.96 142  339 138.04  339 133  C 339 127.96  342.96 124  348 124  Z " fill-rule="nonzero" fill="#ffffff" stroke="none" />
    <path d="M 348 124.5  C 352.76 124.5  356.5 128.24  356.5 133  C 356.5 137.76  352.76 141.5  348 141.5  C 343.24 141.5  339.5 137.76  339.5 133  C 339.5 128.24  343.24 124.5  348 124.5  Z " stroke-width="1" stroke="#797979" fill="none" />
  </g>
</svg>