<?xml version="1.0" encoding="utf-8"?>
<svg version="1.1" xmlns:xlink="http://www.w3.org/1999/xlink" width="25px" height="25px" xmlns="http://www.w3.org/2000/svg">
  <g transform="matrix(1 0 0 1 -24 -308 )">
    <path d="M 36.5 308  C 43.5 308  49 313.5  49 320.5  C 49 327.5  43.5 333  36.5 333  C 29.5 333  24 327.5  24 320.5  C 24 313.5  29.5 308  36.5 308  Z " fill-rule="nonzero" fill="#ffffff" stroke="none" />
    <path d="M 36.5 308.5  C 43.22 308.5  48.5 313.78  48.5 320.5  C 48.5 327.22  43.22 332.5  36.5 332.5  C 29.78 332.5  24.5 327.22  24.5 320.5  C 24.5 313.78  29.78 308.5  36.5 308.5  Z " stroke-width="1" stroke="#797979" fill="none" />
  </g>
</svg>