<?xml version="1.0" standalone="no"?><!DOCTYPE svg PUBLIC "-//W3C//DTD SVG 1.1//EN" "http://www.w3.org/Graphics/SVG/1.1/DTD/svg11.dtd"><svg xmlns:xlink="http://www.w3.org/1999/xlink" xmlns="http://www.w3.org/2000/svg" version="1.1" width="200" height="200" viewBox="0 0 200 200"><defs><style type="text/css"><![CDATA[
@font-face {
  font-family: "ifont";
  src: url("//at.alicdn.com/t/font_1442373896_4754455.eot?#iefix") format("embedded-opentype"), url("//at.alicdn.com/t/font_1442373896_4754455.woff") format("woff"), url("//at.alicdn.com/t/font_1442373896_4754455.ttf") format("truetype"), url("//at.alicdn.com/t/font_1442373896_4754455.svg#ifont") format("svg");
}

]]></style></defs><g class="transform-group"><g transform="scale(0.1953125, 0.1953125)"><path d="M832 96.00086l-640 0c-52.9288 0-96.00086 43.07206-96.00086 96.00086l0 640c0 52.92708 43.07206 95.99914 96.00086 95.99914l640 0c52.92708 0 95.99914-43.07206 95.99914-95.99914l0-640C928.00086 139.0712 884.9288 96.00086 832 96.00086zM727.231286 438.432254 471.00766 697.439161c-0.063647 0.063647-0.192662 0.096331-0.25631 0.192662-0.096331 0.063647-0.096331 0.192662-0.192662 0.25631-2.048757 1.983389-4.575729 3.19957-6.944443 4.544765-1.183497 0.672598-2.143368 1.696116-3.392232 2.176052-3.839484 1.536138-7.904314 2.33603-11.967424 2.33603-4.095794 0-8.224271-0.799892-12.096439-2.399677-1.279828-0.543583-2.303346-1.632469-3.519527-2.303346-2.368714-1.343475-4.832039-2.528692-6.880796-4.544765-0.063647-0.063647-0.096331-0.192662-0.159978-0.25631-0.063647-0.096331-0.192662-0.096331-0.25631-0.192662l-126.016611-129.503454c-12.320065-12.672705-12.032791-32.928047 0.639914-45.248112 12.672705-12.287381 32.895364-12.063755 45.248112 0.639914l103.26354 106.112189 233.279613-235.808305c12.416396-12.576374 32.704421-12.672705 45.248112-0.25631C739.520387 405.631501 739.647682 425.888563 727.231286 438.432254z" fill="#272636"></path></g></g></svg>