<svg t="1590647085770" class="icon" viewBox="0 0 1027 1024" version="1.1" xmlns="http://www.w3.org/2000/svg" p-id="4125" width="200" height="200"><path d="M983.822805 710.671539A511.938743 511.938743 0 1 1 1023.958598 511.970648a508.588777 508.588777 0 0 1-40.135793 198.700891zM829.341476 196.116631A446.662247 446.662247 0 1 0 960.149706 511.970648a443.918464 443.918464 0 0 0-130.80823-315.854017z m-224.001116 376.057707a93.320505 93.320505 0 0 0-54.014228 84.514878v41.47578h-63.808892v-41.47578a155.885124 155.885124 0 0 1 24.662137-84.10012 159.139378 159.139378 0 0 1 65.531732-57.810857 135.338661 135.338661 0 1 0-193.659988-122.162124h-63.808893a198.956126 198.956126 0 1 1 285.193845 179.46251zM545.391905 831.01511h-63.808892v-95.713339h63.808892v95.713339z" p-id="4126"></path></svg>