<?xml version="1.0" encoding="utf-8"?>
<svg version="1.1" xmlns:xlink="http://www.w3.org/1999/xlink" width="50px" height="50px" xmlns="http://www.w3.org/2000/svg">
  <g transform="matrix(1 0 0 1 -34 -60 )">
    <path d="M 15.2901785714286 1.98102678571428  C 18.3779761904762 0.660342261904762  21.6145833333333 0  25 0  C 28.3854166666667 0  31.6220238095238 0.660342261904762  34.7098214285714 1.98102678571428  C 37.7976190476191 3.30171130952381  40.4575892857143 5.078125  42.6897321428571 7.31026785714286  C 44.921875 9.54241071428572  46.6982886904762 12.2023809523809  48.0189732142857 15.2901785714286  C 49.3396577380952 18.3779761904762  50 21.6145833333333  50 25  C 50 28.3668154761905  49.3443080357143 31.5941220238095  48.0329241071429 34.6819196428571  C 46.7215401785714 37.7697172619048  44.9497767857143 40.4296875  42.7176339285714 42.6618303571429  C 40.4854910714286 44.8939732142857  37.8255208333333 46.6750372023809  34.7377232142857 48.0050223214286  C 31.6499255952381 49.3350074404762  28.4040178571429 50  25 50  C 21.5959821428571 50  18.3500744047619 49.3396577380952  15.2622767857143 48.0189732142857  C 12.1744791666667 46.6982886904762  9.51915922619048 44.9172247023809  7.29631696428571 42.67578125  C 5.07347470238095 40.434337797619  3.30171130952381 37.7743675595238  1.98102678571429 34.6958705357143  C 0.660342261904762 31.6173735119048  0 28.3854166666667  0 25  C 0 21.6145833333333  0.660342261904762 18.3779761904762  1.98102678571429 15.2901785714286  C 3.30171130952381 12.2023809523809  5.078125 9.54241071428572  7.31026785714286 7.31026785714286  C 9.54241071428571 5.078125  12.202380952381 3.30171130952381  15.2901785714286 1.98102678571428  Z M 33.7332589285714 28.5714285714286  C 38.1975446428571 28.5714285714286  41.0435267857143 31.6127232142857  42.2712053571429 37.6953125  C 45.0427827380952 33.882068452381  46.4285714285714 29.6502976190476  46.4285714285714 25  C 46.4285714285714 22.0982142857143  45.8612351190476 19.3266369047619  44.7265625 16.6852678571429  C 43.5918898809524 14.0438988095238  42.0665922619048 11.7652529761905  40.1506696428571 9.84933035714285  C 38.2347470238095 7.93340773809524  35.9561011904762 6.40811011904762  33.3147321428571 5.2734375  C 30.6733630952381 4.13876488095238  27.9017857142857 3.57142857142857  25 3.57142857142857  C 22.0982142857143 3.57142857142857  19.3266369047619 4.13876488095238  16.6852678571429 5.2734375  C 14.0438988095238 6.40811011904762  11.7652529761905 7.93340773809524  9.84933035714286 9.84933035714285  C 7.93340773809524 11.7652529761905  6.40811011904762 14.0438988095238  5.2734375 16.6852678571429  C 4.13876488095238 19.3266369047619  3.57142857142857 22.0982142857143  3.57142857142857 25  C 3.57142857142857 29.6502976190476  4.95721726190476 33.882068452381  7.72879464285714 37.6953125  C 8.95647321428571 31.6127232142857  11.8024553571429 28.5714285714286  16.2667410714286 28.5714285714286  C 18.7034970238095 30.952380952381  21.6145833333333 32.1428571428571  25 32.1428571428571  C 28.3854166666667 32.1428571428571  31.2965029761905 30.952380952381  33.7332589285714 28.5714285714286  Z M 32.5753348214286 27.2181919642857  C 34.66796875 25.1255580357143  35.7142857142857 22.6004464285714  35.7142857142857 19.6428571428571  C 35.7142857142857 16.6852678571429  34.66796875 14.16015625  32.5753348214286 12.0675223214286  C 30.4827008928571 9.97488839285715  27.9575892857143 8.92857142857143  25 8.92857142857143  C 22.0424107142857 8.92857142857143  19.5172991071429 9.97488839285715  17.4246651785714 12.0675223214286  C 15.33203125 14.16015625  14.2857142857143 16.6852678571429  14.2857142857143 19.6428571428571  C 14.2857142857143 22.6004464285714  15.33203125 25.1255580357143  17.4246651785714 27.2181919642857  C 19.5172991071429 29.3108258928571  22.0424107142857 30.3571428571429  25 30.3571428571429  C 27.9575892857143 30.3571428571429  30.4827008928571 29.3108258928571  32.5753348214286 27.2181919642857  Z " fill-rule="nonzero" fill="#000000" stroke="none" transform="matrix(1 0 0 1 34 60 )" />
  </g>
</svg>