<?xml version="1.0" encoding="utf-8"?>
<svg version="1.1" xmlns:xlink="http://www.w3.org/1999/xlink" width="25px" height="19px" xmlns="http://www.w3.org/2000/svg">
  <g transform="matrix(1 0 0 1 -15 -316 )">
    <path d="M 11.907958984375 8.1083984375  C 10.992431640625 9.0361328125  9.8876953125 9.5  8.59375 9.5  C 7.2998046875 9.5  6.195068359375 9.0361328125  5.279541015625 8.1083984375  C 4.364013671875 7.1806640625  3.90625 6.06119791666667  3.90625 4.75  C 3.90625 3.43880208333333  4.364013671875 2.3193359375  5.279541015625 1.3916015625  C 6.195068359375 0.4638671875  7.2998046875 0  8.59375 0  C 9.8876953125 0  10.992431640625 0.4638671875  11.907958984375 1.3916015625  C 12.823486328125 2.3193359375  13.28125 3.43880208333333  13.28125 4.75  C 13.28125 6.06119791666667  12.823486328125 7.1806640625  11.907958984375 8.1083984375  Z M 20.3125 6.72916666666667  L 20.3125 11.0833333333333  L 24.609375 11.0833333333333  C 24.7151692708333 11.0833333333333  24.8067220052083 11.1225043402778  24.884033203125 11.2008463541667  C 24.9613444010417 11.2791883680556  25 11.3719618055556  25 11.4791666666667  L 25 13.8541666666667  C 25 13.9613715277778  24.9613444010417 14.0541449652778  24.884033203125 14.1324869791667  C 24.8067220052083 14.2108289930556  24.7151692708333 14.25  24.609375 14.25  L 20.3125 14.25  L 20.3125 18.6041666666667  C 20.3125 18.7113715277778  20.2738444010417 18.8041449652778  20.196533203125 18.8824869791667  C 20.1192220052083 18.9608289930556  20.0276692708333 19  19.921875 19  L 17.578125 19  C 17.4723307291667 19  17.3807779947917 18.9608289930556  17.303466796875 18.8824869791667  C 17.2261555989583 18.8041449652778  17.1875 18.7113715277778  17.1875 18.6041666666667  L 17.1875 14.25  L 12.890625 14.25  C 12.7848307291667 14.25  12.6932779947917 14.2108289930556  12.615966796875 14.1324869791667  C 12.5386555989583 14.0541449652778  12.5 13.9613715277778  12.5 13.8541666666667  L 12.5 11.4791666666667  C 12.5 11.3719618055556  12.5386555989583 11.2791883680556  12.615966796875 11.2008463541667  C 12.6932779947917 11.1225043402778  12.7848307291667 11.0833333333333  12.890625 11.0833333333333  L 17.1875 11.0833333333333  L 17.1875 6.72916666666667  C 17.1875 6.62196180555555  17.2261555989583 6.52918836805555  17.303466796875 6.45084635416667  C 17.3807779947917 6.37250434027778  17.4723307291667 6.33333333333333  17.578125 6.33333333333333  L 19.921875 6.33333333333333  C 20.0276692708333 6.33333333333333  20.1192220052083 6.37250434027778  20.196533203125 6.45084635416667  C 20.2738444010417 6.52918836805555  20.3125 6.62196180555555  20.3125 6.72916666666667  Z M 11.328125 11.4791666666667  L 11.328125 13.8541666666667  C 11.328125 14.2829861111111  11.4827473958333 14.6540798611111  11.7919921875 14.9674479166667  C 12.1012369791667 15.2808159722222  12.4674479166667 15.4375  12.890625 15.4375  L 16.015625 15.4375  L 16.015625 18.3815104166667  C 15.4622395833333 18.7938368055556  14.7664388020833 19  13.92822265625 19  L 3.25927734375 19  C 2.27457682291667 19  1.48518880208333 18.7154947916667  0.89111328125 18.146484375  C 0.297037760416667 17.5774739583333  0 16.7940538194444  0 15.7962239583333  C 0 15.3591579861111  0.0142415364583333 14.9324001736111  0.042724609375 14.5159505208333  C 0.0712076822916667 14.0995008680556  0.128173828125 13.6500651041667  0.213623046875 13.1676432291667  C 0.299072265625 12.6852213541667  0.406901041666667 12.2378472222222  0.537109375 11.8255208333333  C 0.667317708333333 11.4131944444444  0.84228515625 11.0111762152778  1.06201171875 10.6194661458333  C 1.28173828125 10.2277560763889  1.53401692708333 9.89377170138889  1.81884765625 9.61751302083333  C 2.10367838541667 9.34125434027778  2.45157877604167 9.12065972222222  2.862548828125 8.95572916666667  C 3.27351888020833 8.79079861111111  3.72721354166667 8.70833333333333  4.2236328125 8.70833333333333  C 4.37825520833333 8.70833333333333  4.53694661458333 8.77842881944444  4.69970703125 8.91861979166667  C 5.34261067708333 9.42165798611111  5.97127278645833 9.79893663194444  6.585693359375 10.0504557291667  C 7.20011393229167 10.3019748263889  7.86946614583333 10.427734375  8.59375 10.427734375  C 9.31803385416667 10.427734375  9.98738606770833 10.3019748263889  10.601806640625 10.0504557291667  C 11.2162272135417 9.79893663194444  11.8448893229167 9.42165798611111  12.48779296875 8.91861979166667  C 12.6505533854167 8.77842881944444  12.8092447916667 8.70833333333333  12.9638671875 8.70833333333333  C 14.0380859375 8.70833333333333  14.9210611979167 9.10416666666667  15.61279296875 9.89583333333333  L 12.890625 9.89583333333333  C 12.4674479166667 9.89583333333333  12.1012369791667 10.0525173611111  11.7919921875 10.3658854166667  C 11.4827473958333 10.6792534722222  11.328125 11.0503472222222  11.328125 11.4791666666667  Z " fill-rule="nonzero" fill="#000000" stroke="none" transform="matrix(1 0 0 1 15 316 )" />
  </g>
</svg>