<?xml version="1.0" encoding="utf-8"?>
<svg version="1.1" xmlns:xlink="http://www.w3.org/1999/xlink" width="73px" height="20px" xmlns="http://www.w3.org/2000/svg">
  <defs>
    <mask fill="white" id="clip1">
      <path d="M 0 15  L 0 5  C 0 2.2  2.20000000000005 0  5 0  L 41 0  L 68 0  C 70.8 0  73 2.2  73 5  L 73 15  C 73 17.8  70.8 20  68 20  L 5 20  C 2.20000000000005 20  0 17.8  0 15  Z " fill-rule="evenodd" />
    </mask>
  </defs>
  <g transform="matrix(1 0 0 1 -127 -248 )">
    <path d="M 0 15  L 0 5  C 0 2.2  2.20000000000005 0  5 0  L 41 0  L 68 0  C 70.8 0  73 2.2  73 5  L 73 15  C 73 17.8  70.8 20  68 20  L 5 20  C 2.20000000000005 20  0 17.8  0 15  Z " fill-rule="nonzero" fill="#ffffff" stroke="none" transform="matrix(1 0 0 1 127 248 )" />
    <path d="M 0 15  L 0 5  C 0 2.2  2.20000000000005 0  5 0  L 41 0  L 68 0  C 70.8 0  73 2.2  73 5  L 73 15  C 73 17.8  70.8 20  68 20  L 5 20  C 2.20000000000005 20  0 17.8  0 15  Z " stroke-width="2" stroke="#027db4" fill="none" transform="matrix(1 0 0 1 127 248 )" mask="url(#clip1)" />
  </g>
</svg>