<?xml version="1.0" encoding="utf-8"?>
<svg version="1.1" xmlns:xlink="http://www.w3.org/1999/xlink" width="20px" height="22px" xmlns="http://www.w3.org/2000/svg">
  <g transform="matrix(1 0 0 1 -310 -278 )">
    <path d="M 7.14488636363636 8.37890625  C 7.23011363636364 8.46484375  7.27272727272727 8.57465277777778  7.27272727272727 8.70833333333333  L 7.27272727272727 16.9583333333333  C 7.27272727272727 17.0920138888889  7.23011363636364 17.2018229166667  7.14488636363636 17.2877604166667  C 7.05965909090909 17.3736979166667  6.95075757575758 17.4166666666667  6.81818181818182 17.4166666666667  L 5.90909090909091 17.4166666666667  C 5.77651515151515 17.4166666666667  5.66761363636364 17.3736979166667  5.58238636363636 17.2877604166667  C 5.49715909090909 17.2018229166667  5.45454545454545 17.0920138888889  5.45454545454545 16.9583333333333  L 5.45454545454545 8.70833333333333  C 5.45454545454545 8.57465277777778  5.49715909090909 8.46484375  5.58238636363636 8.37890625  C 5.66761363636364 8.29296875  5.77651515151515 8.25  5.90909090909091 8.25  L 6.81818181818182 8.25  C 6.95075757575758 8.25  7.05965909090909 8.29296875  7.14488636363636 8.37890625  Z M 10.78125 8.37890625  C 10.8664772727273 8.46484375  10.9090909090909 8.57465277777778  10.9090909090909 8.70833333333333  L 10.9090909090909 16.9583333333333  C 10.9090909090909 17.0920138888889  10.8664772727273 17.2018229166667  10.78125 17.2877604166667  C 10.6960227272727 17.3736979166667  10.5871212121212 17.4166666666667  10.4545454545455 17.4166666666667  L 9.54545454545455 17.4166666666667  C 9.41287878787879 17.4166666666667  9.30397727272727 17.3736979166667  9.21875 17.2877604166667  C 9.13352272727273 17.2018229166667  9.09090909090909 17.0920138888889  9.09090909090909 16.9583333333333  L 9.09090909090909 8.70833333333333  C 9.09090909090909 8.57465277777778  9.13352272727273 8.46484375  9.21875 8.37890625  C 9.30397727272727 8.29296875  9.41287878787879 8.25  9.54545454545455 8.25  L 10.4545454545455 8.25  C 10.5871212121212 8.25  10.6960227272727 8.29296875  10.78125 8.37890625  Z M 14.4176136363636 8.37890625  C 14.5028409090909 8.46484375  14.5454545454545 8.57465277777778  14.5454545454545 8.70833333333333  L 14.5454545454545 16.9583333333333  C 14.5454545454545 17.0920138888889  14.5028409090909 17.2018229166667  14.4176136363636 17.2877604166667  C 14.3323863636364 17.3736979166667  14.2234848484848 17.4166666666667  14.0909090909091 17.4166666666667  L 13.1818181818182 17.4166666666667  C 13.0492424242424 17.4166666666667  12.9403409090909 17.3736979166667  12.8551136363636 17.2877604166667  C 12.7698863636364 17.2018229166667  12.7272727272727 17.0920138888889  12.7272727272727 16.9583333333333  L 12.7272727272727 8.70833333333333  C 12.7272727272727 8.57465277777778  12.7698863636364 8.46484375  12.8551136363636 8.37890625  C 12.9403409090909 8.29296875  13.0492424242424 8.25  13.1818181818182 8.25  L 14.0909090909091 8.25  C 14.2234848484848 8.25  14.3323863636364 8.29296875  14.4176136363636 8.37890625  Z M 16.2642045454545 19.658203125  C 16.3304924242424 19.4815538194444  16.3636363636364 19.2881944444444  16 19.078125  L 16 5.5  L 4 5.5  L 4 19.078125  C 3.63636363636364 19.2881944444444  3.66950757575758 19.4815538194444  3.73579545454545 19.658203125  C 3.80208333333333 19.8348524305556  3.87073863636364 19.9637586805556  3.94176136363636 20.044921875  C 4.01278409090909 20.1260850694444  4.0625 20.1666666666667  4.09090909090909 20  L 15.9090909090909 20  C 15.9375 20.1666666666667  15.9872159090909 20.1260850694444  16.0582386363636 20.044921875  C 16.1292613636364 19.9637586805556  16.1979166666667 19.8348524305556  16.2642045454545 19.658203125  Z M 7.51420454545455 1.99088541666667  L 6.81818181818182 3.66666666666667  L 13.1818181818182 3.66666666666667  L 12.5 1.99088541666667  C 12.4337121212121 1.90494791666667  12.3532196969697 1.85243055555555  12.2585227272727 1.83333333333333  L 7.75568181818182 1.83333333333333  C 7.66098484848485 1.85243055555555  7.58049242424243 1.90494791666667  7.51420454545455 1.99088541666667  Z M 19.8721590909091 3.79557291666667  C 19.9573863636364 3.88151041666667  20 3.99131944444444  20 4.125  L 20 5.04166666666667  C 20 5.17534722222222  19.9573863636364 5.28515625  19.8721590909091 5.37109375  C 19.7869318181818 5.45703125  19.6780303030303 5.5  19.5454545454545 5.5  L 18 5.5  L 18 19.078125  C 18.1818181818182 19.8706597222222  17.9592803030303 20.5557725694444  17.5142045454545 21.1334635416667  C 17.0691287878788 21.7111545138889  16.5340909090909 22  15.9090909090909 22  L 4.09090909090909 22  C 3.46590909090909 22  2.93087121212121 21.720703125  2.48579545454545 21.162109375  C 2.0407196969697 20.603515625  1.81818181818182 19.9279513888889  2 19.1354166666667  L 2 5.5  L 0.454545454545455 5.5  C 0.321969696969697 5.5  0.213068181818182 5.45703125  0.127840909090909 5.37109375  C 0.0426136363636364 5.28515625  0 5.17534722222222  0 5.04166666666667  L 0 4.125  C 0 3.99131944444444  0.0426136363636364 3.88151041666667  0.127840909090909 3.79557291666667  C 0.213068181818182 3.70963541666667  0.321969696969697 3.66666666666667  0.454545454545455 3.66666666666667  L 4.84375 3.66666666666667  L 5.83806818181818 1.27473958333333  C 5.98011363636364 0.92144097222222  6.23579545454546 0.62065972222222  6.60511363636364 0.372395833333334  C 6.97443181818182 0.124131944444443  7.34848484848485 0  7.72727272727273 0  L 12.2727272727273 0  C 12.6515151515152 0  13.0255681818182 0.124131944444443  13.3948863636364 0.372395833333334  C 13.7642045454545 0.62065972222222  14.0198863636364 0.92144097222222  14.1619318181818 1.27473958333333  L 15.15625 3.66666666666667  L 19.5454545454545 3.66666666666667  C 19.6780303030303 3.66666666666667  19.7869318181818 3.70963541666667  19.8721590909091 3.79557291666667  Z " fill-rule="nonzero" fill="#000000" stroke="none" transform="matrix(1 0 0 1 310 278 )" />
  </g>
</svg>