<?xml version="1.0" encoding="utf-8"?>
<svg version="1.1" xmlns:xlink="http://www.w3.org/1999/xlink" width="169px" height="39px" xmlns="http://www.w3.org/2000/svg">
  <defs>
    <mask fill="white" id="clip4">
      <path d="M 0 32.2758620689655  L 0 6.72413793103448  C 0 2.95862068965523  2.65571428571434 0  6.03571428571429 0  L 85.3622448979593 0  L 162.964285714286 0  C 166.344285714286 0  169 2.95862068965523  169 6.72413793103448  L 169 32.2758620689655  C 169 36.0413793103448  166.344285714286 39  162.964285714286 39  L 6.03571428571429 39  C 2.65571428571434 39  0 36.0413793103448  0 32.2758620689655  Z " fill-rule="evenodd" />
    </mask>
  </defs>
  <g transform="matrix(1 0 0 1 -834 -760 )">
    <path d="M 0 32.2758620689655  L 0 6.72413793103448  C 0 2.95862068965523  2.65571428571434 0  6.03571428571429 0  L 85.3622448979593 0  L 162.964285714286 0  C 166.344285714286 0  169 2.95862068965523  169 6.72413793103448  L 169 32.2758620689655  C 169 36.0413793103448  166.344285714286 39  162.964285714286 39  L 6.03571428571429 39  C 2.65571428571434 39  0 36.0413793103448  0 32.2758620689655  Z " fill-rule="nonzero" fill="#ffffff" stroke="none" transform="matrix(1 0 0 1 834 760 )" />
    <path d="M 0 32.2758620689655  L 0 6.72413793103448  C 0 2.95862068965523  2.65571428571434 0  6.03571428571429 0  L 85.3622448979593 0  L 162.964285714286 0  C 166.344285714286 0  169 2.95862068965523  169 6.72413793103448  L 169 32.2758620689655  C 169 36.0413793103448  166.344285714286 39  162.964285714286 39  L 6.03571428571429 39  C 2.65571428571434 39  0 36.0413793103448  0 32.2758620689655  Z " stroke-width="2" stroke="#797979" fill="none" transform="matrix(1 0 0 1 834 760 )" mask="url(#clip4)" />
  </g>
</svg>