<?xml version="1.0" encoding="utf-8"?>
<svg version="1.1" xmlns:xlink="http://www.w3.org/1999/xlink" width="57px" height="27px" xmlns="http://www.w3.org/2000/svg">
  <defs>
    <mask fill="white" id="clip3">
      <path d="M 0 22  L 0 5  C 0 2.19999999999999  2.19999999999982 0  5 0  L 27.0769230769229 0  L 34.7692307692305 0  L 52 0  C 54.8000000000002 0  57 2.19999999999999  57 5  L 57 22  C 57 24.8  54.8000000000002 27  52 27  L 5 27  C 2.19999999999982 27  0 24.8  0 22  Z " fill-rule="evenodd" />
    </mask>
  </defs>
  <g transform="matrix(1 0 0 1 -1276 -312 )">
    <path d="M 0 22  L 0 5  C 0 2.19999999999999  2.19999999999982 0  5 0  L 27.0769230769229 0  L 34.7692307692305 0  L 52 0  C 54.8000000000002 0  57 2.19999999999999  57 5  L 57 22  C 57 24.8  54.8000000000002 27  52 27  L 5 27  C 2.19999999999982 27  0 24.8  0 22  Z " fill-rule="nonzero" fill="#ffffff" stroke="none" transform="matrix(1 0 0 1 1276 312 )" />
    <path d="M 0 22  L 0 5  C 0 2.19999999999999  2.19999999999982 0  5 0  L 27.0769230769229 0  L 34.7692307692305 0  L 52 0  C 54.8000000000002 0  57 2.19999999999999  57 5  L 57 22  C 57 24.8  54.8000000000002 27  52 27  L 5 27  C 2.19999999999982 27  0 24.8  0 22  Z " stroke-width="2" stroke="#797979" fill="none" transform="matrix(1 0 0 1 1276 312 )" mask="url(#clip3)" />
  </g>
</svg>