<svg t="1528284746949" class="icon" viewBox="0 0 1024 1024" version="1.1" xmlns="http://www.w3.org/2000/svg" p-id="1880" height="32" width="32"><path d="M322.8596861155556 158.89492536888883c27.093145600000003-33.026393884444445 60.51656362666667-54.51345919999999 91.58112028444445-68.4605485511111 14.949548942222222-6.710996764444444 30.60233102222222-11.483442062222222 46.18292792888888-14.666624568888889 17.20711623111111-3.515006293333333 34.42354744888888-5.082148408888889 50.53622727111111-5.178784426666667l0.09197909333333333 0 0.7474779022222222-0.0011639466666666667 0.7474779022222222 0.0011639466666666667 0.09197909333333333 0c16.111514737777778 0.09663601777777778 33.32910990222222 1.6637781333333332 50.53622727111111 5.178784426666667 15.580596906666667 3.1831825066666664 31.23337898666667 7.955627804444445 46.18292792888888 14.666624568888889 31.065720604444444 13.947090488888888 64.4891386311111 35.434155804444444 91.57995633777777 68.4605485511111 21.52665088 26.240881777777776 38.910740479999994 59.51177728 47.74890496 101.66391580444444 6.272056888888889 29.923547591111113 8.275808711111111 63.653174613333334 5.419793066666667 96.6586106311111-2.709315128888889 31.32535808-9.79637816888889 62.38642176-21.759510755555553 89.47258140444444-6.520052622222222 14.762096639999998-15.544503182222222 31.97736391111111-28.02574677333333 51.251104426666664-9.991980373333332 15.426909297777776-22.106470399999996 32.00414264888889-36.791723804444445 49.43014684444445-2.5963781688888887 4.589651057777777-11.582407111111111 23.20556487111111 6.472316017777777 33.98810168888888 20.755888355555555 12.39508536888889 71.21410730666666 42.821608106666666 118.12122623999998 71.50401649777777 30.729238755555556 18.789393066666666 61.246576639999994 37.643987626666664 83.13648810666666 51.58642119111111 15.941527324444445 10.156145777777777 35.09301703111111 22.944762311111113 51.11488170666667 39.33570844444444 17.854465137777776 18.26895416888889 31.53027413333333 40.58732544 33.20453006222222 68.06818133333333 0.4913322666666667 8.076714666666666 0.7183701333333334 17.60414151111111 0.7556278044444444 27.56817806222222 0.040750648888888893 11.044503324444445-0.17930126222222223 21.89689742222222-0.5437257955555556 31.38240853333333-0.8429499733333333 21.963261724444443-5.394179413333333 41.19392369777778-16.576068266666667 56.03868558222223-12.248383715555555 16.257051306666664-30.725746915555554 25.96145152-58.2007808 26.569212586666666l-0.45989660444444447 0c-107.91501596444444-0.39120327111111114-231.83443057777777-0.5856403911111111-372.7560465066666-0.5856403911111111-140.9192868977778 0-264.84103168 0.19443712-372.7537186133333 0.5856403911111111l-0.4610605511111111 0c-27.47503502222222-0.6077622044444445-45.95239708444445-10.31216128-58.199616853333325-26.569212586666666-11.181889991111111-14.844761884444445-15.734283377777778-34.07542385777778-16.57723335111111-56.03868558222223-0.36326058666666666-9.485512248888888-0.58331136-20.339070293333332-0.5425618488888889-31.384737564444443 0.03609258666666667-9.961708657777775 0.2654594844444444-19.489134364444443 0.7556278044444444-27.565850168888886 1.674255928888889-27.480855893333334 15.348902115555555-49.798063217777774 33.20453006222222-68.06818133333333 16.021864675555555-16.390946133333333 35.17218929777778-29.180726613333334 51.11488170666667-39.33570844444444 21.887582435555554-13.940104533333335 52.402591288888885-32.793534008888884 83.12833820444445-51.580599182222215 46.909447964444446-28.68473742222222 97.37232383999999-59.11475313777777 118.12821219555555-71.50983736888888 18.055888213333333-10.783700764444443 9.069858133333334-29.398450631111107 6.473479964444444-33.98810168888888-14.684089457777779-17.426004195555553-26.79974343111111-34.00323754666667-36.791723804444445-49.43014684444445-12.482407537777778-19.273740515555556-21.506858097777776-36.48900664888889-28.02574677333333-51.251104426666664-11.963131448888888-27.086159644444443-19.050195626666664-58.14722332444445-21.759510755555553-89.47258140444444-2.8560156444444447-33.005436017777775-0.8510998755555554-66.73389909333333 5.419793066666667-96.6586106311111C283.94894563555556 218.40670264888894 301.3330352355555 185.13580714666665 322.8596861155556 158.89492536888883M433.5678464 133.2874194488889c-25.458475235555557 11.429884586666667-52.71345834666667 28.872188586666667-74.47646208 55.40181560888889-17.04178688 20.775681137777777-30.859640604444447 47.37865841777777-38.00026225777778 81.43428835555555-5.318500124444444 25.371153066666665-6.984606151111111 54.34347178666666-4.501164942222222 83.04916593777777 2.2959900444444443 26.530790968888887 8.130272142222221 52.45964174222222 17.897543680000002 74.57309809777777 5.75161799111111 13.022640355555554 13.611773724444445 28.057182435555553 24.34773788444444 44.632086755555555 9.144373475555554 14.117077902222222 20.474127928888887 29.53816519111111 34.512033564444444 46.08279779555556l1.0106083555555554 1.1910735644444446 0.8278141155555554 1.2923676444444443c0.11759388444444444 0.18163029333333333 41.41397447111111 63.24217855999999-21.296121173333333 100.69172906666665-19.570635662222223 11.684865137777777-69.10091150222223 41.572319004444445-117.76145863111111 71.32587918222222-32.60491889777777 19.936224142222223-63.47853027555555 38.984090737777784-82.39250318222221 51.02872348444444-13.667659093333333 8.70776263111111-29.981761991111114 19.565978737777776-42.656277617777775 32.53273258666667-10.841915164444442 11.089910897777777-19.0956032 23.85058360888889-19.96300288 38.08874837333333-0.4994821688888889 8.201294506666667-0.7253560888888888 16.659897457777777-0.7556278044444444 24.806470542222222-0.037257671111111106 9.986158364444444 0.18163029333333333 20.333248284444444 0.5425618488888889 29.730274417777775 0.4913322666666667 12.78628864 2.493920142222222 23.121735679999997 7.198836053333333 29.369342862222222 3.6349292088888885 4.827166719999999 10.369211733333334 7.737904924444444 21.5464448 7.992885475555555 141.6295071288889-0.5111250488888889 265.4744075377778-0.7672706844444445 372.3497073777778-0.7672706844444445 106.87762887111111 0 230.72136419555557 0.25614449777777776 372.3520364088889 0.7672706844444445 11.176067982222222-0.25614449777777776 17.911515591111108-3.166882702222222 21.5464448-7.992885475555555 4.704915911111112-6.246443235555556 6.707503786666666-16.581890275555555 7.198836053333333-29.369342862222222 0.3597676088888888-9.397024995555554 0.5798183822222222-19.744116053333336 0.5425618488888889-29.727945386666665-0.030271715555555554-8.148900977777778-0.2573095822222222-16.607505066666665-0.7556278044444444-24.80879843555556-0.86739968-14.23932871111111-9.122251662222222-26.99767352888889-19.96300288-38.08874837333333-12.674515626666667-12.967917795555556-28.987453439999996-23.82613390222222-42.656277617777775-32.53273258666667-18.91280896-12.04696064-49.793406293333334-31.09599232-82.39948913777776-51.03454549333333-48.658219235555556-29.751231146666665-98.18500209777777-59.63519203555555-117.75330872888888-71.32005717333332-62.71009564444444-37.44955050666667-21.413715057777775-100.51009877333333-21.297285119999998-100.69172906666665l0.8289780622222221-1.2923676444444443 1.0106083555555554-1.1910735644444446c14.037905635555555-16.544632604444445 25.367660088888886-31.96572103111111 34.512033564444444-46.08279779555556 10.734800213333331-16.574904319999998 18.59612103111111-31.609446399999996 24.34773788444444-44.632086755555555 9.767271537777779-22.11462030222222 15.601553635555556-48.04230712888889 17.897543680000002-74.57309809777777 2.482277262222222-28.705694151111114 0.8173351822222222-57.6780128711111-4.501164942222222-83.04916593777777-7.139457706666666-34.05562993777777-20.95847537777778-60.65860835555555-38.00026225777778-81.43428835555555-21.761838648888887-26.529627022222222-49.017985706666664-43.97193102222222-74.47646208-55.40181560888889-11.70698695111111-5.254463715555556-24.064814648888888-9.011643733333333-36.43661312-11.53932856888889-14.157827413333333-2.892109368888889-28.232990719999997-4.180984035555555-41.34062421333333-4.260155164444444l0 0-0.655497671111111-0.0011639466666666667-0.655497671111111 0.0011639466666666667 0 0c-13.10879744 0.07800831999999999-27.183960746666667 1.3668818488888888-41.34062421333333 4.260155164444444C457.63149596444447 124.27461176888892 445.27250432 128.03295573333332 433.5678464 133.2874194488889z" p-id="1881" fill="#0079fe"></path></svg>