<svg t="1528286266374" class="icon" viewBox="0 0 1024 1024" version="1.1" xmlns="http://www.w3.org/2000/svg" p-id="13640" height="32" width="32"><path d="M509.54449 34.302041c-264.34997 0-478.648602 214.298632-478.648602 478.648602s214.298632 478.648602 478.648602 478.648602 478.648602-214.298632 478.648602-478.648602-214.298632-478.648602-478.648602-478.648602z m0 912.769099c-239.758745 0-434.12335-194.364605-434.12335-434.123349S269.785745 78.825392 509.54449 78.825392s434.12335 194.364605 434.123349 434.123349S749.303235 947.07114 509.54449 947.07114z m1.52293-267.935794c72.266908 0 130.853116-58.323831 130.853116-130.265619V275.879365c0-71.941788-58.586209-130.265619-130.853116-130.265619-72.268809 0-130.853116 58.323831-130.853117 130.265619v272.990362c-0.000951 71.941788 58.583357 130.265619 130.853117 130.265619z m188.669304-266.00599c-11.763253 0-21.301051 9.493118-21.301051 21.203135 0 2.749259 0.565632 5.356872 1.522929 7.769603v108.303871c0 93.690592-76.296682 169.646944-170.414112 169.646944-94.118381 0-170.414113-75.956352-170.414113-169.646944V442.102094c0.957297-2.413682 1.52293-5.020344 1.52293-7.769603 0-11.710017-9.536848-21.203135-21.302952-21.203135-11.763253 0-21.301051 9.493118-21.301052 21.203135v114.557199c0 108.738315 82.808585 198.198547 189.066674 209.354339a24.182449 24.182449 0 0 0-0.394517 4.220854v75.40593H375.514326c-11.766105 0-21.302952 9.495019-21.302953 21.205036 0 11.711918 9.537798 21.209789 21.302953 21.209789h270.374193c11.763253 0 21.301051-9.496921 21.301051-21.209789 0-11.710017-9.537798-21.205036-21.301051-21.205036H535.411478v-75.40593c0-1.576166-0.164461-3.107651-0.449654-4.597308 104.813111-12.507606 186.078803-101.269115 186.078803-208.977885V434.332491c0-11.710967-9.537798-21.203135-21.303903-21.203135z" fill="#8a8a8a" p-id="13641"></path></svg>