<svg t="1528333995944" class="icon" viewBox="0 0 1024 1024" version="1.1" xmlns="http://www.w3.org/2000/svg" p-id="41662" height="48" width="48"><path d="M388.992 438.528v-121.6c0-44.8 35.029333-81.237333 78.208-81.237333s78.208 36.394667 78.208 81.28v121.6a147.370667 147.370667 0 0 0 62.592-121.6C608 235.946667 545.109333 170.666667 467.2 170.666667c-77.909333 0-140.8 65.322667-140.8 146.304 0 50.688 24.746667 95.232 62.592 121.6z m307.882667 150.528l-142.08-73.472a42.666667 42.666667 0 0 0-16.896-3.584h-23.765334V316.970667c0-27.008-20.949333-48.768-46.933333-48.768-25.984 0-46.933333 21.76-46.933333 48.768v349.098666l-107.306667-23.381333c-2.517333-0.341333-4.693333-0.981333-7.509333-0.981333a34.346667 34.346667 0 0 0-24.746667 10.709333l-24.704 26.026667 154.581333 160.597333c8.448 8.746667 20.309333 14.293333 33.152 14.293333h212.48c23.466667 0 41.6-17.877333 45.013334-41.6l23.466666-171.306666c0.341333-2.304 0.64-4.565333 0.64-6.528 0-20.138667-11.904-37.717333-28.458666-44.842667z" fill="#FF3DA0" p-id="41663"></path></svg>